G04*
G04 #@! TF.GenerationSoftware,Altium Limited,Altium Designer,18.1.9 (240)*
G04*
G04 Layer_Color=8388736*
%FSLAX24Y24*%
%MOIN*%
G70*
G01*
G75*
%ADD35R,0.0280X0.0280*%
%ADD36R,0.0380X0.0380*%
%ADD37R,0.0513X0.0631*%
%ADD38R,0.0380X0.0380*%
%ADD39R,0.1064X0.0552*%
%ADD40R,0.0867X0.1458*%
%ADD41R,0.1852X0.0474*%
%ADD42R,0.1261X0.0710*%
%ADD43R,0.0280X0.0280*%
%ADD44O,0.0320X0.0880*%
%ADD45R,0.0710X0.0356*%
%ADD46R,0.1261X0.0907*%
%ADD47R,0.0880X0.0680*%
%ADD48R,0.0600X0.0159*%
%ADD49R,0.0159X0.0600*%
%ADD50O,0.0159X0.0600*%
%ADD51O,0.0880X0.0320*%
%ADD52C,0.1261*%
%ADD53O,0.0680X0.0880*%
%ADD54R,0.0680X0.0880*%
%ADD55O,0.0880X0.0680*%
%ADD56R,0.0880X0.0680*%
%ADD57C,0.0580*%
%ADD58R,0.0580X0.0580*%
%ADD59R,0.0395X0.0395*%
%ADD60C,0.0395*%
D35*
X17972Y44845D02*
D03*
Y45245D02*
D03*
X23100Y45000D02*
D03*
Y45400D02*
D03*
X22550Y45000D02*
D03*
Y45400D02*
D03*
X13700Y38600D02*
D03*
Y39000D02*
D03*
X18522Y44845D02*
D03*
Y45245D02*
D03*
D36*
X15016Y44800D02*
D03*
Y44200D02*
D03*
X22055Y45000D02*
D03*
Y45600D02*
D03*
X21466Y45000D02*
D03*
Y45600D02*
D03*
X15100Y46100D02*
D03*
Y46700D02*
D03*
X16100Y46100D02*
D03*
Y46700D02*
D03*
X17300Y32100D02*
D03*
Y32700D02*
D03*
X16900Y46150D02*
D03*
Y46750D02*
D03*
X17422Y45443D02*
D03*
Y44843D02*
D03*
X18200Y32100D02*
D03*
Y32700D02*
D03*
X15800Y44800D02*
D03*
Y44200D02*
D03*
X20800Y33300D02*
D03*
Y32700D02*
D03*
X20100Y33300D02*
D03*
Y32700D02*
D03*
D37*
X22055Y43725D02*
D03*
X22645D02*
D03*
X22055Y42825D02*
D03*
X22645D02*
D03*
D38*
X22700Y41925D02*
D03*
X22100D02*
D03*
X24850Y46700D02*
D03*
X25450D02*
D03*
X26200Y45645D02*
D03*
X26800D02*
D03*
X24850D02*
D03*
X25450D02*
D03*
X22377Y28445D02*
D03*
X22977D02*
D03*
X17450Y28397D02*
D03*
X18050D02*
D03*
X21015Y28447D02*
D03*
X21615D02*
D03*
X18900Y28397D02*
D03*
X19500D02*
D03*
X21015Y29030D02*
D03*
X21615D02*
D03*
X22350Y29000D02*
D03*
X22950D02*
D03*
X18900Y29047D02*
D03*
X19500D02*
D03*
X17434Y28975D02*
D03*
X18034D02*
D03*
X26250Y46610D02*
D03*
X26850D02*
D03*
X20700Y40425D02*
D03*
X20100D02*
D03*
X21500D02*
D03*
X22100D02*
D03*
X13500Y43350D02*
D03*
X12900D02*
D03*
X20925Y46500D02*
D03*
X21475D02*
D03*
X22425D02*
D03*
X22975D02*
D03*
X26096Y35300D02*
D03*
X25496D02*
D03*
X26150Y36200D02*
D03*
X25550D02*
D03*
D39*
X20650Y42825D02*
D03*
Y43730D02*
D03*
Y41919D02*
D03*
D40*
X18485Y42825D02*
D03*
D41*
X28225Y44966D02*
D03*
Y45754D02*
D03*
X28250Y41313D02*
D03*
Y42100D02*
D03*
X11883Y36368D02*
D03*
Y35580D02*
D03*
Y32884D02*
D03*
Y32096D02*
D03*
D42*
X29308Y44100D02*
D03*
Y46620D02*
D03*
X29333Y40446D02*
D03*
Y42966D02*
D03*
X10800Y37234D02*
D03*
Y34714D02*
D03*
Y33750D02*
D03*
Y31230D02*
D03*
D43*
X26496Y44450D02*
D03*
X26096D02*
D03*
X25400Y44400D02*
D03*
X25000D02*
D03*
X13700Y32600D02*
D03*
X14100D02*
D03*
X15650Y33300D02*
D03*
X15250D02*
D03*
X13750Y34000D02*
D03*
X14150D02*
D03*
X14800Y28700D02*
D03*
X15200D02*
D03*
X13700D02*
D03*
X14100D02*
D03*
X27300Y39850D02*
D03*
X26900D02*
D03*
X27800Y39450D02*
D03*
X28200D02*
D03*
D44*
X26000Y41350D02*
D03*
X25500Y43550D02*
D03*
X25000D02*
D03*
X26500D02*
D03*
X26000D02*
D03*
X25000Y41350D02*
D03*
X25500D02*
D03*
X26500D02*
D03*
X14200Y31700D02*
D03*
X14700Y29500D02*
D03*
X15200D02*
D03*
X13700D02*
D03*
X14200D02*
D03*
X15200Y31700D02*
D03*
X14700D02*
D03*
X13700D02*
D03*
X14250Y37044D02*
D03*
X14750Y34844D02*
D03*
X15250D02*
D03*
X13750D02*
D03*
X14250D02*
D03*
X15250Y37044D02*
D03*
X14750D02*
D03*
X13750D02*
D03*
D45*
X11900Y27658D02*
D03*
Y27166D02*
D03*
Y28150D02*
D03*
Y28642D02*
D03*
Y48250D02*
D03*
Y47758D02*
D03*
X11942Y43894D02*
D03*
Y43402D02*
D03*
X28250Y31000D02*
D03*
Y31492D02*
D03*
Y35608D02*
D03*
Y36100D02*
D03*
D46*
X10758Y29744D02*
D03*
Y26063D02*
D03*
Y49352D02*
D03*
Y46656D02*
D03*
X10800Y44997D02*
D03*
Y42300D02*
D03*
X29392Y29898D02*
D03*
Y32594D02*
D03*
Y34506D02*
D03*
Y37202D02*
D03*
D47*
X15800Y38596D02*
D03*
Y40446D02*
D03*
D48*
X18710Y35863D02*
D03*
Y36059D02*
D03*
Y36256D02*
D03*
Y36453D02*
D03*
Y36650D02*
D03*
Y36847D02*
D03*
Y38028D02*
D03*
X22450D02*
D03*
Y37831D02*
D03*
Y37634D02*
D03*
Y37437D02*
D03*
Y37241D02*
D03*
Y37044D02*
D03*
Y36847D02*
D03*
Y36650D02*
D03*
Y36453D02*
D03*
Y36256D02*
D03*
Y36059D02*
D03*
Y35863D02*
D03*
X18710Y37437D02*
D03*
Y37634D02*
D03*
Y37831D02*
D03*
Y37241D02*
D03*
Y37044D02*
D03*
D49*
X19497Y38815D02*
D03*
X19694D02*
D03*
X19891D02*
D03*
X20088D02*
D03*
X20678D02*
D03*
X20875D02*
D03*
X21072D02*
D03*
X21269D02*
D03*
X21466D02*
D03*
X21663D02*
D03*
Y35075D02*
D03*
X21466D02*
D03*
X21269D02*
D03*
X21072D02*
D03*
X20875D02*
D03*
X20678D02*
D03*
X20482D02*
D03*
X20285D02*
D03*
X20088D02*
D03*
X19891D02*
D03*
X19694D02*
D03*
X20482Y38815D02*
D03*
X20285D02*
D03*
D50*
X19497Y35075D02*
D03*
D51*
X24750Y37950D02*
D03*
X26950Y38450D02*
D03*
Y38950D02*
D03*
Y37450D02*
D03*
Y37950D02*
D03*
X24750Y38950D02*
D03*
Y38450D02*
D03*
Y37450D02*
D03*
D52*
X26950Y26500D02*
D03*
X13350Y26150D02*
D03*
D53*
X17100Y48850D02*
D03*
X15100D02*
D03*
X16100D02*
D03*
X23025D02*
D03*
X21025D02*
D03*
X22025D02*
D03*
X28950D02*
D03*
X26950D02*
D03*
X27950D02*
D03*
X15900Y26400D02*
D03*
X17900D02*
D03*
X16900D02*
D03*
X21425D02*
D03*
X23425D02*
D03*
X22425D02*
D03*
D54*
X14100Y48850D02*
D03*
X20025D02*
D03*
X25950D02*
D03*
X18900Y26400D02*
D03*
X24425D02*
D03*
D55*
X11050Y40200D02*
D03*
D56*
Y39200D02*
D03*
D57*
X29400Y26000D02*
D03*
Y27000D02*
D03*
D58*
Y28000D02*
D03*
D59*
X29650Y38681D02*
D03*
D60*
X29158D02*
D03*
M02*
