M48
;Layer_Color=9474304
;FILE_FORMAT=2:5
INCH,LZ
;TYPE=PLATED
T1F00S00C0.01181
T2F00S00C0.01200
T3F00S00C0.01968
T4F00S00C0.03200
T5F00S00C0.03500
T6F00S00C0.11811
%
T01
X0169Y02805
X01665Y0285
X0171Y0289
X01855Y02905
X0191Y0301
X02015Y0303
X0202Y0287
X0194973Y028
X02155Y0296
X0242Y0292175
X02675Y03015
X02585Y03105
X0278Y02925
X01465Y03065
X01405
X0119Y0296
X0151Y04285
X01535Y04375
X0146
X01335Y04555
X0166Y04455
X01655Y0433
X01715Y0435
X0177Y0439
X0196Y0435
Y0423
X0157Y04225
X018Y04685
X02375Y04355
X0255Y04235
X02625Y0423
X02705Y0437
X0244Y0405
X0256Y0385
X02605Y03755
X02665Y03705
X02715Y03645
X0215Y03675
X02145Y0361
X0207Y03605
X02075Y0367
X0199
X01985Y03605
Y03755
X0208Y0375
X0216
X0231Y0322
X0246Y0323
X01685Y03135
X0168Y03425
T02
X0159Y0292175
X02175Y0312
X023Y0304
X0240399Y0309
X0274Y03095
X026175Y0295525
X0269Y0286
X01325Y02815
X0126421Y0286421
X0108Y02785
X0117Y03065
X0106Y03275
X0126421Y0335
X0126Y0371
X01185Y0375
X0106Y0364
X0136Y03995
X0131797Y0409328
X0138Y0415
X013Y04255
X0129323Y0441
X013Y044895
X0143Y04535
X011Y04375
X01465Y0394
X01645Y03845
X0171Y0379
X01755Y0376
X0165Y0372339
X0177Y0397
X0182
X0186992Y0390447
X0202772Y0397
X0208
X02285Y0390447
Y04085
X0227Y0414
X0192Y04085
X0183877Y0415
X0176Y04205
X0169Y04145
Y04565
X0161Y04545
X0158Y04565
X0178Y046
X01935Y04595
X01885Y0467
X02335Y0459
X02745Y0444
X0279Y04285
X0296Y04195
X0295Y04555
Y03615
X0274Y03565
X02635Y03465
X02625Y03385
X02681Y0333
X0264963Y0322
X0269Y0314921
X02935Y03135
X0249Y03325
X02495Y03475
X0239Y03465
X0232Y03375
X0224Y03475
X0226Y0316
X01915Y03125
X01615Y0316
X0189Y03455
X0236Y03695
X023415Y0471
X013Y04695
X0126Y04965
X01045Y0482
T03
X0291579Y0386814
X02965
T04
X0294Y026
Y027
Y028
T05
X0159Y0264
X0169
X0179
X0189
X021425
X022425
X023425
X024425
X01105Y0392
Y0402
X0161Y04885
X0171
X020025
X021025
X022025
X023025
X02595
X02695
X02795
X02895
X0151
X0141
T06
X02695Y0265
X01335Y02615
M30
