G04*
G04 #@! TF.GenerationSoftware,Altium Limited,Altium Designer,18.1.9 (240)*
G04*
G04 Layer_Color=65535*
%FSLAX24Y24*%
%MOIN*%
G70*
G01*
G75*
%ADD10C,0.0100*%
%ADD11C,0.0050*%
%ADD12C,0.0080*%
%ADD13C,0.0060*%
%ADD14C,0.0079*%
%ADD15C,0.0120*%
%ADD16R,0.0400X0.1000*%
%ADD17R,0.1000X0.0400*%
G36*
X16051Y39246D02*
Y39506D01*
X15571D01*
Y39246D01*
X16051D01*
D01*
D02*
G37*
D10*
X24750Y42200D02*
G03*
X24750Y42700I0J250D01*
G01*
X15450Y30850D02*
G03*
X15450Y30350I0J-250D01*
G01*
X15500Y36194D02*
G03*
X15500Y35694I0J-250D01*
G01*
X25600Y39200D02*
G03*
X26100Y39200I250J0D01*
G01*
X27950Y28250D02*
X28217D01*
X28083D01*
Y27850D01*
X28350Y28117D02*
X28616Y27850D01*
X28483Y27983D01*
X28616Y28117D01*
X28350Y27850D01*
X27950Y26900D02*
Y27300D01*
X28150D01*
X28217Y27233D01*
Y27100D01*
X28150Y27033D01*
X27950D01*
X28083D02*
X28217Y26900D01*
X28350Y27167D02*
X28616Y26900D01*
X28483Y27033D01*
X28616Y27167D01*
X28350Y26900D01*
D11*
X17772Y44745D02*
Y44945D01*
Y44745D02*
X17872Y44645D01*
X18072D01*
X18172Y44745D01*
Y44945D01*
X17772Y45145D02*
Y45345D01*
X17872Y45445D01*
X18022D01*
X18072D01*
X18172Y45345D01*
Y45145D02*
Y45345D01*
X15166Y45050D02*
X15266Y44950D01*
Y44650D02*
Y44950D01*
X14766Y44650D02*
Y44950D01*
X14866Y45050D01*
X15166D01*
Y43950D02*
X15266Y44050D01*
Y44350D01*
X14766Y44050D02*
Y44350D01*
Y44050D02*
X14866Y43950D01*
X15166D01*
X21805Y44850D02*
X21905Y44750D01*
X21805Y44850D02*
Y45150D01*
X22305Y44850D02*
Y45150D01*
X22205Y44750D02*
X22305Y44850D01*
X21905Y44750D02*
X22205D01*
X21805Y45750D02*
X21905Y45850D01*
X21805Y45450D02*
Y45750D01*
X22305Y45450D02*
Y45750D01*
X22205Y45850D02*
X22305Y45750D01*
X21905Y45850D02*
X22205D01*
X21216Y44850D02*
X21316Y44750D01*
X21216Y44850D02*
Y45150D01*
X21716Y44850D02*
Y45150D01*
X21616Y44750D02*
X21716Y44850D01*
X21316Y44750D02*
X21616D01*
X21216Y45750D02*
X21316Y45850D01*
X21216Y45450D02*
Y45750D01*
X21716Y45450D02*
Y45750D01*
X21616Y45850D02*
X21716Y45750D01*
X21316Y45850D02*
X21616D01*
X22850Y41675D02*
X22950Y41775D01*
X22550Y41675D02*
X22850D01*
X22550Y42175D02*
X22850D01*
X22950Y42075D01*
Y41775D02*
Y42075D01*
X21850Y41775D02*
X21950Y41675D01*
X22250D01*
X21950Y42175D02*
X22250D01*
X21850Y42075D02*
X21950Y42175D01*
X21850Y41775D02*
Y42075D01*
X22900Y44900D02*
Y45100D01*
Y44900D02*
X23000Y44800D01*
X23200D01*
X23300Y44900D01*
Y45100D01*
X22900Y45300D02*
Y45500D01*
X23000Y45600D01*
X23150D01*
X23200D01*
X23300Y45500D01*
Y45300D02*
Y45500D01*
X26396Y44250D02*
X26596D01*
X26696Y44350D01*
Y44550D01*
X26596Y44650D02*
X26696Y44550D01*
X26396Y44650D02*
X26596D01*
X25996Y44250D02*
X26196D01*
X25896Y44350D02*
X25996Y44250D01*
X25896Y44350D02*
Y44500D01*
Y44550D01*
X25996Y44650D01*
X26196D01*
X25300Y44200D02*
X25500D01*
X25600Y44300D01*
Y44500D01*
X25500Y44600D02*
X25600Y44500D01*
X25300Y44600D02*
X25500D01*
X24900Y44200D02*
X25100D01*
X24800Y44300D02*
X24900Y44200D01*
X24800Y44300D02*
Y44450D01*
Y44500D01*
X24900Y44600D01*
X25100D01*
X25950Y45795D02*
X26050Y45895D01*
X26350D01*
X26050Y45395D02*
X26350D01*
X25950Y45495D02*
X26050Y45395D01*
X25950Y45495D02*
Y45795D01*
X26950Y45895D02*
X27050Y45795D01*
X26650Y45895D02*
X26950D01*
X26650Y45395D02*
X26950D01*
X27050Y45495D01*
Y45795D01*
X24600D02*
X24700Y45895D01*
X25000D01*
X24700Y45395D02*
X25000D01*
X24600Y45495D02*
X24700Y45395D01*
X24600Y45495D02*
Y45795D01*
X25600Y45895D02*
X25700Y45795D01*
X25300Y45895D02*
X25600D01*
X25300Y45395D02*
X25600D01*
X25700Y45495D01*
Y45795D01*
X22350Y44900D02*
Y45100D01*
Y44900D02*
X22450Y44800D01*
X22650D01*
X22750Y44900D01*
Y45100D01*
X22350Y45300D02*
Y45500D01*
X22450Y45600D01*
X22600D01*
X22650D01*
X22750Y45500D01*
Y45300D02*
Y45500D01*
X13600Y32800D02*
X13800D01*
X13500Y32700D02*
X13600Y32800D01*
X13500Y32500D02*
Y32700D01*
Y32500D02*
X13600Y32400D01*
X13800D01*
X14000Y32800D02*
X14200D01*
X14300Y32700D01*
Y32550D02*
Y32700D01*
Y32500D02*
Y32550D01*
X14200Y32400D02*
X14300Y32500D01*
X14000Y32400D02*
X14200D01*
X13500Y38500D02*
Y38700D01*
Y38500D02*
X13600Y38400D01*
X13800D01*
X13900Y38500D01*
Y38700D01*
X13500Y38900D02*
Y39100D01*
X13600Y39200D01*
X13750D01*
X13800D01*
X13900Y39100D01*
Y38900D02*
Y39100D01*
X15550Y33100D02*
X15750D01*
X15850Y33200D01*
Y33400D01*
X15750Y33500D02*
X15850Y33400D01*
X15550Y33500D02*
X15750D01*
X15150Y33100D02*
X15350D01*
X15050Y33200D02*
X15150Y33100D01*
X15050Y33200D02*
Y33350D01*
Y33400D01*
X15150Y33500D01*
X15350D01*
X13650Y34200D02*
X13850D01*
X13550Y34100D02*
X13650Y34200D01*
X13550Y33900D02*
Y34100D01*
Y33900D02*
X13650Y33800D01*
X13850D01*
X14050Y34200D02*
X14250D01*
X14350Y34100D01*
Y33950D02*
Y34100D01*
Y33900D02*
Y33950D01*
X14250Y33800D02*
X14350Y33900D01*
X14050Y33800D02*
X14250D01*
X14700Y28900D02*
X14900D01*
X14600Y28800D02*
X14700Y28900D01*
X14600Y28600D02*
Y28800D01*
Y28600D02*
X14700Y28500D01*
X14900D01*
X15100Y28900D02*
X15300D01*
X15400Y28800D01*
Y28650D02*
Y28800D01*
Y28600D02*
Y28650D01*
X15300Y28500D02*
X15400Y28600D01*
X15100Y28500D02*
X15300D01*
X13600Y28900D02*
X13800D01*
X13500Y28800D02*
X13600Y28900D01*
X13500Y28600D02*
Y28800D01*
Y28600D02*
X13600Y28500D01*
X13800D01*
X14000Y28900D02*
X14200D01*
X14300Y28800D01*
Y28650D02*
Y28800D01*
Y28600D02*
Y28650D01*
X14200Y28500D02*
X14300Y28600D01*
X14000Y28500D02*
X14200D01*
X20765Y29180D02*
X20865Y29280D01*
X21165D01*
X20865Y28780D02*
X21165D01*
X20765Y28880D02*
X20865Y28780D01*
X20765Y28880D02*
Y29180D01*
X21765Y29280D02*
X21865Y29180D01*
X21465Y29280D02*
X21765D01*
X21465Y28780D02*
X21765D01*
X21865Y28880D01*
Y29180D01*
X22100Y29150D02*
X22200Y29250D01*
X22500D01*
X22200Y28750D02*
X22500D01*
X22100Y28850D02*
X22200Y28750D01*
X22100Y28850D02*
Y29150D01*
X23100Y29250D02*
X23200Y29150D01*
X22800Y29250D02*
X23100D01*
X22800Y28750D02*
X23100D01*
X23200Y28850D01*
Y29150D01*
X18650Y29197D02*
X18750Y29297D01*
X19050D01*
X18750Y28797D02*
X19050D01*
X18650Y28897D02*
X18750Y28797D01*
X18650Y28897D02*
Y29197D01*
X19650Y29297D02*
X19750Y29197D01*
X19350Y29297D02*
X19650D01*
X19350Y28797D02*
X19650D01*
X19750Y28897D01*
Y29197D01*
X17184Y29125D02*
X17284Y29225D01*
X17584D01*
X17284Y28725D02*
X17584D01*
X17184Y28825D02*
X17284Y28725D01*
X17184Y28825D02*
Y29125D01*
X18184Y29225D02*
X18284Y29125D01*
X17884Y29225D02*
X18184D01*
X17884Y28725D02*
X18184D01*
X18284Y28825D01*
Y29125D01*
X16650Y46000D02*
X16750Y45900D01*
X16650Y46000D02*
Y46300D01*
X17150Y46000D02*
Y46300D01*
X17050Y45900D02*
X17150Y46000D01*
X16750Y45900D02*
X17050D01*
X16650Y46900D02*
X16750Y47000D01*
X16650Y46600D02*
Y46900D01*
X17150Y46600D02*
Y46900D01*
X17050Y47000D02*
X17150Y46900D01*
X16750Y47000D02*
X17050D01*
X17572Y45693D02*
X17672Y45593D01*
Y45293D02*
Y45593D01*
X17172Y45293D02*
Y45593D01*
X17272Y45693D01*
X17572D01*
Y44593D02*
X17672Y44693D01*
Y44993D01*
X17172Y44693D02*
Y44993D01*
Y44693D02*
X17272Y44593D01*
X17572D01*
X21820Y46320D02*
X21900D01*
X21860Y46270D02*
Y46370D01*
X23320Y46320D02*
X23400D01*
X23360Y46270D02*
Y46370D01*
X27200Y39650D02*
X27400D01*
X27500Y39750D01*
Y39950D01*
X27400Y40050D02*
X27500Y39950D01*
X27200Y40050D02*
X27400D01*
X26800Y39650D02*
X27000D01*
X26700Y39750D02*
X26800Y39650D01*
X26700Y39750D02*
Y39900D01*
Y39950D01*
X26800Y40050D01*
X27000D01*
X27700Y39650D02*
X27900D01*
X27600Y39550D02*
X27700Y39650D01*
X27600Y39350D02*
Y39550D01*
Y39350D02*
X27700Y39250D01*
X27900D01*
X28100Y39650D02*
X28300D01*
X28400Y39550D01*
Y39400D02*
Y39550D01*
Y39350D02*
Y39400D01*
X28300Y39250D02*
X28400Y39350D01*
X28100Y39250D02*
X28300D01*
X18322Y44745D02*
Y44945D01*
Y44745D02*
X18422Y44645D01*
X18472D01*
X18622D01*
X18722Y44745D01*
Y44945D01*
X18322Y45145D02*
Y45345D01*
X18422Y45445D01*
X18622D01*
X18722Y45345D01*
Y45145D02*
Y45345D01*
X24940Y41810D02*
X25140Y42010D01*
Y41810D02*
X24940Y42010D01*
X25040Y41810D02*
Y42010D01*
X25140Y41910D02*
X24940D01*
X15260Y31240D02*
X15060Y31040D01*
Y31240D02*
X15260Y31040D01*
X15160Y31240D02*
Y31040D01*
X15060Y31140D02*
X15260D01*
X15310Y36584D02*
X15110Y36384D01*
Y36584D02*
X15310Y36384D01*
X15210Y36584D02*
Y36384D01*
X15110Y36484D02*
X15310D01*
X25210Y39010D02*
X25410Y38810D01*
X25210D02*
X25410Y39010D01*
X25210Y38910D02*
X25410D01*
X25310Y38810D02*
Y39010D01*
X14300Y27050D02*
X14200D01*
X14250D01*
Y26800D01*
X14200Y26750D01*
X14150D01*
X14100Y26800D01*
X14400Y27000D02*
X14450Y27050D01*
X14550D01*
X14600Y27000D01*
Y26950D01*
X14550Y26900D01*
X14500D01*
X14550D01*
X14600Y26850D01*
Y26800D01*
X14550Y26750D01*
X14450D01*
X14400Y26800D01*
X12600Y48100D02*
X12500D01*
X12550D01*
Y47850D01*
X12500Y47800D01*
X12450D01*
X12400Y47850D01*
X12900Y47800D02*
X12700D01*
X12900Y48000D01*
Y48050D01*
X12850Y48100D01*
X12750D01*
X12700Y48050D01*
X15850Y35794D02*
Y35544D01*
X15900Y35494D01*
X16000D01*
X16050Y35544D01*
Y35794D01*
X16350D02*
X16250Y35744D01*
X16150Y35644D01*
Y35544D01*
X16200Y35494D01*
X16300D01*
X16350Y35544D01*
Y35594D01*
X16300Y35644D01*
X16150D01*
X26946Y43250D02*
Y43000D01*
X26996Y42950D01*
X27096D01*
X27146Y43000D01*
Y43250D01*
X27446D02*
X27246D01*
Y43100D01*
X27346Y43150D01*
X27396D01*
X27446Y43100D01*
Y43000D01*
X27396Y42950D01*
X27296D01*
X27246Y43000D01*
X15700Y30700D02*
Y30450D01*
X15750Y30400D01*
X15850D01*
X15900Y30450D01*
Y30700D01*
X16150Y30400D02*
Y30700D01*
X16000Y30550D01*
X16200D01*
X24360Y39800D02*
Y39550D01*
X24410Y39500D01*
X24510D01*
X24560Y39550D01*
Y39800D01*
X24660Y39750D02*
X24710Y39800D01*
X24810D01*
X24860Y39750D01*
Y39700D01*
X24810Y39650D01*
X24760D01*
X24810D01*
X24860Y39600D01*
Y39550D01*
X24810Y39500D01*
X24710D01*
X24660Y39550D01*
X18458Y39665D02*
Y39415D01*
X18508Y39365D01*
X18608D01*
X18658Y39415D01*
Y39665D01*
X18958Y39365D02*
X18758D01*
X18958Y39565D01*
Y39615D01*
X18908Y39665D01*
X18808D01*
X18758Y39615D01*
X19450Y44995D02*
Y44745D01*
X19500Y44695D01*
X19600D01*
X19650Y44745D01*
Y44995D01*
X19750Y44695D02*
X19850D01*
X19800D01*
Y44995D01*
X19750Y44945D01*
X25320Y36730D02*
Y37030D01*
X25470D01*
X25520Y36980D01*
Y36880D01*
X25470Y36830D01*
X25320D01*
X25420D02*
X25520Y36730D01*
X25620D02*
X25720D01*
X25670D01*
Y37030D01*
X25620Y36980D01*
X25870Y37030D02*
X26070D01*
Y36980D01*
X25870Y36780D01*
Y36730D01*
X25266Y35830D02*
Y36130D01*
X25416D01*
X25466Y36080D01*
Y35980D01*
X25416Y35930D01*
X25266D01*
X25366D02*
X25466Y35830D01*
X25566D02*
X25666D01*
X25616D01*
Y36130D01*
X25566Y36080D01*
X26016Y36130D02*
X25916Y36080D01*
X25816Y35980D01*
Y35880D01*
X25866Y35830D01*
X25966D01*
X26016Y35880D01*
Y35930D01*
X25966Y35980D01*
X25816D01*
X21195Y33650D02*
Y33950D01*
X21345D01*
X21395Y33900D01*
Y33800D01*
X21345Y33750D01*
X21195D01*
X21295D02*
X21395Y33650D01*
X21495D02*
X21595D01*
X21545D01*
Y33950D01*
X21495Y33900D01*
X21945Y33950D02*
X21745D01*
Y33800D01*
X21845Y33850D01*
X21895D01*
X21945Y33800D01*
Y33700D01*
X21895Y33650D01*
X21795D01*
X21745Y33700D01*
X18750Y33150D02*
Y33450D01*
X18900D01*
X18950Y33400D01*
Y33300D01*
X18900Y33250D01*
X18750D01*
X18850D02*
X18950Y33150D01*
X19050D02*
X19150D01*
X19100D01*
Y33450D01*
X19050Y33400D01*
X19450Y33150D02*
Y33450D01*
X19300Y33300D01*
X19500D01*
X16350Y44950D02*
Y45250D01*
X16500D01*
X16550Y45200D01*
Y45100D01*
X16500Y45050D01*
X16350D01*
X16450D02*
X16550Y44950D01*
X16650D02*
X16750D01*
X16700D01*
Y45250D01*
X16650Y45200D01*
X16900D02*
X16950Y45250D01*
X17050D01*
X17100Y45200D01*
Y45150D01*
X17050Y45100D01*
X17000D01*
X17050D01*
X17100Y45050D01*
Y45000D01*
X17050Y44950D01*
X16950D01*
X16900Y45000D01*
X12670Y43880D02*
Y44180D01*
X12820D01*
X12870Y44130D01*
Y44030D01*
X12820Y43980D01*
X12670D01*
X12770D02*
X12870Y43880D01*
X12970D02*
X13070D01*
X13020D01*
Y44180D01*
X12970Y44130D01*
X13420Y43880D02*
X13220D01*
X13420Y44080D01*
Y44130D01*
X13370Y44180D01*
X13270D01*
X13220Y44130D01*
X21266Y40955D02*
Y41255D01*
X21416D01*
X21466Y41205D01*
Y41105D01*
X21416Y41055D01*
X21266D01*
X21366D02*
X21466Y40955D01*
X21566D02*
X21666D01*
X21616D01*
Y41255D01*
X21566Y41205D01*
X21816Y40955D02*
X21916D01*
X21866D01*
Y41255D01*
X21816Y41205D01*
X17970Y33230D02*
Y33530D01*
X18120D01*
X18170Y33480D01*
Y33380D01*
X18120Y33330D01*
X17970D01*
X18070D02*
X18170Y33230D01*
X18270D02*
X18370D01*
X18320D01*
Y33530D01*
X18270Y33480D01*
X18520D02*
X18570Y33530D01*
X18670D01*
X18720Y33480D01*
Y33280D01*
X18670Y33230D01*
X18570D01*
X18520Y33280D01*
Y33480D01*
X17070Y33230D02*
Y33530D01*
X17220D01*
X17270Y33480D01*
Y33380D01*
X17220Y33330D01*
X17070D01*
X17170D02*
X17270Y33230D01*
X17370Y33280D02*
X17420Y33230D01*
X17520D01*
X17570Y33280D01*
Y33480D01*
X17520Y33530D01*
X17420D01*
X17370Y33480D01*
Y33430D01*
X17420Y33380D01*
X17570D01*
X26016Y47140D02*
Y47440D01*
X26166D01*
X26216Y47390D01*
Y47290D01*
X26166Y47240D01*
X26016D01*
X26116D02*
X26216Y47140D01*
X26316Y47390D02*
X26366Y47440D01*
X26466D01*
X26516Y47390D01*
Y47340D01*
X26466Y47290D01*
X26516Y47240D01*
Y47190D01*
X26466Y47140D01*
X26366D01*
X26316Y47190D01*
Y47240D01*
X26366Y47290D01*
X26316Y47340D01*
Y47390D01*
X26366Y47290D02*
X26466D01*
X18670Y28927D02*
Y29227D01*
X18820D01*
X18870Y29177D01*
Y29077D01*
X18820Y29027D01*
X18670D01*
X18770D02*
X18870Y28927D01*
X18970Y29227D02*
X19170D01*
Y29177D01*
X18970Y28977D01*
Y28927D01*
X16260Y47400D02*
X15960D01*
Y47550D01*
X16010Y47600D01*
X16110D01*
X16160Y47550D01*
Y47400D01*
Y47500D02*
X16260Y47600D01*
X15960Y47900D02*
X16010Y47800D01*
X16110Y47700D01*
X16210D01*
X16260Y47750D01*
Y47850D01*
X16210Y47900D01*
X16160D01*
X16110Y47850D01*
Y47700D01*
X20781Y28977D02*
Y29277D01*
X20931D01*
X20981Y29227D01*
Y29127D01*
X20931Y29077D01*
X20781D01*
X20881D02*
X20981Y28977D01*
X21281Y29277D02*
X21081D01*
Y29127D01*
X21181Y29177D01*
X21231D01*
X21281Y29127D01*
Y29027D01*
X21231Y28977D01*
X21131D01*
X21081Y29027D01*
X23900Y46800D02*
Y47100D01*
X24050D01*
X24100Y47050D01*
Y46950D01*
X24050Y46900D01*
X23900D01*
X24000D02*
X24100Y46800D01*
X24350D02*
Y47100D01*
X24200Y46950D01*
X24400D01*
X17220Y28925D02*
Y29225D01*
X17370D01*
X17420Y29175D01*
Y29075D01*
X17370Y29025D01*
X17220D01*
X17320D02*
X17420Y28925D01*
X17520Y29175D02*
X17570Y29225D01*
X17670D01*
X17720Y29175D01*
Y29125D01*
X17670Y29075D01*
X17620D01*
X17670D01*
X17720Y29025D01*
Y28975D01*
X17670Y28925D01*
X17570D01*
X17520Y28975D01*
X13950Y46350D02*
Y46650D01*
X14100D01*
X14150Y46600D01*
Y46500D01*
X14100Y46450D01*
X13950D01*
X14050D02*
X14150Y46350D01*
X14450D02*
X14250D01*
X14450Y46550D01*
Y46600D01*
X14400Y46650D01*
X14300D01*
X14250Y46600D01*
X22143Y28975D02*
Y29275D01*
X22293D01*
X22343Y29225D01*
Y29125D01*
X22293Y29075D01*
X22143D01*
X22243D02*
X22343Y28975D01*
X22443D02*
X22543D01*
X22493D01*
Y29275D01*
X22443Y29225D01*
X29060Y39781D02*
X28960D01*
X29010D01*
Y39531D01*
X28960Y39481D01*
X28910D01*
X28860Y39531D01*
X29160Y39481D02*
X29260D01*
X29210D01*
Y39781D01*
X29160Y39731D01*
X29410Y39781D02*
X29610D01*
Y39731D01*
X29410Y39531D01*
Y39481D01*
X12150Y34550D02*
X12050D01*
X12100D01*
Y34300D01*
X12050Y34250D01*
X12000D01*
X11950Y34300D01*
X12250Y34250D02*
X12350D01*
X12300D01*
Y34550D01*
X12250Y34500D01*
X12700Y34550D02*
X12600Y34500D01*
X12500Y34400D01*
Y34300D01*
X12550Y34250D01*
X12650D01*
X12700Y34300D01*
Y34350D01*
X12650Y34400D01*
X12500D01*
X28150Y38288D02*
X28050D01*
X28100D01*
Y38038D01*
X28050Y37988D01*
X28000D01*
X27950Y38038D01*
X28250Y37988D02*
X28350D01*
X28300D01*
Y38288D01*
X28250Y38238D01*
X28700Y38288D02*
X28500D01*
Y38138D01*
X28600Y38188D01*
X28650D01*
X28700Y38138D01*
Y38038D01*
X28650Y37988D01*
X28550D01*
X28500Y38038D01*
X12100Y31050D02*
X12000D01*
X12050D01*
Y30800D01*
X12000Y30750D01*
X11950D01*
X11900Y30800D01*
X12200Y30750D02*
X12300D01*
X12250D01*
Y31050D01*
X12200Y31000D01*
X12600Y30750D02*
Y31050D01*
X12450Y30900D01*
X12650D01*
X27800Y46950D02*
X27700D01*
X27750D01*
Y46700D01*
X27700Y46650D01*
X27650D01*
X27600Y46700D01*
X27900Y46650D02*
X28000D01*
X27950D01*
Y46950D01*
X27900Y46900D01*
X28150D02*
X28200Y46950D01*
X28300D01*
X28350Y46900D01*
Y46850D01*
X28300Y46800D01*
X28250D01*
X28300D01*
X28350Y46750D01*
Y46700D01*
X28300Y46650D01*
X28200D01*
X28150Y46700D01*
X28142Y33678D02*
X28042D01*
X28092D01*
Y33428D01*
X28042Y33378D01*
X27992D01*
X27942Y33428D01*
X28242Y33378D02*
X28342D01*
X28292D01*
Y33678D01*
X28242Y33628D01*
X28691Y33378D02*
X28492D01*
X28691Y33578D01*
Y33628D01*
X28642Y33678D01*
X28542D01*
X28492Y33628D01*
X12950Y40400D02*
X12850D01*
X12900D01*
Y40150D01*
X12850Y40100D01*
X12800D01*
X12750Y40150D01*
X13050Y40100D02*
X13150D01*
X13100D01*
Y40400D01*
X13050Y40350D01*
X13300Y40100D02*
X13400D01*
X13350D01*
Y40400D01*
X13300Y40350D01*
X27800Y43700D02*
X27700D01*
X27750D01*
Y43450D01*
X27700Y43400D01*
X27650D01*
X27600Y43450D01*
X27900Y43400D02*
X28000D01*
X27950D01*
Y43700D01*
X27900Y43650D01*
X28150D02*
X28200Y43700D01*
X28300D01*
X28350Y43650D01*
Y43450D01*
X28300Y43400D01*
X28200D01*
X28150Y43450D01*
Y43650D01*
X29100Y29100D02*
X29000D01*
X29050D01*
Y28850D01*
X29000Y28800D01*
X28950D01*
X28900Y28850D01*
X29200D02*
X29250Y28800D01*
X29350D01*
X29400Y28850D01*
Y29050D01*
X29350Y29100D01*
X29250D01*
X29200Y29050D01*
Y29000D01*
X29250Y28950D01*
X29400D01*
X18500Y48050D02*
X18400D01*
X18450D01*
Y47800D01*
X18400Y47750D01*
X18350D01*
X18300Y47800D01*
X18600Y48000D02*
X18650Y48050D01*
X18750D01*
X18800Y48000D01*
Y47950D01*
X18750Y47900D01*
X18800Y47850D01*
Y47800D01*
X18750Y47750D01*
X18650D01*
X18600Y47800D01*
Y47850D01*
X18650Y47900D01*
X18600Y47950D01*
Y48000D01*
X18650Y47900D02*
X18750D01*
X12708Y46252D02*
X12608D01*
X12658D01*
Y46002D01*
X12608Y45952D01*
X12558D01*
X12508Y46002D01*
X12808Y46252D02*
X13008D01*
Y46202D01*
X12808Y46002D01*
Y45952D01*
X12650Y41797D02*
X12550D01*
X12600D01*
Y41547D01*
X12550Y41497D01*
X12500D01*
X12450Y41547D01*
X12950Y41797D02*
X12850Y41747D01*
X12750Y41647D01*
Y41547D01*
X12800Y41497D01*
X12900D01*
X12950Y41547D01*
Y41597D01*
X12900Y41647D01*
X12750D01*
X12900Y26100D02*
X12800D01*
X12850D01*
Y25850D01*
X12800Y25800D01*
X12750D01*
X12700Y25850D01*
X13200Y26100D02*
X13000D01*
Y25950D01*
X13100Y26000D01*
X13150D01*
X13200Y25950D01*
Y25850D01*
X13150Y25800D01*
X13050D01*
X13000Y25850D01*
X24450Y48250D02*
X24350D01*
X24400D01*
Y48000D01*
X24350Y47950D01*
X24300D01*
X24250Y48000D01*
X24700Y47950D02*
Y48250D01*
X24550Y48100D01*
X24750D01*
X20625Y28400D02*
X20525D01*
X20575D01*
Y28150D01*
X20525Y28100D01*
X20475D01*
X20425Y28150D01*
X20725Y28100D02*
X20825D01*
X20775D01*
Y28400D01*
X20725Y28350D01*
X22225Y47300D02*
Y47000D01*
X22375D01*
X22425Y47050D01*
Y47250D01*
X22375Y47300D01*
X22225D01*
X22675Y47000D02*
Y47300D01*
X22525Y47150D01*
X22725D01*
X20725Y47300D02*
Y47000D01*
X20875D01*
X20925Y47050D01*
Y47250D01*
X20875Y47300D01*
X20725D01*
X21025Y47250D02*
X21075Y47300D01*
X21175D01*
X21225Y47250D01*
Y47200D01*
X21175Y47150D01*
X21125D01*
X21175D01*
X21225Y47100D01*
Y47050D01*
X21175Y47000D01*
X21075D01*
X21025Y47050D01*
X19820Y41255D02*
Y40955D01*
X19970D01*
X20020Y41005D01*
Y41205D01*
X19970Y41255D01*
X19820D01*
X20320Y40955D02*
X20120D01*
X20320Y41155D01*
Y41205D01*
X20270Y41255D01*
X20170D01*
X20120Y41205D01*
X15190Y41556D02*
Y41256D01*
X15340D01*
X15390Y41306D01*
Y41506D01*
X15340Y41556D01*
X15190D01*
X15490Y41256D02*
X15590D01*
X15540D01*
Y41556D01*
X15490Y41506D01*
X14550Y34450D02*
X14500Y34500D01*
X14400D01*
X14350Y34450D01*
Y34250D01*
X14400Y34200D01*
X14500D01*
X14550Y34250D01*
X14850Y34200D02*
X14650D01*
X14850Y34400D01*
Y34450D01*
X14800Y34500D01*
X14700D01*
X14650Y34450D01*
X14950D02*
X15000Y34500D01*
X15100D01*
X15150Y34450D01*
Y34400D01*
X15100Y34350D01*
X15150Y34300D01*
Y34250D01*
X15100Y34200D01*
X15000D01*
X14950Y34250D01*
Y34300D01*
X15000Y34350D01*
X14950Y34400D01*
Y34450D01*
X15000Y34350D02*
X15100D01*
X14150Y37800D02*
X14200Y37750D01*
X14300D01*
X14350Y37800D01*
Y38000D01*
X14300Y38050D01*
X14200D01*
X14150Y38000D01*
X13850Y38050D02*
X14050D01*
X13850Y37850D01*
Y37800D01*
X13900Y37750D01*
X14000D01*
X14050Y37800D01*
X13750Y37750D02*
X13550D01*
Y37800D01*
X13750Y38000D01*
Y38050D01*
X26050Y45145D02*
X26000Y45195D01*
X25900D01*
X25850Y45145D01*
Y44945D01*
X25900Y44895D01*
X26000D01*
X26050Y44945D01*
X26350Y44895D02*
X26150D01*
X26350Y45095D01*
Y45145D01*
X26300Y45195D01*
X26200D01*
X26150Y45145D01*
X26650Y45195D02*
X26550Y45145D01*
X26450Y45045D01*
Y44945D01*
X26500Y44895D01*
X26600D01*
X26650Y44945D01*
Y44995D01*
X26600Y45045D01*
X26450D01*
X22600Y46000D02*
X22550Y46050D01*
X22450D01*
X22400Y46000D01*
Y45800D01*
X22450Y45750D01*
X22550D01*
X22600Y45800D01*
X22900Y45750D02*
X22700D01*
X22900Y45950D01*
Y46000D01*
X22850Y46050D01*
X22750D01*
X22700Y46000D01*
X23200Y46050D02*
X23000D01*
Y45900D01*
X23100Y45950D01*
X23150D01*
X23200Y45900D01*
Y45800D01*
X23150Y45750D01*
X23050D01*
X23000Y45800D01*
X15350Y33900D02*
X15300Y33950D01*
X15200D01*
X15150Y33900D01*
Y33700D01*
X15200Y33650D01*
X15300D01*
X15350Y33700D01*
X15650Y33650D02*
X15450D01*
X15650Y33850D01*
Y33900D01*
X15600Y33950D01*
X15500D01*
X15450Y33900D01*
X15900Y33650D02*
Y33950D01*
X15750Y33800D01*
X15950D01*
X13750Y28000D02*
X13700Y28050D01*
X13600D01*
X13550Y28000D01*
Y27800D01*
X13600Y27750D01*
X13700D01*
X13750Y27800D01*
X14050Y27750D02*
X13850D01*
X14050Y27950D01*
Y28000D01*
X14000Y28050D01*
X13900D01*
X13850Y28000D01*
X14150D02*
X14200Y28050D01*
X14300D01*
X14350Y28000D01*
Y27950D01*
X14300Y27900D01*
X14250D01*
X14300D01*
X14350Y27850D01*
Y27800D01*
X14300Y27750D01*
X14200D01*
X14150Y27800D01*
X14100Y33150D02*
X14050Y33200D01*
X13950D01*
X13900Y33150D01*
Y32950D01*
X13950Y32900D01*
X14050D01*
X14100Y32950D01*
X14400Y32900D02*
X14200D01*
X14400Y33100D01*
Y33150D01*
X14350Y33200D01*
X14250D01*
X14200Y33150D01*
X14700Y32900D02*
X14500D01*
X14700Y33100D01*
Y33150D01*
X14650Y33200D01*
X14550D01*
X14500Y33150D01*
X25300Y45145D02*
X25250Y45195D01*
X25150D01*
X25100Y45145D01*
Y44945D01*
X25150Y44895D01*
X25250D01*
X25300Y44945D01*
X25600Y44895D02*
X25400D01*
X25600Y45095D01*
Y45145D01*
X25550Y45195D01*
X25450D01*
X25400Y45145D01*
X25700Y44895D02*
X25800D01*
X25750D01*
Y45195D01*
X25700Y45145D01*
X27820Y40180D02*
X27770Y40230D01*
X27670D01*
X27620Y40180D01*
Y39980D01*
X27670Y39930D01*
X27770D01*
X27820Y39980D01*
X28120Y39930D02*
X27920D01*
X28120Y40130D01*
Y40180D01*
X28070Y40230D01*
X27970D01*
X27920Y40180D01*
X28220D02*
X28270Y40230D01*
X28370D01*
X28420Y40180D01*
Y39980D01*
X28370Y39930D01*
X28270D01*
X28220Y39980D01*
Y40180D01*
X23615Y45400D02*
X23565Y45450D01*
X23465D01*
X23415Y45400D01*
Y45200D01*
X23465Y45150D01*
X23565D01*
X23615Y45200D01*
X23715Y45150D02*
X23815D01*
X23765D01*
Y45450D01*
X23715Y45400D01*
X23965Y45200D02*
X24015Y45150D01*
X24115D01*
X24165Y45200D01*
Y45400D01*
X24115Y45450D01*
X24015D01*
X23965Y45400D01*
Y45350D01*
X24015Y45300D01*
X24165D01*
X15750Y28892D02*
X15700Y28942D01*
X15600D01*
X15550Y28892D01*
Y28692D01*
X15600Y28642D01*
X15700D01*
X15750Y28692D01*
X15850Y28642D02*
X15950D01*
X15900D01*
Y28942D01*
X15850Y28892D01*
X16100D02*
X16150Y28942D01*
X16250D01*
X16300Y28892D01*
Y28842D01*
X16250Y28792D01*
X16300Y28742D01*
Y28692D01*
X16250Y28642D01*
X16150D01*
X16100Y28692D01*
Y28742D01*
X16150Y28792D01*
X16100Y28842D01*
Y28892D01*
X16150Y28792D02*
X16250D01*
X26930Y40570D02*
X26880Y40620D01*
X26780D01*
X26730Y40570D01*
Y40370D01*
X26780Y40320D01*
X26880D01*
X26930Y40370D01*
X27030Y40320D02*
X27130D01*
X27080D01*
Y40620D01*
X27030Y40570D01*
X27280Y40620D02*
X27480D01*
Y40570D01*
X27280Y40370D01*
Y40320D01*
X17981Y45850D02*
X17931Y45900D01*
X17831D01*
X17781Y45850D01*
Y45650D01*
X17831Y45600D01*
X17931D01*
X17981Y45650D01*
X18081Y45600D02*
X18181D01*
X18131D01*
Y45900D01*
X18081Y45850D01*
X18530Y45900D02*
X18430Y45850D01*
X18330Y45750D01*
Y45650D01*
X18380Y45600D01*
X18480D01*
X18530Y45650D01*
Y45700D01*
X18480Y45750D01*
X18330D01*
X23450Y42150D02*
X23400Y42200D01*
X23300D01*
X23250Y42150D01*
Y41950D01*
X23300Y41900D01*
X23400D01*
X23450Y41950D01*
X23550Y41900D02*
X23650D01*
X23600D01*
Y42200D01*
X23550Y42150D01*
X24000Y42200D02*
X23800D01*
Y42050D01*
X23900Y42100D01*
X23950D01*
X24000Y42050D01*
Y41950D01*
X23950Y41900D01*
X23850D01*
X23800Y41950D01*
X23350Y43000D02*
X23300Y43050D01*
X23200D01*
X23150Y43000D01*
Y42800D01*
X23200Y42750D01*
X23300D01*
X23350Y42800D01*
X23450Y42750D02*
X23550D01*
X23500D01*
Y43050D01*
X23450Y43000D01*
X23850Y42750D02*
Y43050D01*
X23700Y42900D01*
X23900D01*
X20600Y45550D02*
X20550Y45600D01*
X20450D01*
X20400Y45550D01*
Y45350D01*
X20450Y45300D01*
X20550D01*
X20600Y45350D01*
X20700Y45300D02*
X20800D01*
X20750D01*
Y45600D01*
X20700Y45550D01*
X20950D02*
X21000Y45600D01*
X21100D01*
X21150Y45550D01*
Y45500D01*
X21100Y45450D01*
X21050D01*
X21100D01*
X21150Y45400D01*
Y45350D01*
X21100Y45300D01*
X21000D01*
X20950Y45350D01*
X21600Y46200D02*
X21550Y46250D01*
X21450D01*
X21400Y46200D01*
Y46000D01*
X21450Y45950D01*
X21550D01*
X21600Y46000D01*
X21700Y45950D02*
X21800D01*
X21750D01*
Y46250D01*
X21700Y46200D01*
X22150Y45950D02*
X21950D01*
X22150Y46150D01*
Y46200D01*
X22100Y46250D01*
X22000D01*
X21950Y46200D01*
X22450Y44450D02*
X22400Y44500D01*
X22300D01*
X22250Y44450D01*
Y44250D01*
X22300Y44200D01*
X22400D01*
X22450Y44250D01*
X22550Y44200D02*
X22650D01*
X22600D01*
Y44500D01*
X22550Y44450D01*
X22800Y44200D02*
X22900D01*
X22850D01*
Y44500D01*
X22800Y44450D01*
X19050Y45400D02*
X19000Y45450D01*
X18900D01*
X18850Y45400D01*
Y45200D01*
X18900Y45150D01*
X19000D01*
X19050Y45200D01*
X19150Y45150D02*
X19250D01*
X19200D01*
Y45450D01*
X19150Y45400D01*
X19400D02*
X19450Y45450D01*
X19550D01*
X19600Y45400D01*
Y45200D01*
X19550Y45150D01*
X19450D01*
X19400Y45200D01*
Y45400D01*
X17392Y46223D02*
X17342Y46273D01*
X17242D01*
X17192Y46223D01*
Y46023D01*
X17242Y45973D01*
X17342D01*
X17392Y46023D01*
X17492D02*
X17542Y45973D01*
X17642D01*
X17692Y46023D01*
Y46223D01*
X17642Y46273D01*
X17542D01*
X17492Y46223D01*
Y46173D01*
X17542Y46123D01*
X17692D01*
X25850Y46200D02*
X25800Y46250D01*
X25700D01*
X25650Y46200D01*
Y46000D01*
X25700Y45950D01*
X25800D01*
X25850Y46000D01*
X25950Y46200D02*
X26000Y46250D01*
X26100D01*
X26150Y46200D01*
Y46150D01*
X26100Y46100D01*
X26150Y46050D01*
Y46000D01*
X26100Y45950D01*
X26000D01*
X25950Y46000D01*
Y46050D01*
X26000Y46100D01*
X25950Y46150D01*
Y46200D01*
X26000Y46100D02*
X26100D01*
X24300Y46100D02*
X24250Y46150D01*
X24150D01*
X24100Y46100D01*
Y45900D01*
X24150Y45850D01*
X24250D01*
X24300Y45900D01*
X24400Y46150D02*
X24600D01*
Y46100D01*
X24400Y45900D01*
Y45850D01*
X18880Y29817D02*
X18830Y29867D01*
X18730D01*
X18680Y29817D01*
Y29617D01*
X18730Y29567D01*
X18830D01*
X18880Y29617D01*
X19180Y29867D02*
X19080Y29817D01*
X18980Y29717D01*
Y29617D01*
X19030Y29567D01*
X19130D01*
X19180Y29617D01*
Y29667D01*
X19130Y29717D01*
X18980D01*
X17404Y29748D02*
X17354Y29798D01*
X17254D01*
X17204Y29748D01*
Y29548D01*
X17254Y29498D01*
X17354D01*
X17404Y29548D01*
X17704Y29798D02*
X17504D01*
Y29648D01*
X17604Y29698D01*
X17654D01*
X17704Y29648D01*
Y29548D01*
X17654Y29498D01*
X17554D01*
X17504Y29548D01*
X16880Y47520D02*
X16830Y47570D01*
X16730D01*
X16680Y47520D01*
Y47320D01*
X16730Y47270D01*
X16830D01*
X16880Y47320D01*
X17130Y47270D02*
Y47570D01*
X16980Y47420D01*
X17180D01*
X14850Y45450D02*
X14800Y45500D01*
X14700D01*
X14650Y45450D01*
Y45250D01*
X14700Y45200D01*
X14800D01*
X14850Y45250D01*
X14950Y45450D02*
X15000Y45500D01*
X15100D01*
X15150Y45450D01*
Y45400D01*
X15100Y45350D01*
X15050D01*
X15100D01*
X15150Y45300D01*
Y45250D01*
X15100Y45200D01*
X15000D01*
X14950Y45250D01*
X20986Y29805D02*
X20936Y29855D01*
X20836D01*
X20786Y29805D01*
Y29605D01*
X20836Y29555D01*
X20936D01*
X20986Y29605D01*
X21286Y29555D02*
X21086D01*
X21286Y29755D01*
Y29805D01*
X21236Y29855D01*
X21136D01*
X21086Y29805D01*
X22321Y29775D02*
X22271Y29825D01*
X22171D01*
X22121Y29775D01*
Y29575D01*
X22171Y29525D01*
X22271D01*
X22321Y29575D01*
X22421Y29525D02*
X22521D01*
X22471D01*
Y29825D01*
X22421Y29775D01*
D12*
X18878Y44104D02*
X20280D01*
Y41545D02*
Y44104D01*
X18878Y41545D02*
Y44104D01*
Y41545D02*
X20280D01*
X13226Y48424D02*
X13576Y48774D01*
X13226Y49124D02*
X13576Y48774D01*
X13100Y47450D02*
Y49750D01*
Y47450D02*
X18100D01*
Y49750D01*
X17300Y49550D02*
Y49750D01*
X16900Y49550D02*
X17300D01*
X16900D02*
Y49750D01*
X14300Y49550D02*
Y49750D01*
X13900Y49550D02*
X14300D01*
X13900D02*
Y49750D01*
X13100D02*
X13900D01*
X14300D02*
X16900D01*
X17300D02*
X18100D01*
X19151Y48424D02*
X19501Y48774D01*
X19151Y49124D02*
X19501Y48774D01*
X19025Y47450D02*
Y49750D01*
Y47450D02*
X24025D01*
Y49750D01*
X23225Y49550D02*
Y49750D01*
X22825Y49550D02*
X23225D01*
X22825D02*
Y49750D01*
X20225Y49550D02*
Y49750D01*
X19825Y49550D02*
X20225D01*
X19825D02*
Y49750D01*
X19025D02*
X19825D01*
X20225D02*
X22825D01*
X23225D02*
X24025D01*
X25076Y48424D02*
X25426Y48774D01*
X25076Y49124D02*
X25426Y48774D01*
X24950Y47450D02*
Y49750D01*
Y47450D02*
X29950D01*
Y49750D01*
X29150Y49550D02*
Y49750D01*
X28750Y49550D02*
X29150D01*
X28750D02*
Y49750D01*
X26150Y49550D02*
Y49750D01*
X25750Y49550D02*
X26150D01*
X25750D02*
Y49750D01*
X24950D02*
X25750D01*
X26150D02*
X28750D01*
X29150D02*
X29950D01*
X24750Y41950D02*
X26750D01*
Y42950D01*
X24750D02*
X26750D01*
X24750Y42700D02*
Y42950D01*
Y41950D02*
Y42200D01*
X19424Y26476D02*
X19774Y26826D01*
X19424Y26476D02*
X19774Y26126D01*
X19900Y25500D02*
Y27800D01*
X14900D02*
X19900D01*
X14900Y25500D02*
Y27800D01*
X15700Y25500D02*
Y25700D01*
X16100D01*
Y25500D02*
Y25700D01*
X18700Y25500D02*
Y25700D01*
X19100D01*
Y25500D02*
Y25700D01*
Y25500D02*
X19900D01*
X16100D02*
X18700D01*
X14900D02*
X15700D01*
X13450Y31100D02*
X15450D01*
X13450Y30100D02*
Y31100D01*
Y30100D02*
X15450D01*
Y30350D01*
Y30850D02*
Y31100D01*
X13500Y36444D02*
X15500D01*
X13500Y35444D02*
Y36444D01*
Y35444D02*
X15500D01*
Y35694D01*
Y36194D02*
Y36444D01*
X11074Y38676D02*
X11424Y38326D01*
X10724D02*
X11074Y38676D01*
X10150Y41200D02*
X12450D01*
Y38200D02*
Y41200D01*
X10150Y38200D02*
X12450D01*
X10150Y39000D02*
X10350D01*
Y39400D01*
X10150D02*
X10350D01*
X10150Y40000D02*
X10350D01*
Y40400D01*
X10150D02*
X10350D01*
X10150D02*
Y41200D01*
Y39400D02*
Y40000D01*
Y38200D02*
Y39000D01*
X24949Y26476D02*
X25299Y26826D01*
X24949Y26476D02*
X25299Y26126D01*
X25425Y25500D02*
Y27800D01*
X20425D02*
X25425D01*
X20425Y25500D02*
Y27800D01*
X21225Y25500D02*
Y25700D01*
X21625D01*
Y25500D02*
Y25700D01*
X24225Y25500D02*
Y25700D01*
X24625D01*
Y25500D02*
Y25700D01*
Y25500D02*
X25425D01*
X21625D02*
X24225D01*
X20425D02*
X21225D01*
X28900Y27500D02*
X29900D01*
X28900Y28500D02*
X29900D01*
Y25500D02*
Y28500D01*
X28900Y25500D02*
X29900D01*
X28900D02*
Y28500D01*
X21690Y46300D02*
X21781Y46391D01*
X20711Y46290D02*
Y46710D01*
Y46290D02*
X21681D01*
Y46300D02*
Y46710D01*
X20711D02*
X21681D01*
X21781Y46619D01*
Y46391D02*
Y46619D01*
X23190Y46300D02*
X23281Y46391D01*
X22211Y46290D02*
Y46710D01*
Y46290D02*
X23181D01*
Y46300D02*
Y46710D01*
X22211D02*
X23181D01*
X23281Y46619D01*
Y46391D02*
Y46619D01*
X25350Y37200D02*
Y39200D01*
Y37200D02*
X26350D01*
Y39200D01*
X26100D02*
X26350D01*
X25350D02*
X25600D01*
X28863Y39181D02*
X29945D01*
X28863Y38181D02*
X29945D01*
Y39181D01*
X28863Y38181D02*
Y39181D01*
D13*
X14850Y45850D02*
Y46250D01*
X15350Y45850D02*
Y46250D01*
Y46550D02*
Y46950D01*
X14850Y46550D02*
Y46950D01*
Y45850D02*
X15350D01*
X14850Y46950D02*
X15350D01*
X15850Y45850D02*
Y46250D01*
X16350Y45850D02*
Y46250D01*
Y46550D02*
Y46950D01*
X15850Y46550D02*
Y46950D01*
Y45850D02*
X16350D01*
X15850Y46950D02*
X16350D01*
X24600D02*
X25000D01*
X24600Y46450D02*
X25000D01*
X25300D02*
X25700D01*
X25300Y46950D02*
X25700D01*
X24600Y46450D02*
Y46950D01*
X25700Y46450D02*
Y46950D01*
X17050Y31850D02*
Y32250D01*
X17550Y31850D02*
Y32250D01*
Y32550D02*
Y32950D01*
X17050Y32550D02*
Y32950D01*
Y31850D02*
X17550D01*
X17050Y32950D02*
X17550D01*
X22127Y28695D02*
X22527D01*
X22127Y28195D02*
X22527D01*
X22827D02*
X23227D01*
X22827Y28695D02*
X23227D01*
X22127Y28195D02*
Y28695D01*
X23227Y28195D02*
Y28695D01*
X17200Y28647D02*
X17600D01*
X17200Y28147D02*
X17600D01*
X17900D02*
X18300D01*
X17900Y28647D02*
X18300D01*
X17200Y28147D02*
Y28647D01*
X18300Y28147D02*
Y28647D01*
X20765Y28697D02*
X21165D01*
X20765Y28197D02*
X21165D01*
X21465D02*
X21865D01*
X21465Y28697D02*
X21865D01*
X20765Y28197D02*
Y28697D01*
X21865Y28197D02*
Y28697D01*
X18650Y28647D02*
X19050D01*
X18650Y28147D02*
X19050D01*
X19350D02*
X19750D01*
X19350Y28647D02*
X19750D01*
X18650Y28147D02*
Y28647D01*
X19750Y28147D02*
Y28647D01*
X26000Y46860D02*
X26400D01*
X26000Y46360D02*
X26400D01*
X26700D02*
X27100D01*
X26700Y46860D02*
X27100D01*
X26000Y46360D02*
Y46860D01*
X27100Y46360D02*
Y46860D01*
X17950Y31850D02*
Y32250D01*
X18450Y31850D02*
Y32250D01*
Y32550D02*
Y32950D01*
X17950Y32550D02*
Y32950D01*
Y31850D02*
X18450D01*
X17950Y32950D02*
X18450D01*
X19800Y40175D02*
Y40675D01*
Y40175D02*
X20300D01*
X19900D02*
Y40675D01*
X20550D02*
X20950D01*
X20550Y40175D02*
X20950D01*
X19800Y40675D02*
X20300D01*
X20950Y40175D02*
Y40675D01*
X21250D02*
X21650D01*
X21250Y40175D02*
X21650D01*
X21950D02*
X22350D01*
X21950Y40675D02*
X22350D01*
X21250Y40175D02*
Y40675D01*
X22350Y40175D02*
Y40675D01*
X13350Y43100D02*
X13750D01*
X13350Y43600D02*
X13750D01*
X12650D02*
X13050D01*
X12650Y43100D02*
X13050D01*
X13750D02*
Y43600D01*
X12650Y43100D02*
Y43600D01*
X25946Y35050D02*
X26346D01*
X25946Y35550D02*
X26346D01*
X25246D02*
X25646D01*
X25246Y35050D02*
X25646D01*
X26346D02*
Y35550D01*
X25246Y35050D02*
Y35550D01*
X26000Y35950D02*
X26400D01*
X26000Y36450D02*
X26400D01*
X25300D02*
X25700D01*
X25300Y35950D02*
X25700D01*
X26400D02*
Y36450D01*
X25300Y35950D02*
Y36450D01*
X15550Y45050D02*
X16050D01*
X15550Y43950D02*
X16050D01*
X15550Y44650D02*
Y45050D01*
X16050Y44650D02*
Y45050D01*
Y43950D02*
Y44350D01*
X15550Y43950D02*
Y44350D01*
X20550Y33550D02*
X21050D01*
X20550Y32450D02*
X21050D01*
X20550Y33150D02*
Y33550D01*
X21050Y33150D02*
Y33550D01*
Y32450D02*
Y32850D01*
X20550Y32450D02*
Y32850D01*
X19850Y33550D02*
X20350D01*
X19850Y32450D02*
X20350D01*
X19850Y33150D02*
Y33550D01*
X20350Y33150D02*
Y33550D01*
Y32450D02*
Y32850D01*
X19850Y32450D02*
Y32850D01*
D14*
X30025Y44316D02*
Y46441D01*
X28525Y43966D02*
X28625D01*
X28525D02*
Y44651D01*
Y46226D02*
Y46766D01*
X28625D01*
X30050Y40663D02*
Y42787D01*
X28550Y40313D02*
X28650D01*
X28550D02*
Y40998D01*
Y42572D02*
Y43113D01*
X28650D01*
X10083Y34893D02*
Y37018D01*
X11483Y37368D02*
X11583D01*
Y36683D02*
Y37368D01*
Y34568D02*
Y35108D01*
X11483Y34568D02*
X11583D01*
X11073Y25566D02*
X12279D01*
Y26930D01*
X10150Y27313D02*
Y28416D01*
X10907Y30258D02*
X12271D01*
Y28552D02*
Y30258D01*
X10083Y31409D02*
Y33534D01*
X11483Y33884D02*
X11583D01*
Y33199D02*
Y33884D01*
Y31084D02*
Y31624D01*
X11483Y31084D02*
X11583D01*
X11073Y46158D02*
X12200D01*
Y47458D01*
X10150D02*
Y48560D01*
X10900Y49858D02*
X12200D01*
Y48545D02*
Y49858D01*
X11115Y41802D02*
X12242D01*
Y43102D01*
X10192D02*
Y44205D01*
X10942Y45502D02*
X12242D01*
Y44190D02*
Y45502D01*
X19314Y36284D02*
X19919Y35680D01*
X19314Y36284D02*
Y38211D01*
X21846D01*
Y35680D02*
Y38211D01*
X19919Y35680D02*
X21846D01*
X27950Y33092D02*
X29077D01*
X27950Y31792D02*
Y33092D01*
X30000Y30690D02*
Y31792D01*
X27950Y29392D02*
X29250D01*
X27950D02*
Y30705D01*
Y37700D02*
X29077D01*
X27950Y36400D02*
Y37700D01*
X30000Y35298D02*
Y36400D01*
X27950Y34000D02*
X29250D01*
X27950D02*
Y35313D01*
D15*
X16400Y38096D02*
Y38846D01*
X15200Y38096D02*
X16400D01*
X15200D02*
Y38846D01*
Y40196D02*
Y40695D01*
X15451Y40946D01*
X16149D01*
X16400Y40696D01*
Y40196D02*
Y40696D01*
X15801Y38966D02*
Y40036D01*
X15271Y39756D02*
X16331D01*
X15301Y39246D02*
X15811Y39756D01*
X15801D02*
X15811D01*
X15801D02*
X16311Y39246D01*
X15301D02*
X16311D01*
X15461D02*
X15815Y39599D01*
X16151Y39263D01*
D16*
X13100Y48750D02*
D03*
X19025D02*
D03*
X24950D02*
D03*
X19900Y26500D02*
D03*
X25425D02*
D03*
D17*
X11050Y38200D02*
D03*
M02*
