G04*
G04 #@! TF.GenerationSoftware,Altium Limited,Altium Designer,18.1.9 (240)*
G04*
G04 Layer_Physical_Order=1*
G04 Layer_Color=255*
%FSLAX24Y24*%
%MOIN*%
G70*
G01*
G75*
%ADD10C,0.0100*%
%ADD12C,0.0080*%
%ADD18R,0.0200X0.0200*%
%ADD19R,0.0300X0.0300*%
%ADD20R,0.0433X0.0551*%
%ADD21R,0.0300X0.0300*%
%ADD22R,0.0984X0.0472*%
%ADD23R,0.0787X0.1378*%
%ADD24R,0.1772X0.0394*%
%ADD25R,0.1181X0.0630*%
%ADD26R,0.0200X0.0200*%
%ADD27O,0.0240X0.0800*%
%ADD28R,0.0630X0.0276*%
%ADD29R,0.1181X0.0827*%
%ADD30R,0.0800X0.0600*%
%ADD31R,0.0520X0.0079*%
%ADD32R,0.0079X0.0520*%
%ADD33O,0.0079X0.0520*%
%ADD34O,0.0800X0.0240*%
%ADD61C,0.0150*%
%ADD62C,0.0118*%
%ADD63C,0.0080*%
%ADD64C,0.0200*%
%ADD65C,0.1181*%
%ADD66O,0.0600X0.0800*%
%ADD67R,0.0600X0.0800*%
%ADD68O,0.0800X0.0600*%
%ADD69R,0.0800X0.0600*%
%ADD70C,0.0500*%
%ADD71R,0.0500X0.0500*%
%ADD72R,0.0315X0.0315*%
%ADD73C,0.0315*%
%ADD74C,0.0197*%
%ADD75C,0.0240*%
G36*
X30007Y47081D02*
X29998Y47035D01*
X29957Y47035D01*
X29358D01*
Y46620D01*
Y46205D01*
X29957D01*
X29998Y46205D01*
X30007Y46158D01*
Y44561D01*
X29998Y44515D01*
X29957Y44515D01*
X29358D01*
Y44100D01*
Y43685D01*
X29957D01*
X29998Y43685D01*
X30007Y43639D01*
Y43381D01*
X29383D01*
Y42966D01*
Y42551D01*
X30007D01*
Y40861D01*
X29383D01*
Y40446D01*
Y40031D01*
X30007D01*
Y37716D01*
X28701D01*
Y36689D01*
X30007D01*
Y35019D01*
X28701D01*
Y33992D01*
X30007D01*
Y33108D01*
X28701D01*
Y32081D01*
X30007D01*
Y30411D01*
X28701D01*
Y29384D01*
X30007D01*
Y25493D01*
X13691D01*
X13679Y25543D01*
X13736Y25573D01*
X13841Y25659D01*
X13927Y25764D01*
X13991Y25884D01*
X14031Y26015D01*
X14044Y26150D01*
X14031Y26285D01*
X13991Y26416D01*
X13927Y26536D01*
X13841Y26641D01*
X13736Y26727D01*
X13616Y26791D01*
X13485Y26831D01*
X13350Y26844D01*
X13215Y26831D01*
X13084Y26791D01*
X12964Y26727D01*
X12859Y26641D01*
X12773Y26536D01*
X12709Y26416D01*
X12669Y26285D01*
X12656Y26150D01*
X12669Y26015D01*
X12709Y25884D01*
X12773Y25764D01*
X12859Y25659D01*
X12964Y25573D01*
X13021Y25543D01*
X13009Y25493D01*
X10093D01*
Y25550D01*
X11449D01*
Y26577D01*
X10093D01*
Y29231D01*
X11449D01*
Y30258D01*
X10093D01*
Y30772D01*
X10109Y30815D01*
X10143Y30815D01*
X10750D01*
Y31230D01*
Y31645D01*
X10143D01*
X10109Y31645D01*
X10093Y31688D01*
Y33292D01*
X10109Y33335D01*
X10143Y33335D01*
X10750D01*
Y33750D01*
Y34165D01*
X10143D01*
X10109Y34165D01*
X10093Y34208D01*
Y34256D01*
X10109Y34299D01*
X10143Y34299D01*
X10750D01*
Y34714D01*
Y35129D01*
X10143D01*
X10109Y35129D01*
X10093Y35172D01*
Y36776D01*
X10109Y36819D01*
X10143Y36819D01*
X10750D01*
Y37234D01*
Y37649D01*
X10143D01*
X10109Y37649D01*
X10093Y37692D01*
Y41744D01*
X10109Y41787D01*
X10143Y41787D01*
X11491D01*
Y42813D01*
X10143D01*
X10109Y42813D01*
X10093Y42856D01*
Y44440D01*
X10109Y44483D01*
X10143Y44483D01*
X11491D01*
Y45510D01*
X10143D01*
X10109Y45510D01*
X10093Y45553D01*
Y46142D01*
X11449D01*
Y47169D01*
X10093D01*
Y48839D01*
X11449D01*
Y49857D01*
X30007D01*
Y47081D01*
D02*
G37*
%LPC*%
G36*
X29000Y49347D02*
Y48900D01*
X29353D01*
Y48950D01*
X29340Y49054D01*
X29299Y49152D01*
X29235Y49235D01*
X29152Y49299D01*
X29054Y49340D01*
X29000Y49347D01*
D02*
G37*
G36*
X17150D02*
Y48900D01*
X17503D01*
Y48950D01*
X17490Y49054D01*
X17449Y49152D01*
X17385Y49235D01*
X17302Y49299D01*
X17204Y49340D01*
X17150Y49347D01*
D02*
G37*
G36*
X28900D02*
X28846Y49340D01*
X28748Y49299D01*
X28665Y49235D01*
X28601Y49152D01*
X28560Y49054D01*
X28547Y48950D01*
Y48900D01*
X28900D01*
Y49347D01*
D02*
G37*
G36*
X17050D02*
X16996Y49340D01*
X16898Y49299D01*
X16815Y49235D01*
X16751Y49152D01*
X16710Y49054D01*
X16697Y48950D01*
Y48900D01*
X17050D01*
Y49347D01*
D02*
G37*
G36*
X29353Y48800D02*
X29000D01*
Y48353D01*
X29054Y48360D01*
X29152Y48401D01*
X29235Y48465D01*
X29299Y48548D01*
X29340Y48646D01*
X29353Y48750D01*
Y48800D01*
D02*
G37*
G36*
X23428D02*
X23075D01*
Y48353D01*
X23129Y48360D01*
X23227Y48401D01*
X23310Y48465D01*
X23374Y48548D01*
X23415Y48646D01*
X23428Y48750D01*
Y48800D01*
D02*
G37*
G36*
X17503D02*
X17150D01*
Y48353D01*
X17204Y48360D01*
X17302Y48401D01*
X17385Y48465D01*
X17449Y48548D01*
X17490Y48646D01*
X17503Y48750D01*
Y48800D01*
D02*
G37*
G36*
X28900D02*
X28547D01*
Y48750D01*
X28560Y48646D01*
X28601Y48548D01*
X28665Y48465D01*
X28748Y48401D01*
X28846Y48360D01*
X28900Y48353D01*
Y48800D01*
D02*
G37*
G36*
X22975D02*
X22622D01*
Y48750D01*
X22635Y48646D01*
X22676Y48548D01*
X22740Y48465D01*
X22823Y48401D01*
X22921Y48360D01*
X22975Y48353D01*
Y48800D01*
D02*
G37*
G36*
X17050D02*
X16697D01*
Y48750D01*
X16710Y48646D01*
X16751Y48548D01*
X16815Y48465D01*
X16898Y48401D01*
X16996Y48360D01*
X17050Y48353D01*
Y48800D01*
D02*
G37*
G36*
X25350Y49628D02*
X20625D01*
X20557Y49615D01*
X20499Y49576D01*
X20273Y49350D01*
X19625D01*
Y48350D01*
X19847D01*
Y44355D01*
X19860Y44287D01*
X19899Y44229D01*
X20027Y44101D01*
X20058Y44067D01*
X20058D01*
X20058Y44067D01*
Y43394D01*
X21242D01*
Y43552D01*
X21738D01*
Y43349D01*
X22595D01*
Y43725D01*
Y44101D01*
X22233D01*
Y44750D01*
X22305D01*
Y44789D01*
X22350Y44800D01*
Y44800D01*
X22750D01*
Y44822D01*
X22900D01*
Y44800D01*
X22959D01*
X22982Y44785D01*
X23050Y44772D01*
X23072Y44776D01*
X23272Y44576D01*
Y41524D01*
X22815Y41067D01*
X22764Y41057D01*
X22691Y41009D01*
X22643Y40936D01*
X22626Y40850D01*
X22643Y40764D01*
X22691Y40691D01*
X22764Y40643D01*
X22850Y40626D01*
X22936Y40643D01*
X23009Y40691D01*
X23057Y40764D01*
X23067Y40815D01*
X23576Y41324D01*
X23615Y41382D01*
X23628Y41450D01*
Y44650D01*
X23628Y44650D01*
X23615Y44718D01*
X23576Y44776D01*
X23576Y44776D01*
X23300Y45052D01*
Y45350D01*
X23100D01*
X22900D01*
Y45178D01*
X22750D01*
Y45350D01*
X22550D01*
Y45400D01*
X22500D01*
Y45600D01*
X22355D01*
X22350Y45600D01*
X22305Y45611D01*
Y45850D01*
X22105D01*
Y45600D01*
Y45350D01*
X22300D01*
X22305Y45350D01*
X22350Y45339D01*
Y45261D01*
X22305Y45250D01*
Y45250D01*
X21805D01*
Y45178D01*
X21716D01*
Y45250D01*
X21216D01*
Y44750D01*
X21716D01*
Y44822D01*
X21805D01*
Y44750D01*
X21876D01*
Y44101D01*
X21738D01*
Y43909D01*
X21242D01*
Y44067D01*
X20566D01*
X20203Y44429D01*
Y48350D01*
X20425D01*
Y48998D01*
X20668Y49241D01*
X20679Y49239D01*
X20700Y49183D01*
X20676Y49152D01*
X20635Y49054D01*
X20622Y48950D01*
Y48750D01*
X20635Y48646D01*
X20676Y48548D01*
X20740Y48465D01*
X20823Y48401D01*
X20882Y48376D01*
Y46750D01*
X20675D01*
Y46250D01*
X21175D01*
Y46750D01*
X21168D01*
Y48376D01*
X21227Y48401D01*
X21310Y48465D01*
X21374Y48548D01*
X21415Y48646D01*
X21428Y48750D01*
Y48950D01*
X21415Y49054D01*
X21374Y49152D01*
X21321Y49222D01*
X21340Y49272D01*
X21710D01*
X21729Y49222D01*
X21676Y49152D01*
X21635Y49054D01*
X21622Y48950D01*
Y48750D01*
X21635Y48646D01*
X21676Y48548D01*
X21740Y48465D01*
X21823Y48401D01*
X21882Y48376D01*
Y46900D01*
X21882Y46900D01*
X21893Y46845D01*
X21924Y46799D01*
X22175Y46548D01*
Y46250D01*
X22675D01*
Y46750D01*
X22377D01*
X22168Y46959D01*
Y48376D01*
X22227Y48401D01*
X22310Y48465D01*
X22374Y48548D01*
X22415Y48646D01*
X22428Y48750D01*
Y48950D01*
X22415Y49054D01*
X22374Y49152D01*
X22321Y49222D01*
X22340Y49272D01*
X22710D01*
X22729Y49222D01*
X22676Y49152D01*
X22635Y49054D01*
X22622Y48950D01*
Y48900D01*
X23025D01*
X23428D01*
Y48950D01*
X23415Y49054D01*
X23374Y49152D01*
X23321Y49222D01*
X23340Y49272D01*
X25276D01*
X25550Y48998D01*
Y48350D01*
X26350D01*
Y49350D01*
X25702D01*
X25476Y49576D01*
X25418Y49615D01*
X25350Y49628D01*
D02*
G37*
G36*
X14500Y49350D02*
X13700D01*
Y48350D01*
X14500D01*
Y49350D01*
D02*
G37*
G36*
X12315Y48488D02*
X11950D01*
Y48300D01*
X12315D01*
Y48488D01*
D02*
G37*
G36*
X11850D02*
X11485D01*
Y48300D01*
X11850D01*
Y48488D01*
D02*
G37*
G36*
X17150Y47000D02*
X16950D01*
Y46800D01*
X17150D01*
Y47000D01*
D02*
G37*
G36*
X16850D02*
X16650D01*
Y46800D01*
X16850D01*
Y47000D01*
D02*
G37*
G36*
X12315Y48200D02*
X11900D01*
X11485D01*
Y48046D01*
X11485Y48012D01*
X11485Y47962D01*
Y47520D01*
X12228D01*
X12779Y46969D01*
X12776Y46950D01*
X12793Y46864D01*
X12841Y46791D01*
X12914Y46743D01*
X13000Y46726D01*
X13086Y46743D01*
X13159Y46791D01*
X13207Y46864D01*
X13224Y46950D01*
X13207Y47036D01*
X13159Y47109D01*
X13086Y47157D01*
X13000Y47174D01*
X12981Y47171D01*
X12315Y47837D01*
X12315Y47996D01*
X12315Y48046D01*
Y48200D01*
D02*
G37*
G36*
X29258Y47035D02*
X28617D01*
Y46670D01*
X29258D01*
Y47035D01*
D02*
G37*
G36*
X23225Y46750D02*
X23025D01*
Y46550D01*
X23225D01*
Y46750D01*
D02*
G37*
G36*
X21725D02*
X21525D01*
Y46550D01*
X21725D01*
Y46750D01*
D02*
G37*
G36*
X22925D02*
X22725D01*
Y46550D01*
X22925D01*
Y46750D01*
D02*
G37*
G36*
X21425D02*
X21225D01*
Y46550D01*
X21425D01*
Y46750D01*
D02*
G37*
G36*
X17150Y46700D02*
X16950D01*
Y46500D01*
X17150D01*
Y46700D01*
D02*
G37*
G36*
X16850D02*
X16650D01*
Y46500D01*
X16850D01*
Y46700D01*
D02*
G37*
G36*
X26950Y49353D02*
X26846Y49340D01*
X26748Y49299D01*
X26665Y49235D01*
X26601Y49152D01*
X26560Y49054D01*
X26547Y48950D01*
Y48750D01*
X26560Y48646D01*
X26601Y48548D01*
X26665Y48465D01*
X26748Y48401D01*
X26807Y48376D01*
Y48259D01*
X25498Y46950D01*
X25200D01*
Y46450D01*
X25700D01*
Y46748D01*
X27051Y48099D01*
X27051Y48099D01*
X27082Y48145D01*
X27093Y48200D01*
Y48376D01*
X27152Y48401D01*
X27235Y48465D01*
X27299Y48548D01*
X27340Y48646D01*
X27353Y48750D01*
Y48950D01*
X27340Y49054D01*
X27299Y49152D01*
X27235Y49235D01*
X27152Y49299D01*
X27054Y49340D01*
X26950Y49353D01*
D02*
G37*
G36*
X16100D02*
X15996Y49340D01*
X15898Y49299D01*
X15815Y49235D01*
X15751Y49152D01*
X15710Y49054D01*
X15697Y48950D01*
Y48750D01*
X15710Y48646D01*
X15751Y48548D01*
X15815Y48465D01*
X15898Y48401D01*
X15957Y48376D01*
Y46950D01*
X15850D01*
Y46450D01*
X16350D01*
Y46950D01*
X16243D01*
Y48376D01*
X16302Y48401D01*
X16385Y48465D01*
X16449Y48548D01*
X16490Y48646D01*
X16503Y48750D01*
Y48950D01*
X16490Y49054D01*
X16449Y49152D01*
X16385Y49235D01*
X16302Y49299D01*
X16204Y49340D01*
X16100Y49353D01*
D02*
G37*
G36*
X15100D02*
X14996Y49340D01*
X14898Y49299D01*
X14815Y49235D01*
X14751Y49152D01*
X14710Y49054D01*
X14697Y48950D01*
Y48750D01*
X14710Y48646D01*
X14751Y48548D01*
X14815Y48465D01*
X14898Y48401D01*
X14947Y48380D01*
Y46950D01*
X14850D01*
Y46450D01*
X15350D01*
Y46950D01*
X15253D01*
Y48380D01*
X15302Y48401D01*
X15385Y48465D01*
X15449Y48548D01*
X15490Y48646D01*
X15503Y48750D01*
Y48950D01*
X15490Y49054D01*
X15449Y49152D01*
X15385Y49235D01*
X15302Y49299D01*
X15204Y49340D01*
X15100Y49353D01*
D02*
G37*
G36*
X27950D02*
X27846Y49340D01*
X27748Y49299D01*
X27665Y49235D01*
X27601Y49152D01*
X27560Y49054D01*
X27547Y48950D01*
Y48750D01*
X27560Y48646D01*
X27601Y48548D01*
X27665Y48465D01*
X27748Y48401D01*
X27807Y48376D01*
Y47769D01*
X26898Y46860D01*
X26600D01*
Y46360D01*
X27100D01*
Y46658D01*
X28051Y47609D01*
X28051Y47609D01*
X28082Y47655D01*
X28093Y47710D01*
X28093Y47710D01*
Y48376D01*
X28152Y48401D01*
X28235Y48465D01*
X28299Y48548D01*
X28340Y48646D01*
X28353Y48750D01*
Y48950D01*
X28340Y49054D01*
X28299Y49152D01*
X28235Y49235D01*
X28152Y49299D01*
X28054Y49340D01*
X27950Y49353D01*
D02*
G37*
G36*
X17150Y46400D02*
X16650D01*
Y46253D01*
X16350D01*
Y46350D01*
X15850D01*
Y45904D01*
X15811Y45872D01*
X15800Y45874D01*
X15714Y45857D01*
X15641Y45809D01*
X15593Y45736D01*
X15576Y45650D01*
X15593Y45564D01*
X15641Y45491D01*
X15647Y45488D01*
Y45050D01*
X15550D01*
Y44550D01*
X16050D01*
Y45050D01*
X15953D01*
Y45231D01*
X15997Y45254D01*
X16014Y45243D01*
X16100Y45226D01*
X16186Y45243D01*
X16259Y45291D01*
X16307Y45364D01*
X16324Y45450D01*
X16307Y45536D01*
X16259Y45609D01*
X16253Y45612D01*
Y45850D01*
X16350D01*
Y45947D01*
X16650D01*
Y45900D01*
X17150D01*
Y46400D01*
D02*
G37*
G36*
X23225Y46450D02*
X23025D01*
Y46250D01*
X23225D01*
Y46450D01*
D02*
G37*
G36*
X22925D02*
X22725D01*
Y46250D01*
X22925D01*
Y46450D01*
D02*
G37*
G36*
X21725D02*
X21525D01*
Y46250D01*
X21725D01*
Y46450D01*
D02*
G37*
G36*
X21425D02*
X21225D01*
Y46250D01*
X21425D01*
Y46450D01*
D02*
G37*
G36*
X29258Y46570D02*
X28617D01*
Y46205D01*
X29258D01*
Y46570D01*
D02*
G37*
G36*
X27050Y45895D02*
X26850D01*
Y45695D01*
X27050D01*
Y45895D01*
D02*
G37*
G36*
X26750D02*
X26550D01*
Y45695D01*
X26750D01*
Y45895D01*
D02*
G37*
G36*
X25700D02*
X25500D01*
Y45695D01*
X25700D01*
Y45895D01*
D02*
G37*
G36*
X25400D02*
X25200D01*
Y45695D01*
X25400D01*
Y45895D01*
D02*
G37*
G36*
X21716Y45850D02*
X21516D01*
Y45650D01*
X21716D01*
Y45850D01*
D02*
G37*
G36*
X21416D02*
X21216D01*
Y45650D01*
X21416D01*
Y45850D01*
D02*
G37*
G36*
X22005D02*
X21805D01*
Y45650D01*
X22005D01*
Y45850D01*
D02*
G37*
G36*
X15350Y46350D02*
X14850D01*
Y45850D01*
X14947D01*
Y45503D01*
X14462D01*
X14459Y45509D01*
X14386Y45557D01*
X14300Y45574D01*
X14214Y45557D01*
X14141Y45509D01*
X14093Y45436D01*
X14076Y45350D01*
X14093Y45264D01*
X14141Y45191D01*
X14214Y45143D01*
X14300Y45126D01*
X14386Y45143D01*
X14459Y45191D01*
X14462Y45197D01*
X14947D01*
Y45050D01*
X14766D01*
Y44550D01*
X15266D01*
Y45050D01*
X15253D01*
Y45350D01*
Y45850D01*
X15350D01*
Y46350D01*
D02*
G37*
G36*
X17672Y45693D02*
X17472D01*
Y45493D01*
X17672D01*
Y45693D01*
D02*
G37*
G36*
X17372D02*
X17172D01*
Y45493D01*
X17372D01*
Y45693D01*
D02*
G37*
G36*
X23300Y45600D02*
X23150D01*
Y45450D01*
X23300D01*
Y45600D01*
D02*
G37*
G36*
X22600D02*
Y45450D01*
X22750D01*
Y45600D01*
X22600D01*
D02*
G37*
G36*
X23050D02*
X22900D01*
Y45450D01*
X23050D01*
Y45600D01*
D02*
G37*
G36*
X26750Y45595D02*
X26550D01*
Y45395D01*
X26750D01*
Y45595D01*
D02*
G37*
G36*
X25400D02*
X25200D01*
Y45395D01*
X25400D01*
Y45595D01*
D02*
G37*
G36*
X21716Y45550D02*
X21516D01*
Y45350D01*
X21716D01*
Y45550D01*
D02*
G37*
G36*
X21416D02*
X21216D01*
Y45350D01*
X21416D01*
Y45550D01*
D02*
G37*
G36*
X22005D02*
X21805D01*
Y45350D01*
X22005D01*
Y45550D01*
D02*
G37*
G36*
X18172Y45445D02*
X18022D01*
Y45295D01*
X18172D01*
Y45445D01*
D02*
G37*
G36*
X18722D02*
X18572D01*
Y45295D01*
X18722D01*
Y45445D01*
D02*
G37*
G36*
X18472D02*
X18322D01*
Y45295D01*
X18472D01*
Y45445D01*
D02*
G37*
G36*
X17922D02*
X17772D01*
Y45295D01*
X17922D01*
Y45445D01*
D02*
G37*
G36*
X17672Y45393D02*
X17472D01*
Y45193D01*
X17672D01*
Y45393D01*
D02*
G37*
G36*
X17372D02*
X17172D01*
Y45193D01*
X17372D01*
Y45393D01*
D02*
G37*
G36*
X18172Y45195D02*
X17972D01*
X17772D01*
Y45005D01*
X17672D01*
Y45093D01*
X17172D01*
Y44593D01*
X17672D01*
Y44681D01*
X17772D01*
Y44645D01*
X18172D01*
Y44681D01*
X18306D01*
Y43614D01*
X17991D01*
Y42659D01*
X17605Y42273D01*
X17600Y42274D01*
X17514Y42257D01*
X17441Y42209D01*
X17393Y42136D01*
X17376Y42050D01*
X17393Y41964D01*
X17441Y41891D01*
X17514Y41843D01*
X17600Y41826D01*
X17686Y41843D01*
X17759Y41891D01*
X17807Y41964D01*
X17809Y41972D01*
X17945Y42108D01*
X17991Y42089D01*
Y42036D01*
X18978D01*
Y42647D01*
X20058D01*
Y42489D01*
X21242D01*
Y42647D01*
X21738D01*
Y42449D01*
X21876D01*
Y42175D01*
X21850D01*
Y41675D01*
X21922D01*
Y41400D01*
Y40675D01*
X21850D01*
Y40175D01*
X22350D01*
Y40675D01*
X22278D01*
Y41222D01*
X22571D01*
X22614Y41193D01*
X22700Y41176D01*
X22786Y41193D01*
X22859Y41241D01*
X22907Y41314D01*
X22924Y41400D01*
X22907Y41486D01*
X22859Y41559D01*
X22786Y41607D01*
X22700Y41624D01*
X22614Y41607D01*
X22571Y41578D01*
X22278D01*
Y41675D01*
X22350D01*
Y42175D01*
X22233D01*
Y42449D01*
X22595D01*
Y42825D01*
Y43201D01*
X21738D01*
Y43003D01*
X21242D01*
Y43161D01*
X20058D01*
Y43003D01*
X18978D01*
Y43614D01*
X18663D01*
Y44645D01*
X18722D01*
Y45045D01*
Y45195D01*
X18522D01*
X18322D01*
Y45005D01*
X18172D01*
Y45195D01*
D02*
G37*
G36*
X25600Y44600D02*
X25450D01*
Y44450D01*
X25600D01*
Y44600D01*
D02*
G37*
G36*
X25100Y46950D02*
X24600D01*
Y46450D01*
X24707D01*
Y45895D01*
X24600D01*
Y45395D01*
X24707D01*
Y45109D01*
X23999Y44401D01*
X23968Y44355D01*
X23957Y44300D01*
X23957Y44300D01*
Y41259D01*
X22541Y39843D01*
X22036D01*
X22036Y39843D01*
X21981Y39832D01*
X21935Y39801D01*
X21935Y39801D01*
X21372Y39238D01*
X21341Y39192D01*
X21338Y39175D01*
X20627D01*
Y39326D01*
X20781Y39479D01*
X20800Y39476D01*
X20886Y39493D01*
X20959Y39541D01*
X21007Y39614D01*
X21024Y39700D01*
X21007Y39786D01*
X20959Y39859D01*
X20886Y39907D01*
X20800Y39924D01*
X20714Y39907D01*
X20641Y39859D01*
X20593Y39786D01*
X20576Y39700D01*
X20579Y39681D01*
X20541Y39643D01*
X20495Y39668D01*
X20501Y39700D01*
X20484Y39786D01*
X20436Y39859D01*
X20363Y39907D01*
X20277Y39924D01*
X20191Y39907D01*
X20119Y39859D01*
X20070Y39786D01*
X20053Y39700D01*
X20070Y39614D01*
X20119Y39541D01*
X20134Y39531D01*
Y39175D01*
X19837D01*
Y39356D01*
X19826Y39411D01*
X19795Y39457D01*
X19795Y39457D01*
X16137Y43115D01*
X16108Y43158D01*
X15953Y43313D01*
Y43950D01*
X16050D01*
Y44450D01*
X15550D01*
Y43950D01*
X15647D01*
Y43400D01*
X15601Y43381D01*
X15524Y43458D01*
X15474Y43491D01*
X15416Y43503D01*
X13750D01*
Y43600D01*
X13250D01*
Y43100D01*
X13750D01*
Y43197D01*
X15352D01*
X16842Y41708D01*
X16827Y41660D01*
X16814Y41657D01*
X16741Y41609D01*
X16693Y41536D01*
X16676Y41450D01*
X16693Y41364D01*
X16738Y41297D01*
Y38162D01*
X16392Y37816D01*
X16357Y37763D01*
X16345Y37701D01*
Y37395D01*
X16341Y37392D01*
X16294Y37322D01*
X16288Y37316D01*
X16241Y37305D01*
X15595Y37951D01*
X15548Y37982D01*
X15494Y37993D01*
X15494Y37993D01*
X14600D01*
X14600Y37993D01*
X14545Y37982D01*
X14499Y37951D01*
X14499Y37951D01*
X14149Y37601D01*
X14118Y37555D01*
X14107Y37500D01*
X14107Y37500D01*
Y37493D01*
X14091Y37482D01*
X14043Y37410D01*
X14026Y37324D01*
Y36764D01*
X14043Y36678D01*
X14091Y36605D01*
X14164Y36556D01*
X14250Y36539D01*
X14336Y36556D01*
X14409Y36605D01*
X14457Y36678D01*
X14474Y36764D01*
Y37324D01*
X14457Y37410D01*
X14419Y37467D01*
X14659Y37707D01*
X15435D01*
X16303Y36839D01*
X16284Y36793D01*
X16050D01*
X15995Y36782D01*
X15949Y36751D01*
X15949Y36751D01*
X15591Y36393D01*
X15127D01*
X14943Y36577D01*
Y36656D01*
X14957Y36678D01*
X14974Y36764D01*
Y37324D01*
X14957Y37410D01*
X14909Y37482D01*
X14836Y37531D01*
X14750Y37548D01*
X14664Y37531D01*
X14591Y37482D01*
X14543Y37410D01*
X14526Y37324D01*
Y36764D01*
X14543Y36678D01*
X14591Y36605D01*
X14657Y36561D01*
Y36518D01*
X14657Y36518D01*
X14668Y36463D01*
X14699Y36417D01*
X14967Y36149D01*
X14967Y36149D01*
X15013Y36118D01*
X15068Y36107D01*
X15650D01*
X15650Y36107D01*
X15705Y36118D01*
X15751Y36149D01*
X15759Y36157D01*
X15768Y36156D01*
X15807Y36135D01*
Y33500D01*
X15700D01*
Y33300D01*
Y33100D01*
X15807D01*
Y32859D01*
X15791Y32843D01*
X14850D01*
X14850Y32843D01*
X14795Y32832D01*
X14749Y32801D01*
X14749Y32801D01*
X14350Y32402D01*
X14300Y32423D01*
X14300Y32441D01*
Y32550D01*
X14150D01*
Y32400D01*
X14257D01*
X14277Y32400D01*
X14298Y32350D01*
X14141Y32192D01*
X14114Y32187D01*
X14041Y32139D01*
X13993Y32066D01*
X13976Y31980D01*
Y31420D01*
X13993Y31334D01*
X14041Y31261D01*
X14114Y31213D01*
X14200Y31196D01*
X14286Y31213D01*
X14359Y31261D01*
X14407Y31334D01*
X14424Y31420D01*
Y31980D01*
X14409Y32057D01*
X14463Y32111D01*
X14502Y32079D01*
X14493Y32066D01*
X14476Y31980D01*
Y31420D01*
X14493Y31334D01*
X14541Y31261D01*
X14614Y31213D01*
X14700Y31196D01*
X14786Y31213D01*
X14859Y31261D01*
X14907Y31334D01*
X14924Y31420D01*
Y31980D01*
X14924Y31983D01*
X14927Y31986D01*
X14930Y31985D01*
X14976Y31959D01*
Y31420D01*
X14993Y31334D01*
X15041Y31261D01*
X15114Y31213D01*
X15200Y31196D01*
X15286Y31213D01*
X15359Y31261D01*
X15407Y31334D01*
X15424Y31420D01*
Y31980D01*
X15407Y32066D01*
X15359Y32139D01*
X15331Y32157D01*
X15346Y32207D01*
X16056D01*
X16056Y32207D01*
X16110Y32218D01*
X16156Y32249D01*
X16401Y32494D01*
X16401Y32494D01*
X16432Y32540D01*
X16443Y32594D01*
Y35991D01*
X16565Y36114D01*
X17446D01*
X17465Y36067D01*
X17199Y35801D01*
X17168Y35755D01*
X17157Y35700D01*
X17157Y35700D01*
Y32950D01*
X17050D01*
Y32450D01*
X17550D01*
Y32950D01*
X17443D01*
Y35641D01*
X17719Y35917D01*
X18350D01*
Y35723D01*
X18350Y35723D01*
X18350D01*
X18328Y35683D01*
X18099Y35454D01*
X18068Y35407D01*
X18057Y35353D01*
X18057Y35353D01*
Y32950D01*
X17950D01*
Y32450D01*
X18450D01*
Y32950D01*
X18343D01*
Y35294D01*
X18772Y35723D01*
X19070D01*
Y36117D01*
Y36511D01*
Y36904D01*
Y37298D01*
Y37692D01*
Y38167D01*
X18727D01*
X18710Y38171D01*
X18531D01*
X18343Y38359D01*
Y39531D01*
X18359Y39541D01*
X18407Y39614D01*
X18424Y39700D01*
X18407Y39786D01*
X18359Y39859D01*
X18286Y39907D01*
X18200Y39924D01*
X18114Y39907D01*
X18041Y39859D01*
X17993Y39786D01*
X17976Y39700D01*
X17993Y39614D01*
X18041Y39541D01*
X18057Y39531D01*
Y38315D01*
X18018Y38294D01*
X18009Y38293D01*
X17843Y38459D01*
Y39531D01*
X17859Y39541D01*
X17907Y39614D01*
X17924Y39700D01*
X17907Y39786D01*
X17859Y39859D01*
X17786Y39907D01*
X17700Y39924D01*
X17614Y39907D01*
X17541Y39859D01*
X17493Y39786D01*
X17476Y39700D01*
X17493Y39614D01*
X17541Y39541D01*
X17557Y39531D01*
Y38400D01*
X17557Y38400D01*
X17568Y38345D01*
X17599Y38299D01*
X17809Y38089D01*
X17790Y38043D01*
X17269D01*
X17259Y38059D01*
X17186Y38107D01*
X17100Y38124D01*
X17062Y38155D01*
Y41297D01*
X17107Y41364D01*
X17110Y41377D01*
X17158Y41392D01*
X19351Y39198D01*
Y38815D01*
X19358Y38783D01*
Y38455D01*
X21802D01*
Y39010D01*
X22049Y39257D01*
X22583D01*
X22583Y39257D01*
X22637Y39268D01*
X22684Y39299D01*
X24451Y41066D01*
X24451Y41066D01*
X24482Y41113D01*
X24493Y41167D01*
X24493Y41167D01*
Y44191D01*
X24754Y44452D01*
X24800Y44433D01*
Y44200D01*
X24857D01*
Y43999D01*
X24841Y43989D01*
X24793Y43916D01*
X24776Y43830D01*
Y43270D01*
X24793Y43184D01*
X24841Y43111D01*
X24914Y43063D01*
X25000Y43046D01*
X25086Y43063D01*
X25159Y43111D01*
X25207Y43184D01*
X25224Y43270D01*
Y43830D01*
X25207Y43916D01*
X25159Y43989D01*
X25143Y43999D01*
Y44200D01*
X25350D01*
Y44400D01*
Y44600D01*
X25319D01*
X25293Y44650D01*
X25298Y44657D01*
X25849D01*
X25896Y44650D01*
Y44500D01*
X26096D01*
Y44450D01*
X26146D01*
Y44250D01*
X26347D01*
Y43992D01*
X26341Y43989D01*
X26293Y43916D01*
X26276Y43830D01*
Y43270D01*
X26293Y43184D01*
X26341Y43111D01*
X26414Y43063D01*
X26500Y43046D01*
X26586Y43063D01*
X26659Y43111D01*
X26707Y43184D01*
X26724Y43270D01*
Y43830D01*
X26707Y43916D01*
X26659Y43989D01*
X26653Y43992D01*
Y44250D01*
X26696D01*
Y44307D01*
X26834D01*
X26834Y44307D01*
X26888Y44318D01*
X26935Y44349D01*
X27255Y44669D01*
X29211D01*
Y45263D01*
X27380D01*
X27361Y45309D01*
X27509Y45457D01*
X29211D01*
Y46050D01*
X27239D01*
Y45591D01*
X27096Y45448D01*
X27050Y45467D01*
Y45595D01*
X26850D01*
Y45395D01*
X26978D01*
X26997Y45349D01*
X26591Y44943D01*
X25765D01*
X25746Y44989D01*
X26152Y45395D01*
X26450D01*
Y45895D01*
X26393D01*
Y46360D01*
X26500D01*
Y46860D01*
X26000D01*
Y46360D01*
X26107D01*
Y45895D01*
X25950D01*
Y45597D01*
X25750Y45397D01*
X25700Y45418D01*
X25700Y45436D01*
Y45595D01*
X25500D01*
Y45395D01*
X25657D01*
X25677Y45395D01*
X25698Y45345D01*
X25496Y45143D01*
X25100D01*
X25100Y45143D01*
X25045Y45132D01*
X25043Y45130D01*
X25001Y45148D01*
X24993Y45157D01*
Y45395D01*
X25100D01*
Y45895D01*
X24993D01*
Y46450D01*
X25100D01*
Y46950D01*
D02*
G37*
G36*
X15266Y44450D02*
X15066D01*
Y44250D01*
X15266D01*
Y44450D01*
D02*
G37*
G36*
X26046Y44400D02*
X25896D01*
Y44250D01*
X26046D01*
Y44400D01*
D02*
G37*
G36*
X14966Y44450D02*
X14766D01*
Y44250D01*
X14966D01*
Y44450D01*
D02*
G37*
G36*
X25600Y44350D02*
X25450D01*
Y44200D01*
X25600D01*
Y44350D01*
D02*
G37*
G36*
X29258Y44515D02*
X28617D01*
Y44150D01*
X29258D01*
Y44515D01*
D02*
G37*
G36*
X15266Y44150D02*
X15066D01*
Y43950D01*
X15266D01*
Y44150D01*
D02*
G37*
G36*
X14966D02*
X14766D01*
Y43950D01*
X14966D01*
Y44150D01*
D02*
G37*
G36*
X12357Y44132D02*
X11992D01*
Y43944D01*
X12357D01*
Y44132D01*
D02*
G37*
G36*
X11892D02*
X11527D01*
Y43944D01*
X11892D01*
Y44132D01*
D02*
G37*
G36*
X22962Y44101D02*
X22695D01*
Y43775D01*
X22962D01*
Y44101D01*
D02*
G37*
G36*
X29258Y44050D02*
X28617D01*
Y43685D01*
X29258D01*
Y44050D01*
D02*
G37*
G36*
X26050Y44044D02*
Y43600D01*
X26224D01*
Y43830D01*
X26207Y43916D01*
X26159Y43989D01*
X26086Y44037D01*
X26050Y44044D01*
D02*
G37*
G36*
X25550D02*
Y43600D01*
X25724D01*
Y43830D01*
X25707Y43916D01*
X25659Y43989D01*
X25586Y44037D01*
X25550Y44044D01*
D02*
G37*
G36*
X25450D02*
X25414Y44037D01*
X25341Y43989D01*
X25293Y43916D01*
X25276Y43830D01*
Y43600D01*
X25450D01*
Y44044D01*
D02*
G37*
G36*
X25950D02*
X25914Y44037D01*
X25841Y43989D01*
X25793Y43916D01*
X25776Y43830D01*
Y43600D01*
X25950D01*
Y44044D01*
D02*
G37*
G36*
X22962Y43675D02*
X22695D01*
Y43349D01*
X22962D01*
Y43675D01*
D02*
G37*
G36*
X12357Y43844D02*
X11942D01*
X11527D01*
Y43690D01*
X11527Y43657D01*
X11527Y43607D01*
Y43165D01*
X12357D01*
Y43249D01*
X12650D01*
Y43100D01*
X13150D01*
Y43600D01*
X12650D01*
Y43555D01*
X12392D01*
X12357Y43591D01*
X12357Y43640D01*
X12357Y43690D01*
Y43844D01*
D02*
G37*
G36*
X26224Y43500D02*
X26050D01*
Y43056D01*
X26086Y43063D01*
X26159Y43111D01*
X26207Y43184D01*
X26224Y43270D01*
Y43500D01*
D02*
G37*
G36*
X25724D02*
X25550D01*
Y43056D01*
X25586Y43063D01*
X25659Y43111D01*
X25707Y43184D01*
X25724Y43270D01*
Y43500D01*
D02*
G37*
G36*
X25450D02*
X25276D01*
Y43270D01*
X25293Y43184D01*
X25341Y43111D01*
X25414Y43063D01*
X25450Y43056D01*
Y43500D01*
D02*
G37*
G36*
X25950D02*
X25776D01*
Y43270D01*
X25793Y43184D01*
X25841Y43111D01*
X25914Y43063D01*
X25950Y43056D01*
Y43500D01*
D02*
G37*
G36*
X29283Y43381D02*
X28642D01*
Y43016D01*
X29283D01*
Y43381D01*
D02*
G37*
G36*
X22962Y43201D02*
X22695D01*
Y42875D01*
X22962D01*
Y43201D01*
D02*
G37*
G36*
X29283Y42916D02*
X28642D01*
Y42551D01*
X29283D01*
Y42916D01*
D02*
G37*
G36*
X22962Y42775D02*
X22695D01*
Y42449D01*
X22962D01*
Y42775D01*
D02*
G37*
G36*
X22950Y42175D02*
X22750D01*
Y41975D01*
X22950D01*
Y42175D01*
D02*
G37*
G36*
X22650D02*
X22450D01*
Y41975D01*
X22650D01*
Y42175D01*
D02*
G37*
G36*
X21242Y42256D02*
X20700D01*
Y41969D01*
X21242D01*
Y42256D01*
D02*
G37*
G36*
X20600D02*
X20058D01*
Y41969D01*
X20600D01*
Y42256D01*
D02*
G37*
G36*
X29236Y42397D02*
X27264D01*
Y42196D01*
X27241Y42191D01*
X27192Y42158D01*
X26792Y41758D01*
X26759Y41710D01*
X26754Y41709D01*
X26708Y41711D01*
X26707Y41716D01*
X26659Y41789D01*
X26586Y41837D01*
X26500Y41854D01*
X26414Y41837D01*
X26341Y41789D01*
X26293Y41716D01*
X26276Y41630D01*
Y41070D01*
X26293Y40984D01*
X26322Y40941D01*
Y40674D01*
X25824Y40176D01*
X25785Y40118D01*
X25772Y40050D01*
Y38133D01*
X25267Y37628D01*
X25159D01*
X25116Y37657D01*
X25030Y37674D01*
X24470D01*
X24384Y37657D01*
X24311Y37609D01*
X24263Y37536D01*
X24246Y37450D01*
X24263Y37364D01*
X24311Y37291D01*
X24314Y37266D01*
X24176Y37128D01*
X23729D01*
X23686Y37157D01*
X23600Y37174D01*
X23514Y37157D01*
X23441Y37109D01*
X23393Y37036D01*
X23376Y36950D01*
X23393Y36864D01*
X23441Y36791D01*
X23514Y36743D01*
X23600Y36726D01*
X23686Y36743D01*
X23729Y36772D01*
X24250D01*
X24318Y36785D01*
X24376Y36824D01*
X24778Y37226D01*
X25030D01*
X25116Y37243D01*
X25159Y37272D01*
X25341D01*
X25409Y37285D01*
X25467Y37324D01*
X26076Y37933D01*
X26076Y37933D01*
X26115Y37991D01*
X26128Y38059D01*
Y39976D01*
X26626Y40474D01*
X26626Y40474D01*
X26665Y40532D01*
X26678Y40600D01*
Y40924D01*
X26697Y40941D01*
X26747Y40919D01*
Y40050D01*
X26700D01*
Y39650D01*
X26797D01*
Y39174D01*
X26670D01*
X26584Y39157D01*
X26511Y39109D01*
X26463Y39036D01*
X26446Y38950D01*
X26463Y38864D01*
X26511Y38791D01*
X26584Y38743D01*
X26670Y38726D01*
X27230D01*
X27316Y38743D01*
X27389Y38791D01*
X27437Y38864D01*
X27454Y38950D01*
X27437Y39036D01*
X27389Y39109D01*
X27316Y39157D01*
X27230Y39174D01*
X27103D01*
Y39650D01*
X27250D01*
Y39850D01*
Y40050D01*
X27053D01*
Y41587D01*
X27269Y41803D01*
X29236D01*
Y42397D01*
D02*
G37*
G36*
X22950Y41875D02*
X22750D01*
Y41675D01*
X22950D01*
Y41875D01*
D02*
G37*
G36*
X22650D02*
X22450D01*
Y41675D01*
X22650D01*
Y41875D01*
D02*
G37*
G36*
X21242Y41869D02*
X20700D01*
Y41583D01*
X21242D01*
Y41869D01*
D02*
G37*
G36*
X20600D02*
X20058D01*
Y41583D01*
X20600D01*
Y41869D01*
D02*
G37*
G36*
X25000Y41854D02*
X24914Y41837D01*
X24841Y41789D01*
X24793Y41716D01*
X24776Y41630D01*
Y41070D01*
X24793Y40984D01*
X24841Y40911D01*
X24914Y40863D01*
X25000Y40846D01*
X25086Y40863D01*
X25159Y40911D01*
X25207Y40984D01*
X25224Y41070D01*
Y41630D01*
X25207Y41716D01*
X25159Y41789D01*
X25086Y41837D01*
X25000Y41854D01*
D02*
G37*
G36*
X26000D02*
X25914Y41837D01*
X25841Y41789D01*
X25793Y41716D01*
X25776Y41630D01*
Y41070D01*
X25793Y40984D01*
X25841Y40911D01*
X25842Y40906D01*
X25689Y40753D01*
X25643Y40772D01*
Y40901D01*
X25659Y40911D01*
X25707Y40984D01*
X25724Y41070D01*
Y41630D01*
X25707Y41716D01*
X25659Y41789D01*
X25586Y41837D01*
X25500Y41854D01*
X25414Y41837D01*
X25341Y41789D01*
X25293Y41716D01*
X25276Y41630D01*
Y41070D01*
X25293Y40984D01*
X25341Y40911D01*
X25357Y40901D01*
Y40704D01*
X22835Y38181D01*
X22461D01*
X22461Y38181D01*
X22406Y38170D01*
X22401Y38167D01*
X22090D01*
Y37692D01*
Y37298D01*
Y36904D01*
Y36897D01*
X22450D01*
X22810D01*
Y36904D01*
Y37292D01*
X23534D01*
X23534Y37292D01*
X23589Y37302D01*
X23635Y37333D01*
X24109Y37807D01*
X24301D01*
X24311Y37791D01*
X24384Y37743D01*
X24470Y37726D01*
X25030D01*
X25116Y37743D01*
X25189Y37791D01*
X25237Y37864D01*
X25254Y37950D01*
X25237Y38036D01*
X25189Y38109D01*
X25116Y38157D01*
X25030Y38174D01*
X24470D01*
X24384Y38157D01*
X24311Y38109D01*
X24301Y38093D01*
X24050D01*
X24050Y38093D01*
X23995Y38082D01*
X23949Y38051D01*
X23949Y38051D01*
X23490Y37592D01*
X23468Y37595D01*
X23450Y37648D01*
X24109Y38307D01*
X24301D01*
X24311Y38291D01*
X24384Y38243D01*
X24470Y38226D01*
X25030D01*
X25116Y38243D01*
X25189Y38291D01*
X25237Y38364D01*
X25254Y38450D01*
X25237Y38536D01*
X25189Y38609D01*
X25116Y38657D01*
X25030Y38674D01*
X24470D01*
X24384Y38657D01*
X24311Y38609D01*
X24301Y38593D01*
X24050D01*
X24050Y38593D01*
X23995Y38582D01*
X23987Y38576D01*
X23955Y38615D01*
X24214Y38874D01*
X24268Y38857D01*
X24311Y38791D01*
X24384Y38743D01*
X24470Y38726D01*
X25030D01*
X25116Y38743D01*
X25189Y38791D01*
X25237Y38864D01*
X25254Y38950D01*
X25237Y39036D01*
X25189Y39109D01*
X25116Y39157D01*
X25030Y39174D01*
X24580D01*
X24561Y39220D01*
X26101Y40761D01*
X26132Y40807D01*
X26143Y40862D01*
X26143Y40862D01*
Y40901D01*
X26159Y40911D01*
X26207Y40984D01*
X26224Y41070D01*
Y41630D01*
X26207Y41716D01*
X26159Y41789D01*
X26086Y41837D01*
X26000Y41854D01*
D02*
G37*
G36*
X21750Y40675D02*
X21250D01*
Y40568D01*
X20950D01*
Y40675D01*
X20450D01*
Y40175D01*
X20950D01*
Y40282D01*
X21250D01*
Y40175D01*
X21750D01*
Y40675D01*
D02*
G37*
G36*
X29283Y40861D02*
X28642D01*
Y40496D01*
X29283D01*
Y40861D01*
D02*
G37*
G36*
X16300Y40846D02*
X15850D01*
Y40496D01*
X16300D01*
Y40846D01*
D02*
G37*
G36*
X15750D02*
X15300D01*
Y40496D01*
X15750D01*
Y40846D01*
D02*
G37*
G36*
X20350Y40675D02*
X20150D01*
Y40475D01*
X20350D01*
Y40675D01*
D02*
G37*
G36*
X20050D02*
X19850D01*
Y40475D01*
X20050D01*
Y40675D01*
D02*
G37*
G36*
X20350Y40375D02*
X20150D01*
Y40175D01*
X20350D01*
Y40375D01*
D02*
G37*
G36*
X20050D02*
X19850D01*
Y40175D01*
X20050D01*
Y40375D01*
D02*
G37*
G36*
X16300Y40396D02*
X15850D01*
Y40046D01*
X16300D01*
Y40396D01*
D02*
G37*
G36*
X15750D02*
X15300D01*
Y40046D01*
X15750D01*
Y40396D01*
D02*
G37*
G36*
X29283Y40396D02*
X28642D01*
Y40031D01*
X29283D01*
Y40396D01*
D02*
G37*
G36*
X27500Y40050D02*
X27350D01*
Y39900D01*
X27500D01*
Y40050D01*
D02*
G37*
G36*
Y39800D02*
X27350D01*
Y39650D01*
X27500D01*
Y39800D01*
D02*
G37*
G36*
X28400Y39650D02*
X28250D01*
Y39500D01*
X28400D01*
Y39650D01*
D02*
G37*
G36*
X11550Y39600D02*
X11100D01*
Y39250D01*
X11550D01*
Y39600D01*
D02*
G37*
G36*
X28400Y39400D02*
X28250D01*
Y39250D01*
X28400D01*
Y39400D01*
D02*
G37*
G36*
X11000Y39600D02*
X10550D01*
Y39250D01*
X11000D01*
Y39600D01*
D02*
G37*
G36*
X13900Y39200D02*
X13750D01*
Y39050D01*
X13900D01*
Y39200D01*
D02*
G37*
G36*
X13650D02*
X13500D01*
Y39050D01*
X13650D01*
Y39200D01*
D02*
G37*
G36*
X11550Y39150D02*
X11100D01*
Y38800D01*
X11550D01*
Y39150D01*
D02*
G37*
G36*
X11000D02*
X10550D01*
Y38800D01*
X11000D01*
Y39150D01*
D02*
G37*
G36*
X29907Y38939D02*
X29700D01*
Y38731D01*
X29907D01*
Y38939D01*
D02*
G37*
G36*
X27230Y38674D02*
X27000D01*
Y38500D01*
X27444D01*
X27437Y38536D01*
X27389Y38609D01*
X27316Y38657D01*
X27230Y38674D01*
D02*
G37*
G36*
X26900D02*
X26670D01*
X26584Y38657D01*
X26511Y38609D01*
X26463Y38536D01*
X26456Y38500D01*
X26900D01*
Y38674D01*
D02*
G37*
G36*
X29907Y38631D02*
X29700D01*
Y38424D01*
X29907D01*
Y38631D01*
D02*
G37*
G36*
X29158Y38941D02*
X29091Y38932D01*
X29028Y38906D01*
X28974Y38865D01*
X28933Y38811D01*
X28907Y38749D01*
X28898Y38681D01*
X28905Y38630D01*
X27167Y36893D01*
X24900D01*
X24900Y36893D01*
X24845Y36882D01*
X24799Y36851D01*
X24799Y36851D01*
X24615Y36667D01*
X24591Y36651D01*
X24542Y36602D01*
X22810D01*
Y36797D01*
X22450D01*
X22090D01*
Y36511D01*
Y36117D01*
Y35723D01*
X22810D01*
Y35917D01*
X24678D01*
X24995Y35599D01*
X24995Y35599D01*
X25246Y35348D01*
Y35050D01*
X25746D01*
Y35550D01*
X25448D01*
X25197Y35801D01*
X25197Y35801D01*
X24928Y36071D01*
X24947Y36117D01*
X25300D01*
Y35950D01*
X25800D01*
Y36450D01*
X25300D01*
Y36402D01*
X24821D01*
X24805Y36439D01*
X24804Y36452D01*
X24959Y36607D01*
X27226D01*
X27226Y36607D01*
X27281Y36618D01*
X27327Y36649D01*
X29107Y38428D01*
X29158Y38422D01*
X29225Y38431D01*
X29288Y38456D01*
X29342Y38498D01*
X29343Y38499D01*
X29393Y38482D01*
Y38424D01*
X29600D01*
Y38681D01*
Y38939D01*
X29393D01*
Y38881D01*
X29343Y38864D01*
X29342Y38865D01*
X29288Y38906D01*
X29225Y38932D01*
X29158Y38941D01*
D02*
G37*
G36*
X27444Y38400D02*
X27000D01*
Y38226D01*
X27230D01*
X27316Y38243D01*
X27389Y38291D01*
X27437Y38364D01*
X27444Y38400D01*
D02*
G37*
G36*
X26900D02*
X26456D01*
X26463Y38364D01*
X26511Y38291D01*
X26584Y38243D01*
X26670Y38226D01*
X26900D01*
Y38400D01*
D02*
G37*
G36*
X11150Y40603D02*
X10950D01*
X10846Y40590D01*
X10748Y40549D01*
X10665Y40485D01*
X10601Y40402D01*
X10560Y40304D01*
X10547Y40200D01*
X10560Y40096D01*
X10601Y39998D01*
X10665Y39915D01*
X10748Y39851D01*
X10846Y39810D01*
X10950Y39797D01*
X11150D01*
X11254Y39810D01*
X11352Y39851D01*
X11435Y39915D01*
X11499Y39998D01*
X11509Y40022D01*
X11576D01*
X13124Y38474D01*
X13124Y38474D01*
X13182Y38435D01*
X13250Y38422D01*
X13250Y38422D01*
X13500D01*
Y38400D01*
X13522D01*
Y37222D01*
X12783D01*
X12759Y37259D01*
X12686Y37307D01*
X12600Y37324D01*
X12514Y37307D01*
X12441Y37259D01*
X12393Y37186D01*
X12376Y37100D01*
X12393Y37014D01*
X12441Y36941D01*
X12514Y36893D01*
X12600Y36876D01*
X12602Y36876D01*
X12656Y36865D01*
X13526D01*
Y36764D01*
X13543Y36678D01*
X13591Y36605D01*
X13664Y36556D01*
X13750Y36539D01*
X13836Y36556D01*
X13909Y36605D01*
X13957Y36678D01*
X13974Y36764D01*
Y37324D01*
X13957Y37410D01*
X13909Y37482D01*
X13878Y37502D01*
Y38400D01*
X13900D01*
Y38418D01*
X15300D01*
Y38196D01*
X16300D01*
Y38226D01*
X16350Y38252D01*
X16364Y38243D01*
X16450Y38226D01*
X16536Y38243D01*
X16609Y38291D01*
X16657Y38364D01*
X16674Y38450D01*
X16657Y38536D01*
X16609Y38609D01*
X16536Y38657D01*
X16450Y38674D01*
X16364Y38657D01*
X16350Y38648D01*
X16300Y38674D01*
Y38996D01*
X15300D01*
Y38775D01*
X13900D01*
Y38950D01*
X13700D01*
X13500D01*
Y38778D01*
X13324D01*
X11776Y40326D01*
X11718Y40365D01*
X11650Y40378D01*
X11509D01*
X11499Y40402D01*
X11435Y40485D01*
X11352Y40549D01*
X11254Y40590D01*
X11150Y40603D01*
D02*
G37*
G36*
X27230Y38174D02*
X27000D01*
Y38000D01*
X27444D01*
X27437Y38036D01*
X27389Y38109D01*
X27316Y38157D01*
X27230Y38174D01*
D02*
G37*
G36*
X26900D02*
X26670D01*
X26584Y38157D01*
X26511Y38109D01*
X26463Y38036D01*
X26456Y38000D01*
X26900D01*
Y38174D01*
D02*
G37*
G36*
X27444Y37900D02*
X27000D01*
Y37726D01*
X27230D01*
X27316Y37743D01*
X27389Y37791D01*
X27437Y37864D01*
X27444Y37900D01*
D02*
G37*
G36*
X26900D02*
X26456D01*
X26463Y37864D01*
X26511Y37791D01*
X26584Y37743D01*
X26670Y37726D01*
X26900D01*
Y37900D01*
D02*
G37*
G36*
X29236Y41609D02*
X27264D01*
Y41016D01*
X27673D01*
X27680Y40998D01*
X27689Y40966D01*
X27659Y40921D01*
X27647Y40863D01*
Y39650D01*
X27600D01*
Y39250D01*
X27647D01*
Y37913D01*
X27361Y37627D01*
X27316Y37657D01*
X27230Y37674D01*
X26670D01*
X26584Y37657D01*
X26511Y37609D01*
X26463Y37536D01*
X26446Y37450D01*
X26463Y37364D01*
X26511Y37291D01*
X26584Y37243D01*
X26670Y37226D01*
X27230D01*
X27316Y37243D01*
X27389Y37291D01*
X27392Y37297D01*
X27400D01*
X27459Y37309D01*
X27508Y37342D01*
X27908Y37742D01*
X27941Y37791D01*
X27953Y37850D01*
Y39250D01*
X28150D01*
Y39450D01*
Y39650D01*
X27953D01*
Y40799D01*
X28169Y41016D01*
X29236D01*
Y41609D01*
D02*
G37*
G36*
X10850Y37649D02*
Y37284D01*
X11491D01*
Y37649D01*
X10850D01*
D02*
G37*
G36*
X11491Y37184D02*
X10850D01*
Y36819D01*
X11491D01*
Y37184D01*
D02*
G37*
G36*
X15250Y37548D02*
X15164Y37531D01*
X15091Y37482D01*
X15043Y37410D01*
X15026Y37324D01*
Y36764D01*
X15043Y36678D01*
X15091Y36605D01*
X15164Y36556D01*
X15250Y36539D01*
X15336Y36556D01*
X15409Y36605D01*
X15457Y36678D01*
X15474Y36764D01*
Y37324D01*
X15457Y37410D01*
X15409Y37482D01*
X15336Y37531D01*
X15250Y37548D01*
D02*
G37*
G36*
X26400Y36450D02*
X25900D01*
Y35950D01*
X26235D01*
X26250Y35947D01*
X27800D01*
X27835Y35912D01*
X27835Y35862D01*
X27835Y35822D01*
X27800Y35786D01*
X27574D01*
X27559Y35809D01*
X27486Y35857D01*
X27400Y35874D01*
X27314Y35857D01*
X27241Y35809D01*
X27193Y35736D01*
X27176Y35650D01*
X27193Y35564D01*
X27241Y35491D01*
X27314Y35443D01*
X27400Y35426D01*
X27431Y35432D01*
X27442Y35429D01*
X27835D01*
Y35370D01*
X28665D01*
Y35812D01*
X28665Y35846D01*
X28665Y35896D01*
Y36338D01*
X27835D01*
Y36253D01*
X26400D01*
Y36450D01*
D02*
G37*
G36*
X14800Y35338D02*
Y34894D01*
X14974D01*
Y35124D01*
X14957Y35210D01*
X14909Y35282D01*
X14836Y35331D01*
X14800Y35338D01*
D02*
G37*
G36*
X14300D02*
Y34894D01*
X14474D01*
Y35124D01*
X14457Y35210D01*
X14409Y35282D01*
X14336Y35331D01*
X14300Y35338D01*
D02*
G37*
G36*
X14700D02*
X14664Y35331D01*
X14591Y35282D01*
X14543Y35210D01*
X14526Y35124D01*
Y34894D01*
X14700D01*
Y35338D01*
D02*
G37*
G36*
X14200D02*
X14164Y35331D01*
X14091Y35282D01*
X14043Y35210D01*
X14026Y35124D01*
Y34894D01*
X14200D01*
Y35338D01*
D02*
G37*
G36*
X10850Y35129D02*
Y34764D01*
X11491D01*
Y35129D01*
X10850D01*
D02*
G37*
G36*
X14974Y34794D02*
X14800D01*
Y34349D01*
X14836Y34356D01*
X14909Y34405D01*
X14957Y34478D01*
X14974Y34564D01*
Y34794D01*
D02*
G37*
G36*
X14474D02*
X14300D01*
Y34349D01*
X14336Y34356D01*
X14409Y34405D01*
X14457Y34478D01*
X14474Y34564D01*
Y34794D01*
D02*
G37*
G36*
X14200D02*
X14026D01*
Y34564D01*
X14043Y34478D01*
X14091Y34405D01*
X14164Y34356D01*
X14200Y34349D01*
Y34794D01*
D02*
G37*
G36*
X14700D02*
X14526D01*
Y34564D01*
X14543Y34478D01*
X14591Y34405D01*
X14664Y34356D01*
X14700Y34349D01*
Y34794D01*
D02*
G37*
G36*
X11491Y34664D02*
X10850D01*
Y34299D01*
X11491D01*
Y34664D01*
D02*
G37*
G36*
X14350Y34200D02*
X14200D01*
Y34050D01*
X14350D01*
Y34200D01*
D02*
G37*
G36*
X10850Y34165D02*
Y33800D01*
X11491D01*
Y34165D01*
X10850D01*
D02*
G37*
G36*
X14350Y33950D02*
X14200D01*
Y33800D01*
X14350D01*
Y33950D01*
D02*
G37*
G36*
X12868Y36665D02*
X10897D01*
Y36071D01*
X12852D01*
X13587Y35336D01*
X13591Y35282D01*
X13543Y35210D01*
X13526Y35124D01*
Y34564D01*
X13543Y34478D01*
X13591Y34405D01*
X13597Y34401D01*
Y34200D01*
X13550D01*
Y33800D01*
X14100D01*
Y34000D01*
Y34200D01*
X13903D01*
Y34401D01*
X13909Y34405D01*
X13957Y34478D01*
X13974Y34564D01*
Y35124D01*
X13957Y35210D01*
X13909Y35282D01*
X13893Y35293D01*
Y35375D01*
X13893Y35375D01*
X13882Y35430D01*
X13851Y35476D01*
X13851Y35476D01*
X12868Y36458D01*
Y36665D01*
D02*
G37*
G36*
X11491Y33700D02*
X10850D01*
Y33335D01*
X11491D01*
Y33700D01*
D02*
G37*
G36*
X12868Y35877D02*
X10897D01*
Y35283D01*
X11740D01*
Y34967D01*
X11740Y34967D01*
X11751Y34913D01*
X11782Y34866D01*
X13449Y33199D01*
X13449Y33199D01*
X13495Y33168D01*
X13550Y33157D01*
X13550Y33157D01*
X15050D01*
Y33100D01*
X15600D01*
Y33300D01*
Y33500D01*
X15403D01*
Y34401D01*
X15409Y34405D01*
X15457Y34478D01*
X15474Y34564D01*
Y35124D01*
X15457Y35210D01*
X15409Y35282D01*
X15336Y35331D01*
X15250Y35348D01*
X15164Y35331D01*
X15091Y35282D01*
X15043Y35210D01*
X15026Y35124D01*
Y34564D01*
X15043Y34478D01*
X15091Y34405D01*
X15097Y34401D01*
Y33500D01*
X15050D01*
Y33443D01*
X13609D01*
X12025Y35026D01*
Y35283D01*
X12868D01*
Y35877D01*
D02*
G37*
G36*
X19497Y35438D02*
X19443Y35427D01*
X19397Y35396D01*
X19366Y35350D01*
X19355Y35296D01*
Y35078D01*
X19355Y35075D01*
Y31753D01*
X19355Y31753D01*
X19365Y31698D01*
X19396Y31652D01*
X20872Y30176D01*
Y29280D01*
X20765D01*
Y28780D01*
X20872D01*
Y28697D01*
X20765D01*
Y28197D01*
X21265D01*
Y28697D01*
X21158D01*
Y28780D01*
X21265D01*
Y29280D01*
X21158D01*
Y30235D01*
X21158Y30235D01*
X21147Y30290D01*
X21116Y30336D01*
X21116Y30336D01*
X19655Y31797D01*
X19658Y31819D01*
X19711Y31837D01*
X22234Y29314D01*
Y29250D01*
X22100D01*
Y28750D01*
X22234D01*
Y28695D01*
X22127D01*
Y28195D01*
X22627D01*
Y28695D01*
X22519D01*
Y28750D01*
X22600D01*
Y29250D01*
X22519D01*
Y29373D01*
X22509Y29428D01*
X22478Y29474D01*
X22478Y29474D01*
X19840Y32112D01*
Y32404D01*
X19850Y32450D01*
X19912Y32450D01*
X19947Y32415D01*
X19959Y32356D01*
X19992Y32307D01*
X20507Y31792D01*
X20556Y31759D01*
X20615Y31747D01*
X24451D01*
X29073Y27125D01*
X29059Y27091D01*
X29047Y27000D01*
X29059Y26909D01*
X29094Y26823D01*
X29150Y26750D01*
X29223Y26694D01*
X29309Y26659D01*
X29400Y26647D01*
X29491Y26659D01*
X29577Y26694D01*
X29650Y26750D01*
X29706Y26823D01*
X29741Y26909D01*
X29753Y27000D01*
X29741Y27091D01*
X29706Y27177D01*
X29650Y27250D01*
X29577Y27306D01*
X29491Y27341D01*
X29400Y27353D01*
X29309Y27341D01*
X29275Y27327D01*
X24637Y31965D01*
X24608Y32008D01*
X24559Y32041D01*
X24500Y32053D01*
X20678D01*
X20327Y32404D01*
X20347Y32450D01*
X20350D01*
Y32950D01*
X19850Y32950D01*
X19840Y32996D01*
Y33004D01*
X19850Y33050D01*
X20350D01*
Y33550D01*
X20231D01*
Y34715D01*
X20536D01*
Y33422D01*
X20536Y33422D01*
X20546Y33367D01*
X20550Y33362D01*
Y33050D01*
X21050D01*
Y33550D01*
X20821D01*
Y34715D01*
X21802D01*
Y35435D01*
X19555D01*
X19555Y35435D01*
Y35435D01*
X19505Y35436D01*
X19497Y35438D01*
D02*
G37*
G36*
X14300Y32800D02*
X14150D01*
Y32650D01*
X14300D01*
Y32800D01*
D02*
G37*
G36*
X12642Y33724D02*
X12556Y33707D01*
X12484Y33659D01*
X12435Y33586D01*
X12418Y33500D01*
X12435Y33414D01*
X12484Y33341D01*
X12556Y33293D01*
X12642Y33276D01*
X12728Y33293D01*
X12744Y33304D01*
X12821Y33227D01*
X12802Y33181D01*
X10897D01*
Y32587D01*
X12868D01*
Y32587D01*
X12899Y32599D01*
X13037Y32461D01*
Y30020D01*
X13037Y30020D01*
X13048Y29966D01*
X13079Y29919D01*
X13476Y29522D01*
Y29220D01*
X13493Y29134D01*
X13541Y29061D01*
X13557Y29051D01*
Y28900D01*
X13500D01*
Y28617D01*
X13454Y28598D01*
X12962Y29089D01*
Y31159D01*
X12962Y31159D01*
X12952Y31214D01*
X12921Y31260D01*
X12921Y31260D01*
X12428Y31753D01*
X12447Y31800D01*
X12868D01*
Y32393D01*
X10897D01*
Y31800D01*
X11978D01*
X12677Y31100D01*
Y29030D01*
X12677Y29030D01*
X12688Y28976D01*
X12719Y28929D01*
X12760Y28888D01*
X12728Y28849D01*
X12728Y28849D01*
X12642Y28866D01*
X12556Y28849D01*
X12513Y28821D01*
X12315D01*
Y28880D01*
X11485D01*
Y28438D01*
X11485Y28404D01*
X11485Y28354D01*
Y27946D01*
X11485Y27912D01*
X11485Y27862D01*
Y27420D01*
X11485D01*
Y27404D01*
X11485D01*
Y26928D01*
X12315D01*
Y27023D01*
X14716D01*
X14716Y27023D01*
X14770Y27034D01*
X14817Y27065D01*
X18301Y30549D01*
X18301Y30549D01*
X18332Y30595D01*
X18343Y30650D01*
Y31850D01*
X18450D01*
Y32350D01*
X17950D01*
Y31850D01*
X18057D01*
Y30709D01*
X17493Y30145D01*
X17443Y30165D01*
Y31850D01*
X17550D01*
Y32350D01*
X17050D01*
Y31850D01*
X17157D01*
Y30159D01*
X14741Y27743D01*
X12350D01*
X12315Y27778D01*
X12315Y27896D01*
X12315Y27936D01*
X12350Y27972D01*
X13121D01*
X13164Y27943D01*
X13250Y27926D01*
X13336Y27943D01*
X13409Y27991D01*
X13457Y28064D01*
X13467Y28111D01*
X13521Y28127D01*
X13599Y28049D01*
X13599Y28049D01*
X13645Y28018D01*
X13700Y28007D01*
X13700Y28007D01*
X14866D01*
X14866Y28007D01*
X14920Y28018D01*
X14967Y28049D01*
X15301Y28383D01*
X15301Y28383D01*
X15332Y28430D01*
X15343Y28484D01*
X15388Y28500D01*
X15400D01*
Y28900D01*
X15343D01*
Y29051D01*
X15359Y29061D01*
X15407Y29134D01*
X15424Y29220D01*
Y29780D01*
X15407Y29866D01*
X15359Y29939D01*
X15286Y29987D01*
X15200Y30004D01*
X15114Y29987D01*
X15041Y29939D01*
X14993Y29866D01*
X14976Y29780D01*
Y29220D01*
X14993Y29134D01*
X15041Y29061D01*
X15057Y29051D01*
Y28900D01*
X14850D01*
Y28700D01*
Y28500D01*
X14949D01*
X14968Y28454D01*
X14807Y28293D01*
X13759D01*
X13598Y28454D01*
X13617Y28500D01*
X14050D01*
Y28700D01*
Y28900D01*
X13843D01*
Y29051D01*
X13859Y29061D01*
X13907Y29134D01*
X13924Y29220D01*
Y29780D01*
X13907Y29866D01*
X13859Y29939D01*
X13786Y29987D01*
X13700Y30004D01*
X13614Y29987D01*
X13541Y29939D01*
X13532Y29925D01*
X13482Y29920D01*
X13322Y30079D01*
Y32520D01*
X13322Y32520D01*
X13312Y32575D01*
X13281Y32621D01*
X12917Y32985D01*
X12871Y33016D01*
X12868Y33016D01*
Y33114D01*
X12915Y33133D01*
X13500Y32548D01*
Y32400D01*
X13522D01*
Y32109D01*
X13493Y32066D01*
X13476Y31980D01*
Y31420D01*
X13493Y31334D01*
X13541Y31261D01*
X13614Y31213D01*
X13700Y31196D01*
X13786Y31213D01*
X13859Y31261D01*
X13907Y31334D01*
X13924Y31420D01*
Y31980D01*
X13907Y32066D01*
X13878Y32109D01*
Y32400D01*
X14050D01*
Y32600D01*
Y32800D01*
X13752D01*
X12926Y33626D01*
X12868Y33665D01*
X12800Y33678D01*
X12771D01*
X12728Y33707D01*
X12642Y33724D01*
D02*
G37*
G36*
X10850Y31645D02*
Y31280D01*
X11491D01*
Y31645D01*
X10850D01*
D02*
G37*
G36*
X26346Y35550D02*
X25846D01*
Y35050D01*
X26248D01*
X27107Y34191D01*
Y32050D01*
X27107Y32050D01*
X27118Y31995D01*
X27149Y31949D01*
X27707Y31391D01*
X27753Y31360D01*
X27808Y31349D01*
X27835Y31312D01*
X27835Y31239D01*
X27800Y31204D01*
X27450D01*
X27450Y31204D01*
X27372Y31188D01*
X27330Y31160D01*
X27314Y31157D01*
X27241Y31109D01*
X27193Y31036D01*
X27176Y30950D01*
X27193Y30864D01*
X27241Y30791D01*
X27314Y30743D01*
X27400Y30726D01*
X27486Y30743D01*
X27559Y30791D01*
X27562Y30796D01*
X27835D01*
Y30762D01*
X28665D01*
Y31204D01*
X28665Y31238D01*
X28665Y31288D01*
Y31730D01*
X27835D01*
Y31730D01*
X27790Y31711D01*
X27393Y32109D01*
Y34250D01*
X27393Y34250D01*
X27382Y34305D01*
X27351Y34351D01*
X27351Y34351D01*
X26351Y35351D01*
X26346Y35354D01*
Y35550D01*
D02*
G37*
G36*
X11491Y31180D02*
X10850D01*
Y30815D01*
X11491D01*
Y31180D01*
D02*
G37*
G36*
X19100Y30302D02*
X19023Y30287D01*
X18957Y30243D01*
X18913Y30177D01*
X18898Y30100D01*
X18913Y30023D01*
X18957Y29957D01*
X19023Y29913D01*
X19100Y29898D01*
X19177Y29913D01*
X19243Y29957D01*
X19287Y30023D01*
X19302Y30100D01*
X19287Y30177D01*
X19243Y30243D01*
X19177Y30287D01*
X19100Y30302D01*
D02*
G37*
G36*
X14750Y29994D02*
Y29550D01*
X14924D01*
Y29780D01*
X14907Y29866D01*
X14859Y29939D01*
X14786Y29987D01*
X14750Y29994D01*
D02*
G37*
G36*
X14250D02*
Y29550D01*
X14424D01*
Y29780D01*
X14407Y29866D01*
X14359Y29939D01*
X14286Y29987D01*
X14250Y29994D01*
D02*
G37*
G36*
X14150D02*
X14114Y29987D01*
X14041Y29939D01*
X13993Y29866D01*
X13976Y29780D01*
Y29550D01*
X14150D01*
Y29994D01*
D02*
G37*
G36*
X14650D02*
X14614Y29987D01*
X14541Y29939D01*
X14493Y29866D01*
X14476Y29780D01*
Y29550D01*
X14650D01*
Y29994D01*
D02*
G37*
G36*
X19150Y29297D02*
X18650D01*
Y29277D01*
X18600Y29242D01*
X18550Y29252D01*
X18473Y29237D01*
X18407Y29193D01*
X18363Y29127D01*
X18348Y29050D01*
X18363Y28973D01*
X18407Y28907D01*
X18473Y28863D01*
X18550Y28848D01*
X18600Y28858D01*
X18650Y28823D01*
Y28797D01*
X18757D01*
Y28647D01*
X18650D01*
Y28147D01*
X19150D01*
Y28647D01*
X19043D01*
Y28797D01*
X19150D01*
Y29297D01*
D02*
G37*
G36*
X19750D02*
X19550D01*
Y29097D01*
X19750D01*
Y29297D01*
D02*
G37*
G36*
X19450D02*
X19250D01*
Y29097D01*
X19450D01*
Y29297D01*
D02*
G37*
G36*
X17684Y29225D02*
X17184D01*
Y29137D01*
X17134Y29095D01*
X17100Y29102D01*
X17023Y29087D01*
X16957Y29043D01*
X16913Y28977D01*
X16898Y28900D01*
X16913Y28823D01*
X16957Y28757D01*
X17023Y28713D01*
X17100Y28698D01*
X17177Y28713D01*
X17196Y28725D01*
X17292D01*
Y28647D01*
X17200D01*
Y28147D01*
X17700D01*
Y28647D01*
X17577D01*
Y28725D01*
X17684D01*
Y29225D01*
D02*
G37*
G36*
X21865Y29280D02*
X21665D01*
Y29080D01*
X21865D01*
Y29280D01*
D02*
G37*
G36*
X21565D02*
X21365D01*
Y29080D01*
X21565D01*
Y29280D01*
D02*
G37*
G36*
X23200Y29250D02*
X23000D01*
Y29050D01*
X23200D01*
Y29250D01*
D02*
G37*
G36*
X22900D02*
X22700D01*
Y29050D01*
X22900D01*
Y29250D01*
D02*
G37*
G36*
X18284Y29225D02*
X18084D01*
Y29025D01*
X18284D01*
Y29225D01*
D02*
G37*
G36*
X17984D02*
X17784D01*
Y29025D01*
X17984D01*
Y29225D01*
D02*
G37*
G36*
X14924Y29450D02*
X14750D01*
Y29006D01*
X14786Y29013D01*
X14859Y29061D01*
X14907Y29134D01*
X14924Y29220D01*
Y29450D01*
D02*
G37*
G36*
X14424D02*
X14250D01*
Y29006D01*
X14286Y29013D01*
X14359Y29061D01*
X14407Y29134D01*
X14424Y29220D01*
Y29450D01*
D02*
G37*
G36*
X14150D02*
X13976D01*
Y29220D01*
X13993Y29134D01*
X14041Y29061D01*
X14114Y29013D01*
X14150Y29006D01*
Y29450D01*
D02*
G37*
G36*
X14650D02*
X14476D01*
Y29220D01*
X14493Y29134D01*
X14541Y29061D01*
X14614Y29013D01*
X14650Y29006D01*
Y29450D01*
D02*
G37*
G36*
X19750Y28997D02*
X19550D01*
Y28797D01*
X19750D01*
Y28997D01*
D02*
G37*
G36*
X19450D02*
X19250D01*
Y28797D01*
X19450D01*
Y28997D01*
D02*
G37*
G36*
X21865Y28980D02*
X21665D01*
Y28780D01*
X21865D01*
Y28980D01*
D02*
G37*
G36*
X21565D02*
X21365D01*
Y28780D01*
X21565D01*
Y28980D01*
D02*
G37*
G36*
X23200Y28950D02*
X23000D01*
Y28750D01*
X23200D01*
Y28950D01*
D02*
G37*
G36*
X22900D02*
X22700D01*
Y28750D01*
X22900D01*
Y28950D01*
D02*
G37*
G36*
X14750Y28900D02*
X14600D01*
Y28750D01*
X14750D01*
Y28900D01*
D02*
G37*
G36*
X14300D02*
X14150D01*
Y28750D01*
X14300D01*
Y28900D01*
D02*
G37*
G36*
X18284Y28925D02*
X18084D01*
Y28725D01*
X18284D01*
Y28925D01*
D02*
G37*
G36*
X17984D02*
X17784D01*
Y28725D01*
X17984D01*
Y28925D01*
D02*
G37*
G36*
X14750Y28650D02*
X14600D01*
Y28500D01*
X14750D01*
Y28650D01*
D02*
G37*
G36*
X14300D02*
X14150D01*
Y28500D01*
X14300D01*
Y28650D01*
D02*
G37*
G36*
X19750Y28647D02*
X19250D01*
Y28147D01*
X19297D01*
X19324Y28097D01*
X19310Y28077D01*
X19295Y28000D01*
X19310Y27923D01*
X19354Y27857D01*
X19420Y27813D01*
X19497Y27798D01*
X19575Y27813D01*
X19640Y27857D01*
X19684Y27923D01*
X19700Y28000D01*
X19684Y28077D01*
X19671Y28097D01*
X19697Y28147D01*
X19750D01*
Y28647D01*
D02*
G37*
G36*
X21050Y32950D02*
X20550D01*
Y32450D01*
X21050D01*
Y32567D01*
X24617D01*
X25092Y32092D01*
X25135Y32063D01*
X29050Y28148D01*
Y27650D01*
X29750D01*
Y28350D01*
X29252D01*
X25337Y32265D01*
X25308Y32308D01*
X24788Y32828D01*
X24739Y32861D01*
X24680Y32873D01*
X21050D01*
Y32950D01*
D02*
G37*
G36*
X21475Y26897D02*
Y26450D01*
X21828D01*
Y26500D01*
X21815Y26604D01*
X21774Y26702D01*
X21710Y26785D01*
X21627Y26849D01*
X21529Y26890D01*
X21475Y26897D01*
D02*
G37*
G36*
X21375D02*
X21321Y26890D01*
X21223Y26849D01*
X21140Y26785D01*
X21076Y26702D01*
X21035Y26604D01*
X21022Y26500D01*
Y26450D01*
X21375D01*
Y26897D01*
D02*
G37*
G36*
X15950D02*
Y26450D01*
X16303D01*
Y26500D01*
X16290Y26604D01*
X16249Y26702D01*
X16185Y26785D01*
X16102Y26849D01*
X16004Y26890D01*
X15950Y26897D01*
D02*
G37*
G36*
X15850D02*
X15796Y26890D01*
X15698Y26849D01*
X15615Y26785D01*
X15551Y26702D01*
X15510Y26604D01*
X15497Y26500D01*
Y26450D01*
X15850D01*
Y26897D01*
D02*
G37*
G36*
X29450Y26346D02*
Y26050D01*
X29746D01*
X29741Y26091D01*
X29706Y26177D01*
X29650Y26250D01*
X29577Y26306D01*
X29491Y26341D01*
X29450Y26346D01*
D02*
G37*
G36*
X29350D02*
X29309Y26341D01*
X29223Y26306D01*
X29150Y26250D01*
X29094Y26177D01*
X29059Y26091D01*
X29054Y26050D01*
X29350D01*
Y26346D01*
D02*
G37*
G36*
X21828Y26350D02*
X21475D01*
Y25903D01*
X21529Y25910D01*
X21627Y25951D01*
X21710Y26015D01*
X21774Y26098D01*
X21815Y26196D01*
X21828Y26300D01*
Y26350D01*
D02*
G37*
G36*
X21375D02*
X21022D01*
Y26300D01*
X21035Y26196D01*
X21076Y26098D01*
X21140Y26015D01*
X21223Y25951D01*
X21321Y25910D01*
X21375Y25903D01*
Y26350D01*
D02*
G37*
G36*
X16303D02*
X15950D01*
Y25903D01*
X16004Y25910D01*
X16102Y25951D01*
X16185Y26015D01*
X16249Y26098D01*
X16290Y26196D01*
X16303Y26300D01*
Y26350D01*
D02*
G37*
G36*
X15850D02*
X15497D01*
Y26300D01*
X15510Y26196D01*
X15551Y26098D01*
X15615Y26015D01*
X15698Y25951D01*
X15796Y25910D01*
X15850Y25903D01*
Y26350D01*
D02*
G37*
G36*
X24825Y26900D02*
X24025D01*
Y25900D01*
X24825D01*
Y26900D01*
D02*
G37*
G36*
X19300D02*
X18500D01*
Y25900D01*
X19300D01*
Y26900D01*
D02*
G37*
G36*
X23227Y28695D02*
X22727D01*
Y28195D01*
X22834D01*
Y26848D01*
X22834Y26848D01*
X22845Y26794D01*
X22876Y26747D01*
X23033Y26590D01*
X23022Y26500D01*
Y26300D01*
X23035Y26196D01*
X23076Y26098D01*
X23140Y26015D01*
X23223Y25951D01*
X23321Y25910D01*
X23425Y25897D01*
X23529Y25910D01*
X23627Y25951D01*
X23710Y26015D01*
X23774Y26098D01*
X23815Y26196D01*
X23828Y26300D01*
Y26500D01*
X23815Y26604D01*
X23774Y26702D01*
X23710Y26785D01*
X23627Y26849D01*
X23529Y26890D01*
X23425Y26903D01*
X23321Y26890D01*
X23223Y26849D01*
X23197Y26830D01*
X23119Y26907D01*
Y28195D01*
X23227D01*
Y28695D01*
D02*
G37*
G36*
X21865Y28697D02*
X21365D01*
Y28197D01*
X21472D01*
Y27210D01*
X21472Y27210D01*
X21483Y27155D01*
X21514Y27109D01*
X22033Y26590D01*
X22022Y26500D01*
Y26300D01*
X22035Y26196D01*
X22076Y26098D01*
X22140Y26015D01*
X22223Y25951D01*
X22321Y25910D01*
X22425Y25897D01*
X22529Y25910D01*
X22627Y25951D01*
X22710Y26015D01*
X22774Y26098D01*
X22815Y26196D01*
X22828Y26300D01*
Y26500D01*
X22815Y26604D01*
X22774Y26702D01*
X22710Y26785D01*
X22627Y26849D01*
X22529Y26890D01*
X22425Y26903D01*
X22321Y26890D01*
X22223Y26849D01*
X22197Y26830D01*
X21758Y27269D01*
Y28197D01*
X21865D01*
Y28697D01*
D02*
G37*
G36*
X18300Y28647D02*
X17800D01*
Y28147D01*
X17907D01*
Y26910D01*
X17900Y26903D01*
X17796Y26890D01*
X17698Y26849D01*
X17615Y26785D01*
X17551Y26702D01*
X17510Y26604D01*
X17497Y26500D01*
Y26300D01*
X17510Y26196D01*
X17551Y26098D01*
X17615Y26015D01*
X17698Y25951D01*
X17796Y25910D01*
X17900Y25897D01*
X18004Y25910D01*
X18102Y25951D01*
X18185Y26015D01*
X18249Y26098D01*
X18290Y26196D01*
X18303Y26300D01*
Y26500D01*
X18290Y26604D01*
X18249Y26702D01*
X18193Y26776D01*
Y28147D01*
X18300D01*
Y28647D01*
D02*
G37*
G36*
X16900Y28252D02*
X16823Y28237D01*
X16757Y28193D01*
X16713Y28127D01*
X16698Y28050D01*
X16713Y27973D01*
X16757Y27907D01*
X16757Y27907D01*
Y26874D01*
X16698Y26849D01*
X16615Y26785D01*
X16551Y26702D01*
X16510Y26604D01*
X16497Y26500D01*
Y26300D01*
X16510Y26196D01*
X16551Y26098D01*
X16615Y26015D01*
X16698Y25951D01*
X16796Y25910D01*
X16900Y25897D01*
X17004Y25910D01*
X17102Y25951D01*
X17185Y26015D01*
X17249Y26098D01*
X17290Y26196D01*
X17303Y26300D01*
Y26500D01*
X17290Y26604D01*
X17249Y26702D01*
X17185Y26785D01*
X17102Y26849D01*
X17043Y26874D01*
Y27907D01*
X17043Y27907D01*
X17087Y27973D01*
X17102Y28050D01*
X17087Y28127D01*
X17043Y28193D01*
X16977Y28237D01*
X16900Y28252D01*
D02*
G37*
G36*
X26950Y27194D02*
X26815Y27181D01*
X26684Y27141D01*
X26564Y27077D01*
X26459Y26991D01*
X26373Y26886D01*
X26309Y26766D01*
X26269Y26635D01*
X26256Y26500D01*
X26269Y26365D01*
X26309Y26234D01*
X26373Y26114D01*
X26459Y26009D01*
X26564Y25923D01*
X26684Y25859D01*
X26815Y25819D01*
X26950Y25806D01*
X27085Y25819D01*
X27216Y25859D01*
X27336Y25923D01*
X27441Y26009D01*
X27527Y26114D01*
X27591Y26234D01*
X27631Y26365D01*
X27644Y26500D01*
X27631Y26635D01*
X27591Y26766D01*
X27527Y26886D01*
X27441Y26991D01*
X27336Y27077D01*
X27216Y27141D01*
X27085Y27181D01*
X26950Y27194D01*
D02*
G37*
G36*
X29746Y25950D02*
X29450D01*
Y25654D01*
X29491Y25659D01*
X29577Y25694D01*
X29650Y25750D01*
X29706Y25823D01*
X29741Y25909D01*
X29746Y25950D01*
D02*
G37*
G36*
X29350D02*
X29054D01*
X29059Y25909D01*
X29094Y25823D01*
X29150Y25750D01*
X29223Y25694D01*
X29309Y25659D01*
X29350Y25654D01*
Y25950D01*
D02*
G37*
%LPD*%
D10*
X16850Y46100D02*
X16900Y46150D01*
X16100Y46100D02*
X16850D01*
X15100Y46700D02*
Y48850D01*
X16100Y45450D02*
Y46100D01*
X15100Y45350D02*
Y46100D01*
X27300Y42050D02*
X28200D01*
X26900Y41650D02*
X27300Y42050D01*
X26900Y39850D02*
Y41650D01*
X20615Y31900D02*
X24500D01*
X20100Y32415D02*
X20615Y31900D01*
X20100Y32415D02*
Y32700D01*
X13500Y43350D02*
X15416D01*
X19494Y39272D01*
X15800Y43250D02*
X16000Y43050D01*
X15800Y43250D02*
Y44200D01*
X28200Y42050D02*
X28250Y42100D01*
X26950Y38950D02*
Y39800D01*
X26900Y39850D02*
X26950Y39800D01*
X27800Y40863D02*
X28250Y41313D01*
X27800Y39450D02*
Y40863D01*
Y37850D02*
Y39450D01*
X27400Y37450D02*
X27800Y37850D01*
X26950Y37450D02*
X27400D01*
X15250Y33300D02*
Y34844D01*
X15016Y44800D02*
X15100Y44884D01*
Y45350D01*
X11942Y43402D02*
X12848D01*
X12900Y43350D01*
X14300Y45350D02*
X15100D01*
X15800Y44800D02*
Y45650D01*
X13750Y34000D02*
Y34844D01*
X26500Y43550D02*
Y44446D01*
X26496Y44450D02*
X26500Y44446D01*
X20800Y32700D02*
X20820Y32720D01*
X24680D01*
X25200Y32200D01*
X26250Y36100D02*
X28250D01*
X26150Y36200D02*
X26250Y36100D01*
D12*
X20485Y38815D02*
Y39385D01*
X19500Y28000D02*
Y28397D01*
X22977Y26848D02*
X23425Y26400D01*
X22977Y26848D02*
Y28445D01*
X21015Y29030D02*
Y30235D01*
X19497Y31753D02*
X21015Y30235D01*
X19497Y31753D02*
Y35075D01*
X22377Y28445D02*
Y29373D01*
X19697Y32053D02*
Y35075D01*
Y32053D02*
X22377Y29373D01*
X21615Y27210D02*
X22425Y26400D01*
X21615Y27210D02*
Y28447D01*
X21015D02*
Y29030D01*
X18900Y28397D02*
Y29047D01*
X18553D02*
X18900D01*
X18550Y29050D02*
X18553Y29047D01*
X16900Y26400D02*
Y28050D01*
X19497Y28000D02*
X19500D01*
X17900Y26400D02*
X18050Y26550D01*
Y28397D01*
X17434Y28413D02*
X17450Y28397D01*
X17434Y28413D02*
Y28975D01*
X17359Y28900D02*
X17434Y28975D01*
X17100Y28900D02*
X17359D01*
X14716Y27166D02*
X18200Y30650D01*
X14800Y27600D02*
X17300Y30100D01*
X11900Y27166D02*
X14716D01*
X18200Y30650D02*
Y32100D01*
X17300Y30100D02*
Y32100D01*
X11958Y27600D02*
X14800D01*
X15200Y28484D02*
Y28700D01*
X14866Y28150D02*
X15200Y28484D01*
X13700Y28150D02*
X14866D01*
X12820Y29030D02*
X13700Y28150D01*
X15200Y28700D02*
Y29500D01*
X27250Y32050D02*
Y34250D01*
X26250Y35250D02*
X27250Y34250D01*
X26146Y35250D02*
X26250D01*
X27808Y31492D02*
X28250D01*
X27250Y32050D02*
X27808Y31492D01*
X16100Y46700D02*
Y48850D01*
X26834Y44450D02*
X27350Y44966D01*
X26496Y44450D02*
X26834D01*
X25200Y44800D02*
X26650D01*
X25000Y44600D02*
X25200Y44800D01*
X25000Y44400D02*
Y44600D01*
X21653Y38815D02*
Y39063D01*
X22583Y39400D02*
X24350Y41167D01*
X21990Y39400D02*
X22583D01*
X21653Y39063D02*
X21990Y39400D01*
X22600Y39700D02*
X24100Y41200D01*
X22036Y39700D02*
X22600D01*
X21473Y39137D02*
X22036Y39700D01*
X13700Y28700D02*
Y29500D01*
X13180Y30020D02*
Y32520D01*
Y30020D02*
X13700Y29500D01*
X12816Y32884D02*
X13180Y32520D01*
X11883Y32884D02*
X12816D01*
X13550Y33300D02*
X15250D01*
X11883Y34967D02*
X13550Y33300D01*
X11883Y34967D02*
Y35580D01*
X12757Y36368D02*
X13750Y35375D01*
Y34844D02*
Y35375D01*
X11883Y36368D02*
X12757D01*
X15650Y36250D02*
X16050Y36650D01*
X15068Y36250D02*
X15650D01*
X14800Y36518D02*
X15068Y36250D01*
X14600Y37850D02*
X15494D01*
X14250Y37500D02*
X14600Y37850D01*
X14250Y37044D02*
Y37500D01*
X15494Y37850D02*
X16497Y36847D01*
X18710D01*
X16050Y36650D02*
X18710D01*
X14800Y36518D02*
Y36994D01*
X18472Y38028D02*
X18710D01*
X18200Y38300D02*
X18472Y38028D01*
X18200Y38300D02*
Y39700D01*
X18269Y37831D02*
X18710D01*
X17700Y38400D02*
X18269Y37831D01*
X17700Y38400D02*
Y39700D01*
X17884Y37900D02*
X18150Y37634D01*
X18710D01*
X17100Y37900D02*
X17884D01*
X17713Y37437D02*
X18710D01*
X17550Y37600D02*
X17713Y37437D01*
X16000Y43050D02*
X19694Y39356D01*
X20485Y39385D02*
X20800Y39700D01*
X22450Y38028D02*
X22461Y38039D01*
X17300Y32700D02*
Y35700D01*
X16506Y36256D02*
X18710D01*
X16300Y36050D02*
X16506Y36256D01*
X16300Y32594D02*
Y36050D01*
X15950Y36150D02*
X16253Y36453D01*
X15950Y32800D02*
Y36150D01*
X24692Y36550D02*
X24700D01*
X19694Y38815D02*
Y39356D01*
X12192Y47758D02*
X13000Y46950D01*
X11900Y47758D02*
X12192D01*
X21025Y46600D02*
Y48850D01*
X21473Y38823D02*
Y39137D01*
X20925Y46500D02*
X21025Y46600D01*
X20700Y40425D02*
X21500D01*
X16056Y32350D02*
X16300Y32594D01*
X15050Y32350D02*
X16056D01*
X15850Y32700D02*
X15950Y32800D01*
X14850Y32700D02*
X15850D01*
X14700Y32000D02*
X15050Y32350D01*
X14200Y32050D02*
X14850Y32700D01*
X11900Y27658D02*
X11958Y27600D01*
X14700Y31700D02*
Y32000D01*
X14200Y31700D02*
Y32050D01*
X14750Y37044D02*
X14800Y36994D01*
X24350Y41167D02*
Y44250D01*
X25100Y45000D01*
X25555D01*
X26200Y45645D01*
X26250Y45695D01*
Y46610D01*
X21466Y38815D02*
X21473Y38823D01*
X24100Y41200D02*
Y44300D01*
X24850Y45050D01*
Y45645D01*
Y46700D01*
X15250Y34844D02*
X15300Y34794D01*
X25200Y32200D02*
X29400Y28000D01*
X27604Y45754D02*
X28225D01*
X25450Y46700D02*
X26950Y48200D01*
Y48850D01*
X22025Y46900D02*
Y48850D01*
X16253Y36453D02*
X18819D01*
X17300Y35700D02*
X17659Y36059D01*
X18710D01*
X18200Y32700D02*
Y35353D01*
X18710Y35863D01*
X24602Y36459D02*
X24692Y36550D01*
X20277Y38823D02*
X20285Y38815D01*
X20277Y38823D02*
Y39700D01*
X11883Y32096D02*
X12820Y31159D01*
Y29030D02*
Y31159D01*
X27600Y42100D02*
X28250D01*
X19494Y38815D02*
Y39272D01*
X25500Y40645D02*
Y41350D01*
X26000Y40862D02*
Y41350D01*
X22461Y38039D02*
X22894D01*
X25500Y40645D01*
X22977Y37839D02*
X26000Y40862D01*
X22450Y37839D02*
X22977D01*
X22025Y46900D02*
X22425Y46500D01*
X25000Y43550D02*
Y44400D01*
X26650Y44800D02*
X27604Y45754D01*
X27350Y44966D02*
X28225D01*
X26096Y35300D02*
X26146Y35250D01*
X25096Y35700D02*
X25496Y35300D01*
X22450Y36059D02*
X24737D01*
X25096Y35700D01*
X20088Y33312D02*
Y35075D01*
Y33312D02*
X20100Y33300D01*
X20678Y33422D02*
Y35075D01*
Y33422D02*
X20800Y33300D01*
X24500Y31900D02*
X29400Y27000D01*
X25491Y36259D02*
X25550Y36200D01*
X22450Y36259D02*
X25491D01*
X24700Y36550D02*
X24900Y36750D01*
X27226D01*
X29158Y38681D01*
X22450Y36459D02*
X24602D01*
X22450Y37634D02*
X23234D01*
X24050Y38450D01*
X24750D01*
X23534Y37434D02*
X24050Y37950D01*
X24750D01*
X22450Y37434D02*
X23534D01*
X27950Y47710D02*
Y48850D01*
X26850Y46610D02*
X27950Y47710D01*
D18*
X17972Y44845D02*
D03*
Y45245D02*
D03*
X23100Y45000D02*
D03*
Y45400D02*
D03*
X22550Y45000D02*
D03*
Y45400D02*
D03*
X13700Y38600D02*
D03*
Y39000D02*
D03*
X18522Y44845D02*
D03*
Y45245D02*
D03*
D19*
X15016Y44800D02*
D03*
Y44200D02*
D03*
X22055Y45000D02*
D03*
Y45600D02*
D03*
X21466Y45000D02*
D03*
Y45600D02*
D03*
X15100Y46100D02*
D03*
Y46700D02*
D03*
X16100Y46100D02*
D03*
Y46700D02*
D03*
X17300Y32100D02*
D03*
Y32700D02*
D03*
X16900Y46150D02*
D03*
Y46750D02*
D03*
X17422Y45443D02*
D03*
Y44843D02*
D03*
X18200Y32100D02*
D03*
Y32700D02*
D03*
X15800Y44800D02*
D03*
Y44200D02*
D03*
X20800Y33300D02*
D03*
Y32700D02*
D03*
X20100Y33300D02*
D03*
Y32700D02*
D03*
D20*
X22055Y43725D02*
D03*
X22645D02*
D03*
X22055Y42825D02*
D03*
X22645D02*
D03*
D21*
X22700Y41925D02*
D03*
X22100D02*
D03*
X24850Y46700D02*
D03*
X25450D02*
D03*
X26200Y45645D02*
D03*
X26800D02*
D03*
X24850D02*
D03*
X25450D02*
D03*
X22377Y28445D02*
D03*
X22977D02*
D03*
X17450Y28397D02*
D03*
X18050D02*
D03*
X21015Y28447D02*
D03*
X21615D02*
D03*
X18900Y28397D02*
D03*
X19500D02*
D03*
X21015Y29030D02*
D03*
X21615D02*
D03*
X22350Y29000D02*
D03*
X22950D02*
D03*
X18900Y29047D02*
D03*
X19500D02*
D03*
X17434Y28975D02*
D03*
X18034D02*
D03*
X26250Y46610D02*
D03*
X26850D02*
D03*
X20700Y40425D02*
D03*
X20100D02*
D03*
X21500D02*
D03*
X22100D02*
D03*
X13500Y43350D02*
D03*
X12900D02*
D03*
X20925Y46500D02*
D03*
X21475D02*
D03*
X22425D02*
D03*
X22975D02*
D03*
X26096Y35300D02*
D03*
X25496D02*
D03*
X26150Y36200D02*
D03*
X25550D02*
D03*
D22*
X20650Y42825D02*
D03*
Y43730D02*
D03*
Y41919D02*
D03*
D23*
X18485Y42825D02*
D03*
D24*
X28225Y44966D02*
D03*
Y45754D02*
D03*
X28250Y41313D02*
D03*
Y42100D02*
D03*
X11883Y36368D02*
D03*
Y35580D02*
D03*
Y32884D02*
D03*
Y32096D02*
D03*
D25*
X29308Y44100D02*
D03*
Y46620D02*
D03*
X29333Y40446D02*
D03*
Y42966D02*
D03*
X10800Y37234D02*
D03*
Y34714D02*
D03*
Y33750D02*
D03*
Y31230D02*
D03*
D26*
X26496Y44450D02*
D03*
X26096D02*
D03*
X25400Y44400D02*
D03*
X25000D02*
D03*
X13700Y32600D02*
D03*
X14100D02*
D03*
X15650Y33300D02*
D03*
X15250D02*
D03*
X13750Y34000D02*
D03*
X14150D02*
D03*
X14800Y28700D02*
D03*
X15200D02*
D03*
X13700D02*
D03*
X14100D02*
D03*
X27300Y39850D02*
D03*
X26900D02*
D03*
X27800Y39450D02*
D03*
X28200D02*
D03*
D27*
X26000Y41350D02*
D03*
X25500Y43550D02*
D03*
X25000D02*
D03*
X26500D02*
D03*
X26000D02*
D03*
X25000Y41350D02*
D03*
X25500D02*
D03*
X26500D02*
D03*
X14200Y31700D02*
D03*
X14700Y29500D02*
D03*
X15200D02*
D03*
X13700D02*
D03*
X14200D02*
D03*
X15200Y31700D02*
D03*
X14700D02*
D03*
X13700D02*
D03*
X14250Y37044D02*
D03*
X14750Y34844D02*
D03*
X15250D02*
D03*
X13750D02*
D03*
X14250D02*
D03*
X15250Y37044D02*
D03*
X14750D02*
D03*
X13750D02*
D03*
D28*
X11900Y27658D02*
D03*
Y27166D02*
D03*
Y28150D02*
D03*
Y28642D02*
D03*
Y48250D02*
D03*
Y47758D02*
D03*
X11942Y43894D02*
D03*
Y43402D02*
D03*
X28250Y31000D02*
D03*
Y31492D02*
D03*
Y35608D02*
D03*
Y36100D02*
D03*
D29*
X10758Y29744D02*
D03*
Y26063D02*
D03*
Y49352D02*
D03*
Y46656D02*
D03*
X10800Y44997D02*
D03*
Y42300D02*
D03*
X29392Y29898D02*
D03*
Y32594D02*
D03*
Y34506D02*
D03*
Y37202D02*
D03*
D30*
X15800Y38596D02*
D03*
Y40446D02*
D03*
D31*
X18710Y35863D02*
D03*
Y36059D02*
D03*
Y36256D02*
D03*
Y36453D02*
D03*
Y36650D02*
D03*
Y36847D02*
D03*
Y38028D02*
D03*
X22450D02*
D03*
Y37831D02*
D03*
Y37634D02*
D03*
Y37437D02*
D03*
Y37241D02*
D03*
Y37044D02*
D03*
Y36847D02*
D03*
Y36650D02*
D03*
Y36453D02*
D03*
Y36256D02*
D03*
Y36059D02*
D03*
Y35863D02*
D03*
X18710Y37437D02*
D03*
Y37634D02*
D03*
Y37831D02*
D03*
Y37241D02*
D03*
Y37044D02*
D03*
D32*
X19497Y38815D02*
D03*
X19694D02*
D03*
X19891D02*
D03*
X20088D02*
D03*
X20678D02*
D03*
X20875D02*
D03*
X21072D02*
D03*
X21269D02*
D03*
X21466D02*
D03*
X21663D02*
D03*
Y35075D02*
D03*
X21466D02*
D03*
X21269D02*
D03*
X21072D02*
D03*
X20875D02*
D03*
X20678D02*
D03*
X20482D02*
D03*
X20285D02*
D03*
X20088D02*
D03*
X19891D02*
D03*
X19694D02*
D03*
X20482Y38815D02*
D03*
X20285D02*
D03*
D33*
X19497Y35075D02*
D03*
D34*
X24750Y37950D02*
D03*
X26950Y38450D02*
D03*
Y38950D02*
D03*
Y37450D02*
D03*
Y37950D02*
D03*
X24750Y38950D02*
D03*
Y38450D02*
D03*
Y37450D02*
D03*
D61*
X23000Y45000D02*
X23050Y44950D01*
X15996Y38400D02*
X16046Y38450D01*
X18485Y44808D02*
X18520Y44843D01*
X18485Y42825D02*
Y44808D01*
X22850Y40850D02*
X23450Y41450D01*
Y44650D01*
X23100Y45000D02*
X23450Y44650D01*
X22550Y45000D02*
X23000D01*
X22055D02*
X22550D01*
X21466D02*
X22055D01*
Y43725D02*
Y45000D01*
X23050Y44950D02*
X23100Y45000D01*
X26500Y40600D02*
Y41350D01*
X25950Y40050D02*
X26500Y40600D01*
X25950Y38059D02*
Y40050D01*
X25341Y37450D02*
X25950Y38059D01*
X24750Y37450D02*
X25341D01*
X13700Y37094D02*
X13750Y37044D01*
X13700Y37094D02*
Y38600D01*
X13250D02*
X13700D01*
X11650Y40200D02*
X13250Y38600D01*
X11050Y40200D02*
X11650D01*
X13700Y38600D02*
X13800D01*
X13804Y38596D02*
X15800D01*
X16046Y38450D02*
X16450D01*
X12800Y33500D02*
X13700Y32600D01*
X12642Y33500D02*
X12800D01*
X12656Y37044D02*
X13750D01*
X23600Y36950D02*
X24250D01*
X24750Y37450D01*
X13700Y31700D02*
Y32600D01*
X22100Y41400D02*
Y41925D01*
Y40425D02*
Y41400D01*
X22700D01*
X27400Y35650D02*
X27442Y35608D01*
X28250D01*
X20025Y44355D02*
Y48850D01*
X20650Y43730D02*
X22049D01*
X20025Y44355D02*
X20650Y43730D01*
Y42825D02*
X22055D01*
X15800Y38596D02*
X15996Y38400D01*
X11900Y28642D02*
X12642D01*
X22055Y41970D02*
X22100Y41925D01*
X22055Y41970D02*
Y42825D01*
X22049Y43730D02*
X22055Y43725D01*
X12600Y37100D02*
X12656Y37044D01*
X20025Y48850D02*
X20625Y49450D01*
X25350D01*
X25950Y48850D01*
X11900Y28150D02*
X13250D01*
X18485Y42825D02*
X20650D01*
X17600Y42050D02*
X17634D01*
X18409Y42825D01*
X18485D01*
D62*
X17422Y44843D02*
X18520D01*
X16900Y38095D02*
Y41450D01*
X16507Y37701D02*
X16900Y38095D01*
X16507Y37241D02*
Y37701D01*
X16500Y37234D02*
X16507Y37241D01*
D63*
X18710D01*
X16554Y37180D02*
X16690Y37044D01*
X18710D01*
D64*
X27450Y31000D02*
X28250D01*
X27400Y30950D02*
X27450Y31000D01*
X13800Y38600D02*
X13804Y38596D01*
D65*
X26950Y26500D02*
D03*
X13350Y26150D02*
D03*
D66*
X17100Y48850D02*
D03*
X15100D02*
D03*
X16100D02*
D03*
X23025D02*
D03*
X21025D02*
D03*
X22025D02*
D03*
X28950D02*
D03*
X26950D02*
D03*
X27950D02*
D03*
X15900Y26400D02*
D03*
X17900D02*
D03*
X16900D02*
D03*
X21425D02*
D03*
X23425D02*
D03*
X22425D02*
D03*
D67*
X14100Y48850D02*
D03*
X20025D02*
D03*
X25950D02*
D03*
X18900Y26400D02*
D03*
X24425D02*
D03*
D68*
X11050Y40200D02*
D03*
D69*
Y39200D02*
D03*
D70*
X29400Y26000D02*
D03*
Y27000D02*
D03*
D71*
Y28000D02*
D03*
D72*
X29650Y38681D02*
D03*
D73*
X29158D02*
D03*
D74*
X23750Y43550D02*
D03*
X27050Y43700D02*
D03*
X25600Y38500D02*
D03*
X26050Y37550D02*
D03*
X26650Y37050D02*
D03*
X27150Y36450D02*
D03*
X21550Y29600D02*
D03*
X20200Y28700D02*
D03*
X16650Y28500D02*
D03*
X16850Y31350D02*
D03*
X16800Y34250D02*
D03*
X18000Y46850D02*
D03*
X13350Y45550D02*
D03*
X16550Y43300D02*
D03*
X16600Y44550D02*
D03*
X15350Y43750D02*
D03*
X15700Y42250D02*
D03*
X15100Y42850D02*
D03*
X14600Y43750D02*
D03*
X17700Y43900D02*
D03*
X17150Y43500D02*
D03*
X19600Y42300D02*
D03*
Y43500D02*
D03*
X26250Y42300D02*
D03*
X25500Y42350D02*
D03*
X24400Y40500D02*
D03*
X27800Y29250D02*
D03*
X26750Y30150D02*
D03*
X25850Y31050D02*
D03*
X24600Y32300D02*
D03*
X23100Y32200D02*
D03*
X21450Y36100D02*
D03*
X20700Y36050D02*
D03*
X19850D02*
D03*
X21600Y37500D02*
D03*
X21500Y36750D02*
D03*
X20750Y36700D02*
D03*
X19900D02*
D03*
X20800Y37500D02*
D03*
X19850Y37550D02*
D03*
X14650Y30650D02*
D03*
X14050D02*
D03*
X11900Y29600D02*
D03*
X19100Y30100D02*
D03*
X20150Y30300D02*
D03*
X24200Y29217D02*
D03*
X18550Y29050D02*
D03*
X16900Y28050D02*
D03*
X19497Y28000D02*
D03*
X17100Y28900D02*
D03*
D75*
X16100Y45450D02*
D03*
X16450Y38450D02*
D03*
X12642Y33500D02*
D03*
X17550Y37600D02*
D03*
X17100Y37900D02*
D03*
X18699Y39045D02*
D03*
X24950Y34750D02*
D03*
X19350Y45950D02*
D03*
X23415Y47100D02*
D03*
X27900Y42850D02*
D03*
X27450Y44400D02*
D03*
X13000Y42550D02*
D03*
X12932Y44100D02*
D03*
X12600Y49650D02*
D03*
X17800Y46000D02*
D03*
X19200Y40850D02*
D03*
X18388Y41500D02*
D03*
X26175Y29553D02*
D03*
X23000Y30400D02*
D03*
X15900Y29217D02*
D03*
X11700Y30650D02*
D03*
X11850Y37500D02*
D03*
X14650Y39400D02*
D03*
X13600Y39950D02*
D03*
X13180Y40933D02*
D03*
X22850Y39045D02*
D03*
X23200Y33750D02*
D03*
X21750Y31200D02*
D03*
X24900Y33250D02*
D03*
X23350Y45900D02*
D03*
X29600Y41950D02*
D03*
X29500Y45550D02*
D03*
X13000Y44895D02*
D03*
X18850Y46700D02*
D03*
X16900Y45650D02*
D03*
X10450Y48200D02*
D03*
X11000Y43750D02*
D03*
X13800Y41500D02*
D03*
X10600Y36400D02*
D03*
Y32750D02*
D03*
X10800Y27850D02*
D03*
X16150Y31600D02*
D03*
X18900Y34550D02*
D03*
X19150Y31250D02*
D03*
X26900Y28600D02*
D03*
X29350Y31350D02*
D03*
X29500Y36150D02*
D03*
X26250Y33850D02*
D03*
X26900Y31492D02*
D03*
X26496Y32200D02*
D03*
X26810Y33300D02*
D03*
X26350Y34650D02*
D03*
X23900D02*
D03*
X22400Y34750D02*
D03*
X24040Y30900D02*
D03*
X22600Y31600D02*
D03*
X23600Y36950D02*
D03*
X20277Y39700D02*
D03*
X20800D02*
D03*
X13000Y46950D02*
D03*
X22700Y41400D02*
D03*
X27400Y35650D02*
D03*
X17700Y39700D02*
D03*
X22850Y40850D02*
D03*
X16500Y37234D02*
D03*
X12600Y37100D02*
D03*
X12642Y28642D02*
D03*
X27400Y30950D02*
D03*
X13250Y28150D02*
D03*
X18200Y39700D02*
D03*
X14300Y45350D02*
D03*
X15800Y45650D02*
D03*
X16900Y41450D02*
D03*
X17600Y42050D02*
D03*
M02*
