G04*
G04 #@! TF.GenerationSoftware,Altium Limited,Altium Designer,18.1.9 (240)*
G04*
G04 Layer_Color=128*
%FSLAX24Y24*%
%MOIN*%
G70*
G01*
G75*
%ADD77C,0.0020*%
D77*
X26359Y26500D02*
X27541D01*
X26950Y25909D02*
Y27091D01*
X12759Y26150D02*
X13941D01*
X13350Y25559D02*
Y26741D01*
X16925Y48850D02*
X17275D01*
X17100Y48675D02*
Y49025D01*
X13925Y48850D02*
X14275D01*
X14100Y48675D02*
Y49025D01*
X14925Y48850D02*
X15275D01*
X15100Y48675D02*
Y49025D01*
X15925Y48850D02*
X16275D01*
X16100Y48675D02*
Y49025D01*
X22850Y48850D02*
X23200D01*
X23025Y48675D02*
Y49025D01*
X19850Y48850D02*
X20200D01*
X20025Y48675D02*
Y49025D01*
X20850Y48850D02*
X21200D01*
X21025Y48675D02*
Y49025D01*
X21850Y48850D02*
X22200D01*
X22025Y48675D02*
Y49025D01*
X28775Y48850D02*
X29125D01*
X28950Y48675D02*
Y49025D01*
X25775Y48850D02*
X26125D01*
X25950Y48675D02*
Y49025D01*
X26775Y48850D02*
X27125D01*
X26950Y48675D02*
Y49025D01*
X27775Y48850D02*
X28125D01*
X27950Y48675D02*
Y49025D01*
X15725Y26400D02*
X16075D01*
X15900Y26225D02*
Y26575D01*
X18725Y26400D02*
X19075D01*
X18900Y26225D02*
Y26575D01*
X17725Y26400D02*
X18075D01*
X17900Y26225D02*
Y26575D01*
X16725Y26400D02*
X17075D01*
X16900Y26225D02*
Y26575D01*
X10875Y40200D02*
X11225D01*
X11050Y40025D02*
Y40375D01*
X10875Y39200D02*
X11225D01*
X11050Y39025D02*
Y39375D01*
X21250Y26400D02*
X21600D01*
X21425Y26225D02*
Y26575D01*
X24250Y26400D02*
X24600D01*
X24425Y26225D02*
Y26575D01*
X23250Y26400D02*
X23600D01*
X23425Y26225D02*
Y26575D01*
X22250Y26400D02*
X22600D01*
X22425Y26225D02*
Y26575D01*
X29240Y26000D02*
X29560D01*
X29400Y25840D02*
Y26160D01*
X29240Y27000D02*
X29560D01*
X29400Y26840D02*
Y27160D01*
X29240Y28000D02*
X29560D01*
X29400Y27840D02*
Y28160D01*
X29552Y38681D02*
X29748D01*
X29650Y38583D02*
Y38780D01*
X29059Y38681D02*
X29256D01*
X29158Y38583D02*
Y38780D01*
X23691Y43550D02*
X23809D01*
X23750Y43491D02*
Y43609D01*
X26991Y43700D02*
X27109D01*
X27050Y43641D02*
Y43759D01*
X25541Y38500D02*
X25659D01*
X25600Y38441D02*
Y38559D01*
X25991Y37550D02*
X26109D01*
X26050Y37491D02*
Y37609D01*
X26591Y37050D02*
X26709D01*
X26650Y36991D02*
Y37109D01*
X27091Y36450D02*
X27209D01*
X27150Y36391D02*
Y36509D01*
X21491Y29600D02*
X21609D01*
X21550Y29541D02*
Y29659D01*
X20141Y28700D02*
X20259D01*
X20200Y28641D02*
Y28759D01*
X16591Y28500D02*
X16709D01*
X16650Y28441D02*
Y28559D01*
X16791Y31350D02*
X16909D01*
X16850Y31291D02*
Y31409D01*
X16741Y34250D02*
X16859D01*
X16800Y34191D02*
Y34309D01*
X17941Y46850D02*
X18059D01*
X18000Y46791D02*
Y46909D01*
X13291Y45550D02*
X13409D01*
X13350Y45491D02*
Y45609D01*
X16491Y43300D02*
X16609D01*
X16550Y43241D02*
Y43359D01*
X16541Y44550D02*
X16659D01*
X16600Y44491D02*
Y44609D01*
X15291Y43750D02*
X15409D01*
X15350Y43691D02*
Y43809D01*
X15641Y42250D02*
X15759D01*
X15700Y42191D02*
Y42309D01*
X15041Y42850D02*
X15159D01*
X15100Y42791D02*
Y42909D01*
X14541Y43750D02*
X14659D01*
X14600Y43691D02*
Y43809D01*
X17641Y43900D02*
X17759D01*
X17700Y43841D02*
Y43959D01*
X17091Y43500D02*
X17209D01*
X17150Y43441D02*
Y43559D01*
X19541Y42300D02*
X19659D01*
X19600Y42241D02*
Y42359D01*
X19541Y43500D02*
X19659D01*
X19600Y43441D02*
Y43559D01*
X26191Y42300D02*
X26309D01*
X26250Y42241D02*
Y42359D01*
X25441Y42350D02*
X25559D01*
X25500Y42291D02*
Y42409D01*
X24341Y40500D02*
X24459D01*
X24400Y40441D02*
Y40559D01*
X27741Y29250D02*
X27859D01*
X27800Y29191D02*
Y29309D01*
X26691Y30150D02*
X26809D01*
X26750Y30091D02*
Y30209D01*
X25791Y31050D02*
X25909D01*
X25850Y30991D02*
Y31109D01*
X24541Y32300D02*
X24659D01*
X24600Y32241D02*
Y32359D01*
X23041Y32200D02*
X23159D01*
X23100Y32141D02*
Y32259D01*
X21391Y36100D02*
X21509D01*
X21450Y36041D02*
Y36159D01*
X20641Y36050D02*
X20759D01*
X20700Y35991D02*
Y36109D01*
X19791Y36050D02*
X19909D01*
X19850Y35991D02*
Y36109D01*
X21541Y37500D02*
X21659D01*
X21600Y37441D02*
Y37559D01*
X21441Y36750D02*
X21559D01*
X21500Y36691D02*
Y36809D01*
X20691Y36700D02*
X20809D01*
X20750Y36641D02*
Y36759D01*
X19841Y36700D02*
X19959D01*
X19900Y36641D02*
Y36759D01*
X20741Y37500D02*
X20859D01*
X20800Y37441D02*
Y37559D01*
X19791Y37550D02*
X19909D01*
X19850Y37491D02*
Y37609D01*
X14591Y30650D02*
X14709D01*
X14650Y30591D02*
Y30709D01*
X13991Y30650D02*
X14109D01*
X14050Y30591D02*
Y30709D01*
X11841Y29600D02*
X11959D01*
X11900Y29541D02*
Y29659D01*
X19041Y30100D02*
X19159D01*
X19100Y30041D02*
Y30159D01*
X20091Y30300D02*
X20209D01*
X20150Y30241D02*
Y30359D01*
X24141Y29217D02*
X24259D01*
X24200Y29158D02*
Y29277D01*
X18491Y29050D02*
X18609D01*
X18550Y28991D02*
Y29109D01*
X16841Y28050D02*
X16959D01*
X16900Y27991D02*
Y28109D01*
X19438Y28000D02*
X19556D01*
X19497Y27941D02*
Y28059D01*
X17041Y28900D02*
X17159D01*
X17100Y28841D02*
Y28959D01*
X16040Y45450D02*
X16160D01*
X16100Y45390D02*
Y45510D01*
X16390Y38450D02*
X16510D01*
X16450Y38390D02*
Y38510D01*
X12582Y33500D02*
X12702D01*
X12642Y33440D02*
Y33560D01*
X17490Y37600D02*
X17610D01*
X17550Y37540D02*
Y37660D01*
X17040Y37900D02*
X17160D01*
X17100Y37840D02*
Y37960D01*
X18639Y39045D02*
X18759D01*
X18699Y38985D02*
Y39105D01*
X24890Y34750D02*
X25010D01*
X24950Y34690D02*
Y34810D01*
X19290Y45950D02*
X19410D01*
X19350Y45890D02*
Y46010D01*
X23355Y47100D02*
X23475D01*
X23415Y47040D02*
Y47160D01*
X27840Y42850D02*
X27960D01*
X27900Y42790D02*
Y42910D01*
X27390Y44400D02*
X27510D01*
X27450Y44340D02*
Y44460D01*
X12940Y42550D02*
X13060D01*
X13000Y42490D02*
Y42610D01*
X12872Y44100D02*
X12992D01*
X12932Y44040D02*
Y44160D01*
X12540Y49650D02*
X12660D01*
X12600Y49590D02*
Y49710D01*
X17740Y46000D02*
X17860D01*
X17800Y45940D02*
Y46060D01*
X19140Y40850D02*
X19260D01*
X19200Y40790D02*
Y40910D01*
X18328Y41500D02*
X18448D01*
X18388Y41440D02*
Y41560D01*
X26115Y29553D02*
X26235D01*
X26175Y29493D02*
Y29613D01*
X22940Y30400D02*
X23060D01*
X23000Y30340D02*
Y30460D01*
X15840Y29217D02*
X15960D01*
X15900Y29157D02*
Y29277D01*
X11640Y30650D02*
X11760D01*
X11700Y30590D02*
Y30710D01*
X11790Y37500D02*
X11910D01*
X11850Y37440D02*
Y37560D01*
X14590Y39400D02*
X14710D01*
X14650Y39340D02*
Y39460D01*
X13540Y39950D02*
X13660D01*
X13600Y39890D02*
Y40010D01*
X13120Y40933D02*
X13240D01*
X13180Y40873D02*
Y40993D01*
X22790Y39045D02*
X22910D01*
X22850Y38985D02*
Y39105D01*
X23140Y33750D02*
X23260D01*
X23200Y33690D02*
Y33810D01*
X21690Y31200D02*
X21810D01*
X21750Y31140D02*
Y31260D01*
X24840Y33250D02*
X24960D01*
X24900Y33190D02*
Y33310D01*
X23290Y45900D02*
X23410D01*
X23350Y45840D02*
Y45960D01*
X29540Y41950D02*
X29660D01*
X29600Y41890D02*
Y42010D01*
X29440Y45550D02*
X29560D01*
X29500Y45490D02*
Y45610D01*
X12940Y44895D02*
X13060D01*
X13000Y44835D02*
Y44955D01*
X18790Y46700D02*
X18910D01*
X18850Y46640D02*
Y46760D01*
X16840Y45650D02*
X16960D01*
X16900Y45590D02*
Y45710D01*
X10390Y48200D02*
X10510D01*
X10450Y48140D02*
Y48260D01*
X10940Y43750D02*
X11060D01*
X11000Y43690D02*
Y43810D01*
X13740Y41500D02*
X13860D01*
X13800Y41440D02*
Y41560D01*
X10540Y36400D02*
X10660D01*
X10600Y36340D02*
Y36460D01*
X10540Y32750D02*
X10660D01*
X10600Y32690D02*
Y32810D01*
X10740Y27850D02*
X10860D01*
X10800Y27790D02*
Y27910D01*
X16090Y31600D02*
X16210D01*
X16150Y31540D02*
Y31660D01*
X18840Y34550D02*
X18960D01*
X18900Y34490D02*
Y34610D01*
X19090Y31250D02*
X19210D01*
X19150Y31190D02*
Y31310D01*
X26840Y28600D02*
X26960D01*
X26900Y28540D02*
Y28660D01*
X29290Y31350D02*
X29410D01*
X29350Y31290D02*
Y31410D01*
X29440Y36150D02*
X29560D01*
X29500Y36090D02*
Y36210D01*
X26190Y33850D02*
X26310D01*
X26250Y33790D02*
Y33910D01*
X26840Y31492D02*
X26960D01*
X26900Y31432D02*
Y31552D01*
X26436Y32200D02*
X26556D01*
X26496Y32140D02*
Y32260D01*
X26750Y33300D02*
X26870D01*
X26810Y33240D02*
Y33360D01*
X26290Y34650D02*
X26410D01*
X26350Y34590D02*
Y34710D01*
X23840Y34650D02*
X23960D01*
X23900Y34590D02*
Y34710D01*
X22340Y34750D02*
X22460D01*
X22400Y34690D02*
Y34810D01*
X23980Y30900D02*
X24100D01*
X24040Y30840D02*
Y30960D01*
X22540Y31600D02*
X22660D01*
X22600Y31540D02*
Y31660D01*
X23540Y36950D02*
X23660D01*
X23600Y36890D02*
Y37010D01*
X20217Y39700D02*
X20337D01*
X20277Y39640D02*
Y39760D01*
X20740Y39700D02*
X20860D01*
X20800Y39640D02*
Y39760D01*
X12940Y46950D02*
X13060D01*
X13000Y46890D02*
Y47010D01*
X22640Y41400D02*
X22760D01*
X22700Y41340D02*
Y41460D01*
X27340Y35650D02*
X27460D01*
X27400Y35590D02*
Y35710D01*
X17640Y39700D02*
X17760D01*
X17700Y39640D02*
Y39760D01*
X22790Y40850D02*
X22910D01*
X22850Y40790D02*
Y40910D01*
X16440Y37234D02*
X16560D01*
X16500Y37174D02*
Y37294D01*
X12540Y37100D02*
X12660D01*
X12600Y37040D02*
Y37160D01*
X12582Y28642D02*
X12702D01*
X12642Y28582D02*
Y28702D01*
X27340Y30950D02*
X27460D01*
X27400Y30890D02*
Y31010D01*
X13190Y28150D02*
X13310D01*
X13250Y28090D02*
Y28210D01*
X18140Y39700D02*
X18260D01*
X18200Y39640D02*
Y39760D01*
X14240Y45350D02*
X14360D01*
X14300Y45290D02*
Y45410D01*
X15740Y45650D02*
X15860D01*
X15800Y45590D02*
Y45710D01*
X16840Y41450D02*
X16960D01*
X16900Y41390D02*
Y41510D01*
X17540Y42050D02*
X17660D01*
X17600Y41990D02*
Y42110D01*
M02*
