G04*
G04 #@! TF.GenerationSoftware,Altium Limited,Altium Designer,18.1.9 (240)*
G04*
G04 Layer_Color=8421504*
%FSLAX24Y24*%
%MOIN*%
G70*
G01*
G75*
%ADD18R,0.0200X0.0200*%
%ADD19R,0.0300X0.0300*%
%ADD20R,0.0433X0.0551*%
%ADD21R,0.0300X0.0300*%
%ADD22R,0.0984X0.0472*%
%ADD23R,0.0787X0.1378*%
%ADD24R,0.1772X0.0394*%
%ADD25R,0.1181X0.0630*%
%ADD26R,0.0200X0.0200*%
%ADD27O,0.0240X0.0800*%
%ADD28R,0.0630X0.0276*%
%ADD29R,0.1181X0.0827*%
%ADD30R,0.0800X0.0600*%
%ADD31R,0.0520X0.0079*%
%ADD32R,0.0079X0.0520*%
%ADD33O,0.0079X0.0520*%
%ADD34O,0.0800X0.0240*%
D18*
X17972Y44845D02*
D03*
Y45245D02*
D03*
X23100Y45000D02*
D03*
Y45400D02*
D03*
X22550Y45000D02*
D03*
Y45400D02*
D03*
X13700Y38600D02*
D03*
Y39000D02*
D03*
X18522Y44845D02*
D03*
Y45245D02*
D03*
D19*
X15016Y44800D02*
D03*
Y44200D02*
D03*
X22055Y45000D02*
D03*
Y45600D02*
D03*
X21466Y45000D02*
D03*
Y45600D02*
D03*
X15100Y46100D02*
D03*
Y46700D02*
D03*
X16100Y46100D02*
D03*
Y46700D02*
D03*
X17300Y32100D02*
D03*
Y32700D02*
D03*
X16900Y46150D02*
D03*
Y46750D02*
D03*
X17422Y45443D02*
D03*
Y44843D02*
D03*
X18200Y32100D02*
D03*
Y32700D02*
D03*
X15800Y44800D02*
D03*
Y44200D02*
D03*
X20800Y33300D02*
D03*
Y32700D02*
D03*
X20100Y33300D02*
D03*
Y32700D02*
D03*
D20*
X22055Y43725D02*
D03*
X22645D02*
D03*
X22055Y42825D02*
D03*
X22645D02*
D03*
D21*
X22700Y41925D02*
D03*
X22100D02*
D03*
X24850Y46700D02*
D03*
X25450D02*
D03*
X26200Y45645D02*
D03*
X26800D02*
D03*
X24850D02*
D03*
X25450D02*
D03*
X22377Y28445D02*
D03*
X22977D02*
D03*
X17450Y28397D02*
D03*
X18050D02*
D03*
X21015Y28447D02*
D03*
X21615D02*
D03*
X18900Y28397D02*
D03*
X19500D02*
D03*
X21015Y29030D02*
D03*
X21615D02*
D03*
X22350Y29000D02*
D03*
X22950D02*
D03*
X18900Y29047D02*
D03*
X19500D02*
D03*
X17434Y28975D02*
D03*
X18034D02*
D03*
X26250Y46610D02*
D03*
X26850D02*
D03*
X20700Y40425D02*
D03*
X20100D02*
D03*
X21500D02*
D03*
X22100D02*
D03*
X13500Y43350D02*
D03*
X12900D02*
D03*
X20925Y46500D02*
D03*
X21475D02*
D03*
X22425D02*
D03*
X22975D02*
D03*
X26096Y35300D02*
D03*
X25496D02*
D03*
X26150Y36200D02*
D03*
X25550D02*
D03*
D22*
X20650Y42825D02*
D03*
Y43730D02*
D03*
Y41919D02*
D03*
D23*
X18485Y42825D02*
D03*
D24*
X28225Y44966D02*
D03*
Y45754D02*
D03*
X28250Y41313D02*
D03*
Y42100D02*
D03*
X11883Y36368D02*
D03*
Y35580D02*
D03*
Y32884D02*
D03*
Y32096D02*
D03*
D25*
X29308Y44100D02*
D03*
Y46620D02*
D03*
X29333Y40446D02*
D03*
Y42966D02*
D03*
X10800Y37234D02*
D03*
Y34714D02*
D03*
Y33750D02*
D03*
Y31230D02*
D03*
D26*
X26496Y44450D02*
D03*
X26096D02*
D03*
X25400Y44400D02*
D03*
X25000D02*
D03*
X13700Y32600D02*
D03*
X14100D02*
D03*
X15650Y33300D02*
D03*
X15250D02*
D03*
X13750Y34000D02*
D03*
X14150D02*
D03*
X14800Y28700D02*
D03*
X15200D02*
D03*
X13700D02*
D03*
X14100D02*
D03*
X27300Y39850D02*
D03*
X26900D02*
D03*
X27800Y39450D02*
D03*
X28200D02*
D03*
D27*
X26000Y41350D02*
D03*
X25500Y43550D02*
D03*
X25000D02*
D03*
X26500D02*
D03*
X26000D02*
D03*
X25000Y41350D02*
D03*
X25500D02*
D03*
X26500D02*
D03*
X14200Y31700D02*
D03*
X14700Y29500D02*
D03*
X15200D02*
D03*
X13700D02*
D03*
X14200D02*
D03*
X15200Y31700D02*
D03*
X14700D02*
D03*
X13700D02*
D03*
X14250Y37044D02*
D03*
X14750Y34844D02*
D03*
X15250D02*
D03*
X13750D02*
D03*
X14250D02*
D03*
X15250Y37044D02*
D03*
X14750D02*
D03*
X13750D02*
D03*
D28*
X11900Y27658D02*
D03*
Y27166D02*
D03*
Y28150D02*
D03*
Y28642D02*
D03*
Y48250D02*
D03*
Y47758D02*
D03*
X11942Y43894D02*
D03*
Y43402D02*
D03*
X28250Y31000D02*
D03*
Y31492D02*
D03*
Y35608D02*
D03*
Y36100D02*
D03*
D29*
X10758Y29744D02*
D03*
Y26063D02*
D03*
Y49352D02*
D03*
Y46656D02*
D03*
X10800Y44997D02*
D03*
Y42300D02*
D03*
X29392Y29898D02*
D03*
Y32594D02*
D03*
Y34506D02*
D03*
Y37202D02*
D03*
D30*
X15800Y38596D02*
D03*
Y40446D02*
D03*
D31*
X18710Y35863D02*
D03*
Y36059D02*
D03*
Y36256D02*
D03*
Y36453D02*
D03*
Y36650D02*
D03*
Y36847D02*
D03*
Y38028D02*
D03*
X22450D02*
D03*
Y37831D02*
D03*
Y37634D02*
D03*
Y37437D02*
D03*
Y37241D02*
D03*
Y37044D02*
D03*
Y36847D02*
D03*
Y36650D02*
D03*
Y36453D02*
D03*
Y36256D02*
D03*
Y36059D02*
D03*
Y35863D02*
D03*
X18710Y37437D02*
D03*
Y37634D02*
D03*
Y37831D02*
D03*
Y37241D02*
D03*
Y37044D02*
D03*
D32*
X19497Y38815D02*
D03*
X19694D02*
D03*
X19891D02*
D03*
X20088D02*
D03*
X20678D02*
D03*
X20875D02*
D03*
X21072D02*
D03*
X21269D02*
D03*
X21466D02*
D03*
X21663D02*
D03*
Y35075D02*
D03*
X21466D02*
D03*
X21269D02*
D03*
X21072D02*
D03*
X20875D02*
D03*
X20678D02*
D03*
X20482D02*
D03*
X20285D02*
D03*
X20088D02*
D03*
X19891D02*
D03*
X19694D02*
D03*
X20482Y38815D02*
D03*
X20285D02*
D03*
D33*
X19497Y35075D02*
D03*
D34*
X24750Y37950D02*
D03*
X26950Y38450D02*
D03*
Y38950D02*
D03*
Y37450D02*
D03*
Y37950D02*
D03*
X24750Y38950D02*
D03*
Y38450D02*
D03*
Y37450D02*
D03*
M02*
