G04*
G04 #@! TF.GenerationSoftware,Altium Limited,Altium Designer,18.1.9 (240)*
G04*
G04 Layer_Physical_Order=2*
G04 Layer_Color=16711680*
%FSLAX24Y24*%
%MOIN*%
G70*
G01*
G75*
%ADD12C,0.0080*%
%ADD61C,0.0150*%
%ADD64C,0.0200*%
%ADD65C,0.1181*%
%ADD66O,0.0600X0.0800*%
%ADD67R,0.0600X0.0800*%
%ADD68O,0.0800X0.0600*%
%ADD69R,0.0800X0.0600*%
%ADD70C,0.0500*%
%ADD71R,0.0500X0.0500*%
%ADD72R,0.0315X0.0315*%
%ADD73C,0.0315*%
%ADD74C,0.0197*%
%ADD75C,0.0240*%
G36*
X30007Y25493D02*
X13691D01*
X13679Y25543D01*
X13736Y25573D01*
X13841Y25659D01*
X13927Y25764D01*
X13991Y25884D01*
X14031Y26015D01*
X14044Y26150D01*
X14031Y26285D01*
X13991Y26416D01*
X13927Y26536D01*
X13841Y26641D01*
X13736Y26727D01*
X13616Y26791D01*
X13485Y26831D01*
X13350Y26844D01*
X13215Y26831D01*
X13084Y26791D01*
X12964Y26727D01*
X12859Y26641D01*
X12773Y26536D01*
X12709Y26416D01*
X12669Y26285D01*
X12656Y26150D01*
X12669Y26015D01*
X12709Y25884D01*
X12773Y25764D01*
X12859Y25659D01*
X12964Y25573D01*
X13021Y25543D01*
X13009Y25493D01*
X10093D01*
Y49850D01*
X30007D01*
Y25493D01*
D02*
G37*
%LPC*%
G36*
X29000Y49347D02*
Y48900D01*
X29353D01*
Y48950D01*
X29340Y49054D01*
X29299Y49152D01*
X29235Y49235D01*
X29152Y49299D01*
X29054Y49340D01*
X29000Y49347D01*
D02*
G37*
G36*
X23075D02*
Y48900D01*
X23428D01*
Y48950D01*
X23415Y49054D01*
X23374Y49152D01*
X23310Y49235D01*
X23227Y49299D01*
X23129Y49340D01*
X23075Y49347D01*
D02*
G37*
G36*
X17150D02*
Y48900D01*
X17503D01*
Y48950D01*
X17490Y49054D01*
X17449Y49152D01*
X17385Y49235D01*
X17302Y49299D01*
X17204Y49340D01*
X17150Y49347D01*
D02*
G37*
G36*
X28900D02*
X28846Y49340D01*
X28748Y49299D01*
X28665Y49235D01*
X28601Y49152D01*
X28560Y49054D01*
X28547Y48950D01*
Y48900D01*
X28900D01*
Y49347D01*
D02*
G37*
G36*
X22975D02*
X22921Y49340D01*
X22823Y49299D01*
X22740Y49235D01*
X22676Y49152D01*
X22635Y49054D01*
X22622Y48950D01*
Y48900D01*
X22975D01*
Y49347D01*
D02*
G37*
G36*
X17050D02*
X16996Y49340D01*
X16898Y49299D01*
X16815Y49235D01*
X16751Y49152D01*
X16710Y49054D01*
X16697Y48950D01*
Y48900D01*
X17050D01*
Y49347D01*
D02*
G37*
G36*
X29353Y48800D02*
X29000D01*
Y48353D01*
X29054Y48360D01*
X29152Y48401D01*
X29235Y48465D01*
X29299Y48548D01*
X29340Y48646D01*
X29353Y48750D01*
Y48800D01*
D02*
G37*
G36*
X23428D02*
X23075D01*
Y48353D01*
X23129Y48360D01*
X23227Y48401D01*
X23310Y48465D01*
X23374Y48548D01*
X23415Y48646D01*
X23428Y48750D01*
Y48800D01*
D02*
G37*
G36*
X17503D02*
X17150D01*
Y48353D01*
X17204Y48360D01*
X17302Y48401D01*
X17385Y48465D01*
X17449Y48548D01*
X17490Y48646D01*
X17503Y48750D01*
Y48800D01*
D02*
G37*
G36*
X28900D02*
X28547D01*
Y48750D01*
X28560Y48646D01*
X28601Y48548D01*
X28665Y48465D01*
X28748Y48401D01*
X28846Y48360D01*
X28900Y48353D01*
Y48800D01*
D02*
G37*
G36*
X22975D02*
X22622D01*
Y48750D01*
X22635Y48646D01*
X22676Y48548D01*
X22740Y48465D01*
X22823Y48401D01*
X22921Y48360D01*
X22975Y48353D01*
Y48800D01*
D02*
G37*
G36*
X17050D02*
X16697D01*
Y48750D01*
X16710Y48646D01*
X16751Y48548D01*
X16815Y48465D01*
X16898Y48401D01*
X16996Y48360D01*
X17050Y48353D01*
Y48800D01*
D02*
G37*
G36*
X21025Y49353D02*
X20921Y49340D01*
X20823Y49299D01*
X20740Y49235D01*
X20676Y49152D01*
X20635Y49054D01*
X20622Y48950D01*
Y48750D01*
X20635Y48646D01*
X20674Y48551D01*
X20475Y48352D01*
X20425Y48373D01*
X20425Y48391D01*
Y49350D01*
X19625D01*
Y48738D01*
X18991Y48104D01*
X15134D01*
X14887Y48351D01*
X14916Y48393D01*
X14996Y48360D01*
X15100Y48347D01*
X15204Y48360D01*
X15302Y48401D01*
X15385Y48465D01*
X15449Y48548D01*
X15490Y48646D01*
X15503Y48750D01*
Y48950D01*
X15490Y49054D01*
X15449Y49152D01*
X15385Y49235D01*
X15302Y49299D01*
X15204Y49340D01*
X15100Y49353D01*
X14996Y49340D01*
X14898Y49299D01*
X14815Y49235D01*
X14751Y49152D01*
X14710Y49054D01*
X14697Y48950D01*
Y48750D01*
X14710Y48646D01*
X14743Y48566D01*
X14701Y48537D01*
X14500Y48738D01*
Y49350D01*
X13700D01*
Y48350D01*
X14312D01*
X14906Y47756D01*
X14972Y47712D01*
X15050Y47696D01*
X19075D01*
X19153Y47712D01*
X19219Y47756D01*
X19813Y48350D01*
X20382D01*
X20402Y48350D01*
X20423Y48300D01*
X20176Y48053D01*
X20145Y48007D01*
X20134Y47952D01*
X20134Y47952D01*
Y39869D01*
X20119Y39859D01*
X20070Y39786D01*
X20053Y39700D01*
X20070Y39614D01*
X20119Y39541D01*
X20191Y39493D01*
X20277Y39476D01*
X20363Y39493D01*
X20436Y39541D01*
X20484Y39614D01*
X20501Y39700D01*
X20484Y39786D01*
X20436Y39859D01*
X20420Y39869D01*
Y47893D01*
X20897Y48370D01*
X20921Y48360D01*
X21025Y48347D01*
X21129Y48360D01*
X21227Y48401D01*
X21310Y48465D01*
X21374Y48548D01*
X21415Y48646D01*
X21428Y48750D01*
Y48950D01*
X21415Y49054D01*
X21374Y49152D01*
X21310Y49235D01*
X21227Y49299D01*
X21129Y49340D01*
X21025Y49353D01*
D02*
G37*
G36*
X26350Y49350D02*
X25550D01*
Y48350D01*
X26350D01*
Y49350D01*
D02*
G37*
G36*
X27950Y49353D02*
X27846Y49340D01*
X27748Y49299D01*
X27665Y49235D01*
X27601Y49152D01*
X27560Y49054D01*
X27547Y48950D01*
Y48750D01*
X27560Y48646D01*
X27601Y48548D01*
X27665Y48465D01*
X27748Y48401D01*
X27846Y48360D01*
X27950Y48347D01*
X28054Y48360D01*
X28152Y48401D01*
X28235Y48465D01*
X28299Y48548D01*
X28340Y48646D01*
X28353Y48750D01*
Y48950D01*
X28340Y49054D01*
X28299Y49152D01*
X28235Y49235D01*
X28152Y49299D01*
X28054Y49340D01*
X27950Y49353D01*
D02*
G37*
G36*
X26950D02*
X26846Y49340D01*
X26748Y49299D01*
X26665Y49235D01*
X26601Y49152D01*
X26560Y49054D01*
X26547Y48950D01*
Y48750D01*
X26560Y48646D01*
X26601Y48548D01*
X26665Y48465D01*
X26748Y48401D01*
X26846Y48360D01*
X26950Y48347D01*
X27054Y48360D01*
X27152Y48401D01*
X27235Y48465D01*
X27299Y48548D01*
X27340Y48646D01*
X27353Y48750D01*
Y48950D01*
X27340Y49054D01*
X27299Y49152D01*
X27235Y49235D01*
X27152Y49299D01*
X27054Y49340D01*
X26950Y49353D01*
D02*
G37*
G36*
X22025D02*
X21921Y49340D01*
X21823Y49299D01*
X21740Y49235D01*
X21676Y49152D01*
X21635Y49054D01*
X21622Y48950D01*
Y48750D01*
X21633Y48660D01*
X20699Y47726D01*
X20668Y47680D01*
X20657Y47625D01*
X20657Y47625D01*
Y39869D01*
X20641Y39859D01*
X20593Y39786D01*
X20576Y39700D01*
X20593Y39614D01*
X20641Y39541D01*
X20714Y39493D01*
X20800Y39476D01*
X20886Y39493D01*
X20959Y39541D01*
X21007Y39614D01*
X21024Y39700D01*
X21007Y39786D01*
X20959Y39859D01*
X20943Y39869D01*
Y47566D01*
X21797Y48420D01*
X21823Y48401D01*
X21921Y48360D01*
X22025Y48347D01*
X22129Y48360D01*
X22227Y48401D01*
X22310Y48465D01*
X22374Y48548D01*
X22415Y48646D01*
X22428Y48750D01*
Y48950D01*
X22415Y49054D01*
X22374Y49152D01*
X22310Y49235D01*
X22227Y49299D01*
X22129Y49340D01*
X22025Y49353D01*
D02*
G37*
G36*
X16100D02*
X15996Y49340D01*
X15898Y49299D01*
X15815Y49235D01*
X15751Y49152D01*
X15710Y49054D01*
X15697Y48950D01*
Y48750D01*
X15710Y48646D01*
X15751Y48548D01*
X15815Y48465D01*
X15898Y48401D01*
X15996Y48360D01*
X16100Y48347D01*
X16204Y48360D01*
X16302Y48401D01*
X16385Y48465D01*
X16449Y48548D01*
X16490Y48646D01*
X16503Y48750D01*
Y48950D01*
X16490Y49054D01*
X16449Y49152D01*
X16385Y49235D01*
X16302Y49299D01*
X16204Y49340D01*
X16100Y49353D01*
D02*
G37*
G36*
X11150Y40603D02*
X10950D01*
X10846Y40590D01*
X10748Y40549D01*
X10665Y40485D01*
X10601Y40402D01*
X10560Y40304D01*
X10547Y40200D01*
X10560Y40096D01*
X10601Y39998D01*
X10665Y39915D01*
X10748Y39851D01*
X10846Y39810D01*
X10950Y39797D01*
X11150D01*
X11254Y39810D01*
X11352Y39851D01*
X11435Y39915D01*
X11499Y39998D01*
X11540Y40096D01*
X11553Y40200D01*
X11540Y40304D01*
X11499Y40402D01*
X11435Y40485D01*
X11352Y40549D01*
X11254Y40590D01*
X11150Y40603D01*
D02*
G37*
G36*
X13000Y47174D02*
X12914Y47157D01*
X12841Y47109D01*
X12793Y47036D01*
X12776Y46950D01*
X12793Y46864D01*
X12841Y46791D01*
X12914Y46743D01*
X13000Y46726D01*
X13019Y46729D01*
X14164Y45584D01*
X14158Y45520D01*
X14141Y45509D01*
X14093Y45436D01*
X14076Y45350D01*
X14093Y45264D01*
X14141Y45191D01*
X14157Y45181D01*
Y43051D01*
X14157Y43051D01*
X14168Y42997D01*
X14199Y42951D01*
X17482Y39667D01*
X17493Y39614D01*
X17541Y39541D01*
X17614Y39493D01*
X17700Y39476D01*
X17786Y39493D01*
X17859Y39541D01*
X17907Y39614D01*
X17911Y39632D01*
X17967Y39657D01*
X17987Y39646D01*
X17993Y39614D01*
X18041Y39541D01*
X18114Y39493D01*
X18200Y39476D01*
X18286Y39493D01*
X18359Y39541D01*
X18407Y39614D01*
X18424Y39700D01*
X18407Y39786D01*
X18359Y39859D01*
X18286Y39907D01*
X18200Y39924D01*
X18155Y39915D01*
X16889Y41181D01*
X16913Y41228D01*
X16986Y41243D01*
X16991Y41246D01*
X17000D01*
X17078Y41262D01*
X17144Y41306D01*
X17680Y41842D01*
X17686Y41843D01*
X17759Y41891D01*
X17807Y41964D01*
X17824Y42050D01*
X17807Y42136D01*
X17759Y42209D01*
X17686Y42257D01*
X17600Y42274D01*
X17514Y42257D01*
X17441Y42209D01*
X17393Y42136D01*
X17392Y42130D01*
X16930Y41668D01*
X16900Y41674D01*
X16814Y41657D01*
X16741Y41609D01*
X16693Y41536D01*
X16678Y41463D01*
X16631Y41439D01*
X16243Y41827D01*
Y45281D01*
X16259Y45291D01*
X16307Y45364D01*
X16324Y45450D01*
X16307Y45536D01*
X16259Y45609D01*
X16186Y45657D01*
X16100Y45674D01*
X16023Y45659D01*
X16007Y45736D01*
X15959Y45809D01*
X15886Y45857D01*
X15800Y45874D01*
X15714Y45857D01*
X15641Y45809D01*
X15631Y45793D01*
X14359D01*
X13221Y46931D01*
X13224Y46950D01*
X13207Y47036D01*
X13159Y47109D01*
X13086Y47157D01*
X13000Y47174D01*
D02*
G37*
G36*
X11550Y39600D02*
X11100D01*
Y39250D01*
X11550D01*
Y39600D01*
D02*
G37*
G36*
X11000D02*
X10550D01*
Y39250D01*
X11000D01*
Y39600D01*
D02*
G37*
G36*
X11550Y39150D02*
X11100D01*
Y38800D01*
X11550D01*
Y39150D01*
D02*
G37*
G36*
X11000D02*
X10550D01*
Y38800D01*
X11000D01*
Y39150D01*
D02*
G37*
G36*
X29907Y38939D02*
X29700D01*
Y38731D01*
X29907D01*
Y38939D01*
D02*
G37*
G36*
Y38631D02*
X29700D01*
Y38424D01*
X29907D01*
Y38631D01*
D02*
G37*
G36*
X29158Y38941D02*
X29091Y38932D01*
X29028Y38906D01*
X28974Y38865D01*
X28933Y38811D01*
X28907Y38749D01*
X28898Y38681D01*
X28907Y38614D01*
X28933Y38552D01*
X28974Y38498D01*
X29028Y38456D01*
X29091Y38431D01*
X29158Y38422D01*
X29225Y38431D01*
X29288Y38456D01*
X29342Y38498D01*
X29343Y38499D01*
X29393Y38482D01*
Y38424D01*
X29600D01*
Y38681D01*
Y38939D01*
X29393D01*
Y38881D01*
X29343Y38864D01*
X29342Y38865D01*
X29288Y38906D01*
X29225Y38932D01*
X29158Y38941D01*
D02*
G37*
G36*
X22700Y41624D02*
X22614Y41607D01*
X22541Y41559D01*
X22493Y41486D01*
X22476Y41400D01*
X22493Y41314D01*
X22541Y41241D01*
X22614Y41193D01*
X22700Y41176D01*
X22716Y41179D01*
X22788Y41107D01*
X22774Y41059D01*
X22764Y41057D01*
X22691Y41009D01*
X22643Y40936D01*
X22626Y40850D01*
X22643Y40764D01*
X22691Y40691D01*
X22764Y40643D01*
X22815Y40633D01*
X23372Y40076D01*
Y38628D01*
X16579D01*
X16536Y38657D01*
X16450Y38674D01*
X16364Y38657D01*
X16291Y38609D01*
X16243Y38536D01*
X16226Y38450D01*
X16243Y38364D01*
X16291Y38291D01*
X16364Y38243D01*
X16450Y38226D01*
X16536Y38243D01*
X16579Y38272D01*
X23372D01*
Y37000D01*
X23379Y36965D01*
X23376Y36950D01*
X23393Y36864D01*
X23441Y36791D01*
X23514Y36743D01*
X23600Y36726D01*
X23686Y36743D01*
X23759Y36791D01*
X23807Y36864D01*
X23824Y36950D01*
X23807Y37036D01*
X23759Y37109D01*
X23728Y37129D01*
Y38350D01*
Y40101D01*
X23778Y40122D01*
X23922Y39979D01*
Y36050D01*
X23935Y35982D01*
X23974Y35924D01*
X24374Y35524D01*
X24374Y35524D01*
X24432Y35485D01*
X24500Y35472D01*
X27196D01*
Y31041D01*
X27193Y31036D01*
X27176Y30950D01*
X27193Y30864D01*
X27241Y30791D01*
X27314Y30743D01*
X27400Y30726D01*
X27486Y30743D01*
X27559Y30791D01*
X27607Y30864D01*
X27624Y30950D01*
X27607Y31036D01*
X27604Y31041D01*
Y35559D01*
X27607Y35564D01*
X27624Y35650D01*
X27607Y35736D01*
X27559Y35809D01*
X27486Y35857D01*
X27400Y35874D01*
X27314Y35857D01*
X27271Y35828D01*
X24574D01*
X24278Y36124D01*
Y40053D01*
X24278Y40053D01*
X24265Y40121D01*
X24226Y40179D01*
X24226Y40179D01*
X23109Y41296D01*
X23093Y41306D01*
X22894Y41506D01*
X22859Y41559D01*
X22786Y41607D01*
X22700Y41624D01*
D02*
G37*
G36*
X19100Y30302D02*
X19023Y30287D01*
X18957Y30243D01*
X18913Y30177D01*
X18898Y30100D01*
X18913Y30023D01*
X18957Y29957D01*
X19023Y29913D01*
X19100Y29898D01*
X19177Y29913D01*
X19243Y29957D01*
X19287Y30023D01*
X19302Y30100D01*
X19287Y30177D01*
X19243Y30243D01*
X19177Y30287D01*
X19100Y30302D01*
D02*
G37*
G36*
X17550Y37824D02*
X17464Y37807D01*
X17391Y37759D01*
X17343Y37686D01*
X17326Y37600D01*
X17343Y37514D01*
X17391Y37441D01*
X17407Y37431D01*
Y30050D01*
X17407Y30050D01*
X17418Y29995D01*
X17449Y29949D01*
X18348Y29050D01*
X18348Y29050D01*
X18363Y28973D01*
X18407Y28907D01*
X18473Y28863D01*
X18550Y28848D01*
X18627Y28863D01*
X18693Y28907D01*
X18737Y28973D01*
X18752Y29050D01*
X18737Y29127D01*
X18693Y29193D01*
X18627Y29237D01*
X18550Y29252D01*
X18550Y29252D01*
X17693Y30109D01*
Y37431D01*
X17709Y37441D01*
X17757Y37514D01*
X17774Y37600D01*
X17757Y37686D01*
X17709Y37759D01*
X17636Y37807D01*
X17550Y37824D01*
D02*
G37*
G36*
X17100Y38124D02*
X17014Y38107D01*
X16941Y38059D01*
X16893Y37986D01*
X16876Y37900D01*
X16893Y37814D01*
X16941Y37741D01*
X16957Y37731D01*
Y29043D01*
X16957Y29043D01*
X16913Y28977D01*
X16898Y28900D01*
X16913Y28823D01*
X16957Y28757D01*
X17023Y28713D01*
X17100Y28698D01*
X17177Y28713D01*
X17243Y28757D01*
X17287Y28823D01*
X17302Y28900D01*
X17287Y28977D01*
X17243Y29043D01*
X17243Y29043D01*
Y37731D01*
X17259Y37741D01*
X17307Y37814D01*
X17324Y37900D01*
X17307Y37986D01*
X17259Y38059D01*
X17186Y38107D01*
X17100Y38124D01*
D02*
G37*
G36*
X16500Y37458D02*
X16414Y37441D01*
X16341Y37392D01*
X16293Y37320D01*
X16276Y37234D01*
X16293Y37148D01*
X16322Y37105D01*
Y30326D01*
X14324Y28328D01*
X13379D01*
X13336Y28357D01*
X13250Y28374D01*
X13164Y28357D01*
X13091Y28309D01*
X13043Y28236D01*
X13026Y28150D01*
X13043Y28064D01*
X13091Y27991D01*
X13164Y27943D01*
X13250Y27926D01*
X13336Y27943D01*
X13379Y27972D01*
X14397D01*
X14466Y27985D01*
X14524Y28024D01*
X16626Y30126D01*
X16626Y30126D01*
X16665Y30184D01*
X16678Y30253D01*
Y37105D01*
X16707Y37148D01*
X16724Y37234D01*
X16707Y37320D01*
X16659Y37392D01*
X16586Y37441D01*
X16500Y37458D01*
D02*
G37*
G36*
X16900Y28252D02*
X16823Y28237D01*
X16757Y28193D01*
X16713Y28127D01*
X16698Y28050D01*
X16713Y27973D01*
X16757Y27907D01*
X16823Y27863D01*
X16900Y27848D01*
X16949Y27857D01*
X16950Y27857D01*
X16950Y27857D01*
X19354D01*
X19354Y27857D01*
X19420Y27813D01*
X19497Y27798D01*
X19575Y27813D01*
X19640Y27857D01*
X19684Y27923D01*
X19700Y28000D01*
X19684Y28077D01*
X19640Y28143D01*
X19575Y28187D01*
X19497Y28202D01*
X19420Y28187D01*
X19354Y28143D01*
X19354Y28143D01*
X17077D01*
X17043Y28193D01*
X16977Y28237D01*
X16900Y28252D01*
D02*
G37*
G36*
X29750Y28350D02*
X29050D01*
Y27650D01*
X29750D01*
Y28350D01*
D02*
G37*
G36*
X29400Y27353D02*
X29309Y27341D01*
X29223Y27306D01*
X29150Y27250D01*
X29094Y27177D01*
X29059Y27091D01*
X29047Y27000D01*
X29059Y26909D01*
X29094Y26823D01*
X29150Y26750D01*
X29223Y26694D01*
X29309Y26659D01*
X29400Y26647D01*
X29491Y26659D01*
X29577Y26694D01*
X29650Y26750D01*
X29706Y26823D01*
X29741Y26909D01*
X29753Y27000D01*
X29741Y27091D01*
X29706Y27177D01*
X29650Y27250D01*
X29577Y27306D01*
X29491Y27341D01*
X29400Y27353D01*
D02*
G37*
G36*
X21475Y26897D02*
Y26450D01*
X21828D01*
Y26500D01*
X21815Y26604D01*
X21774Y26702D01*
X21710Y26785D01*
X21627Y26849D01*
X21529Y26890D01*
X21475Y26897D01*
D02*
G37*
G36*
X21375D02*
X21321Y26890D01*
X21223Y26849D01*
X21140Y26785D01*
X21076Y26702D01*
X21035Y26604D01*
X21022Y26500D01*
Y26450D01*
X21375D01*
Y26897D01*
D02*
G37*
G36*
X15950D02*
Y26450D01*
X16303D01*
Y26500D01*
X16290Y26604D01*
X16249Y26702D01*
X16185Y26785D01*
X16102Y26849D01*
X16004Y26890D01*
X15950Y26897D01*
D02*
G37*
G36*
X15850D02*
X15796Y26890D01*
X15698Y26849D01*
X15615Y26785D01*
X15551Y26702D01*
X15510Y26604D01*
X15497Y26500D01*
Y26450D01*
X15850D01*
Y26897D01*
D02*
G37*
G36*
X29450Y26346D02*
Y26050D01*
X29746D01*
X29741Y26091D01*
X29706Y26177D01*
X29650Y26250D01*
X29577Y26306D01*
X29491Y26341D01*
X29450Y26346D01*
D02*
G37*
G36*
X29350D02*
X29309Y26341D01*
X29223Y26306D01*
X29150Y26250D01*
X29094Y26177D01*
X29059Y26091D01*
X29054Y26050D01*
X29350D01*
Y26346D01*
D02*
G37*
G36*
X21828Y26350D02*
X21475D01*
Y25903D01*
X21529Y25910D01*
X21627Y25951D01*
X21710Y26015D01*
X21774Y26098D01*
X21815Y26196D01*
X21828Y26300D01*
Y26350D01*
D02*
G37*
G36*
X21375D02*
X21022D01*
Y26300D01*
X21035Y26196D01*
X21076Y26098D01*
X21140Y26015D01*
X21223Y25951D01*
X21321Y25910D01*
X21375Y25903D01*
Y26350D01*
D02*
G37*
G36*
X16303D02*
X15950D01*
Y25903D01*
X16004Y25910D01*
X16102Y25951D01*
X16185Y26015D01*
X16249Y26098D01*
X16290Y26196D01*
X16303Y26300D01*
Y26350D01*
D02*
G37*
G36*
X15850D02*
X15497D01*
Y26300D01*
X15510Y26196D01*
X15551Y26098D01*
X15615Y26015D01*
X15698Y25951D01*
X15796Y25910D01*
X15850Y25903D01*
Y26350D01*
D02*
G37*
G36*
X12600Y37324D02*
X12514Y37307D01*
X12441Y37259D01*
X12393Y37186D01*
X12376Y37100D01*
X12393Y37014D01*
X12441Y36941D01*
X12464Y36926D01*
Y33629D01*
X12435Y33586D01*
X12418Y33500D01*
X12435Y33414D01*
X12464Y33371D01*
Y28771D01*
X12435Y28728D01*
X12418Y28642D01*
X12424Y28612D01*
X12422Y28600D01*
Y27700D01*
X12435Y27632D01*
X12474Y27574D01*
X12924Y27124D01*
X12982Y27085D01*
X13050Y27072D01*
X18722D01*
Y26900D01*
X18500D01*
Y25900D01*
X19300D01*
Y26900D01*
X19078D01*
Y27072D01*
X23501D01*
X24025Y26548D01*
Y25900D01*
X24825D01*
Y26900D01*
X24177D01*
X23701Y27376D01*
X23643Y27415D01*
X23575Y27428D01*
X13124D01*
X12778Y27774D01*
Y28469D01*
X12801Y28484D01*
X12849Y28556D01*
X12866Y28642D01*
X12849Y28728D01*
X12821Y28771D01*
Y33371D01*
X12849Y33414D01*
X12866Y33500D01*
X12849Y33586D01*
X12821Y33629D01*
Y37058D01*
X12818Y37069D01*
X12824Y37100D01*
X12807Y37186D01*
X12759Y37259D01*
X12686Y37307D01*
X12600Y37324D01*
D02*
G37*
G36*
X23425Y26903D02*
X23321Y26890D01*
X23223Y26849D01*
X23140Y26785D01*
X23076Y26702D01*
X23035Y26604D01*
X23022Y26500D01*
Y26300D01*
X23035Y26196D01*
X23076Y26098D01*
X23140Y26015D01*
X23223Y25951D01*
X23321Y25910D01*
X23425Y25897D01*
X23529Y25910D01*
X23627Y25951D01*
X23710Y26015D01*
X23774Y26098D01*
X23815Y26196D01*
X23828Y26300D01*
Y26500D01*
X23815Y26604D01*
X23774Y26702D01*
X23710Y26785D01*
X23627Y26849D01*
X23529Y26890D01*
X23425Y26903D01*
D02*
G37*
G36*
X22425D02*
X22321Y26890D01*
X22223Y26849D01*
X22140Y26785D01*
X22076Y26702D01*
X22035Y26604D01*
X22022Y26500D01*
Y26300D01*
X22035Y26196D01*
X22076Y26098D01*
X22140Y26015D01*
X22223Y25951D01*
X22321Y25910D01*
X22425Y25897D01*
X22529Y25910D01*
X22627Y25951D01*
X22710Y26015D01*
X22774Y26098D01*
X22815Y26196D01*
X22828Y26300D01*
Y26500D01*
X22815Y26604D01*
X22774Y26702D01*
X22710Y26785D01*
X22627Y26849D01*
X22529Y26890D01*
X22425Y26903D01*
D02*
G37*
G36*
X17900D02*
X17796Y26890D01*
X17698Y26849D01*
X17615Y26785D01*
X17551Y26702D01*
X17510Y26604D01*
X17497Y26500D01*
Y26300D01*
X17510Y26196D01*
X17551Y26098D01*
X17615Y26015D01*
X17698Y25951D01*
X17796Y25910D01*
X17900Y25897D01*
X18004Y25910D01*
X18102Y25951D01*
X18185Y26015D01*
X18249Y26098D01*
X18290Y26196D01*
X18303Y26300D01*
Y26500D01*
X18290Y26604D01*
X18249Y26702D01*
X18185Y26785D01*
X18102Y26849D01*
X18004Y26890D01*
X17900Y26903D01*
D02*
G37*
G36*
X16900D02*
X16796Y26890D01*
X16698Y26849D01*
X16615Y26785D01*
X16551Y26702D01*
X16510Y26604D01*
X16497Y26500D01*
Y26300D01*
X16510Y26196D01*
X16551Y26098D01*
X16615Y26015D01*
X16698Y25951D01*
X16796Y25910D01*
X16900Y25897D01*
X17004Y25910D01*
X17102Y25951D01*
X17185Y26015D01*
X17249Y26098D01*
X17290Y26196D01*
X17303Y26300D01*
Y26500D01*
X17290Y26604D01*
X17249Y26702D01*
X17185Y26785D01*
X17102Y26849D01*
X17004Y26890D01*
X16900Y26903D01*
D02*
G37*
G36*
X26950Y27194D02*
X26815Y27181D01*
X26684Y27141D01*
X26564Y27077D01*
X26459Y26991D01*
X26373Y26886D01*
X26309Y26766D01*
X26269Y26635D01*
X26256Y26500D01*
X26269Y26365D01*
X26309Y26234D01*
X26373Y26114D01*
X26459Y26009D01*
X26564Y25923D01*
X26684Y25859D01*
X26815Y25819D01*
X26950Y25806D01*
X27085Y25819D01*
X27216Y25859D01*
X27336Y25923D01*
X27441Y26009D01*
X27527Y26114D01*
X27591Y26234D01*
X27631Y26365D01*
X27644Y26500D01*
X27631Y26635D01*
X27591Y26766D01*
X27527Y26886D01*
X27441Y26991D01*
X27336Y27077D01*
X27216Y27141D01*
X27085Y27181D01*
X26950Y27194D01*
D02*
G37*
G36*
X29746Y25950D02*
X29450D01*
Y25654D01*
X29491Y25659D01*
X29577Y25694D01*
X29650Y25750D01*
X29706Y25823D01*
X29741Y25909D01*
X29746Y25950D01*
D02*
G37*
G36*
X29350D02*
X29054D01*
X29059Y25909D01*
X29094Y25823D01*
X29150Y25750D01*
X29223Y25694D01*
X29309Y25659D01*
X29350Y25654D01*
Y25950D01*
D02*
G37*
%LPD*%
G36*
X15641Y45491D02*
X15714Y45443D01*
X15800Y45426D01*
X15877Y45441D01*
X15893Y45364D01*
X15941Y45291D01*
X15957Y45281D01*
Y41768D01*
X15957Y41768D01*
X15968Y41714D01*
X15999Y41667D01*
X17684Y39982D01*
X17669Y39933D01*
X17629Y39924D01*
X14443Y43111D01*
Y45181D01*
X14459Y45191D01*
X14507Y45264D01*
X14524Y45350D01*
X14507Y45436D01*
X14489Y45463D01*
X14513Y45507D01*
X15631D01*
X15641Y45491D01*
D02*
G37*
D12*
X20277Y47952D02*
X21100Y48775D01*
X17550Y30050D02*
Y37600D01*
Y30050D02*
X18550Y29050D01*
X16900Y28050D02*
X16950Y28000D01*
X19497D01*
X17100Y28900D02*
Y37900D01*
X16100Y41768D02*
Y45450D01*
X20277Y39700D02*
Y47952D01*
X20800Y39700D02*
Y47625D01*
X22025Y48850D01*
X17651Y39700D02*
X17700D01*
X21025Y48850D02*
X21100Y48775D01*
X18168Y39700D02*
X18200D01*
X16100Y41768D02*
X18168Y39700D01*
X14300Y43051D02*
Y45350D01*
Y43051D02*
X17651Y39700D01*
X13000Y46950D02*
X14300Y45650D01*
X15800D01*
D61*
X18900Y27250D02*
X23575D01*
X13050D02*
X18900D01*
Y26400D02*
Y27250D01*
X23575D02*
X24425Y26400D01*
X12600Y27700D02*
X13050Y27250D01*
X16450Y38450D02*
X23450D01*
X16500Y30253D02*
Y37234D01*
X14397Y28150D02*
X16500Y30253D01*
X13250Y28150D02*
X14397D01*
X12642Y33500D02*
Y37058D01*
Y28642D02*
Y33500D01*
X24500Y35650D02*
X27400D01*
X24100Y36050D02*
X24500Y35650D01*
X24100Y36050D02*
Y40053D01*
X23550Y37000D02*
Y38350D01*
Y37000D02*
X23600Y36950D01*
X22983Y41170D02*
X24100Y40053D01*
X22977Y41170D02*
X22983D01*
X22747Y41400D02*
X22977Y41170D01*
X22700Y41400D02*
X22747D01*
X23550Y38350D02*
Y40150D01*
X22850Y40850D02*
X23550Y40150D01*
X12600Y27700D02*
Y28600D01*
X12642Y28642D01*
X12600Y37100D02*
X12642Y37058D01*
X23450Y38450D02*
X23550Y38350D01*
D64*
X14100Y48850D02*
X15050Y47900D01*
X19075D01*
X20025Y48850D01*
X27400Y30950D02*
Y35650D01*
X17000Y41450D02*
X17600Y42050D01*
X16900Y41450D02*
X17000D01*
D65*
X26950Y26500D02*
D03*
X13350Y26150D02*
D03*
D66*
X17100Y48850D02*
D03*
X15100D02*
D03*
X16100D02*
D03*
X23025D02*
D03*
X21025D02*
D03*
X22025D02*
D03*
X28950D02*
D03*
X26950D02*
D03*
X27950D02*
D03*
X15900Y26400D02*
D03*
X17900D02*
D03*
X16900D02*
D03*
X21425D02*
D03*
X23425D02*
D03*
X22425D02*
D03*
D67*
X14100Y48850D02*
D03*
X20025D02*
D03*
X25950D02*
D03*
X18900Y26400D02*
D03*
X24425D02*
D03*
D68*
X11050Y40200D02*
D03*
D69*
Y39200D02*
D03*
D70*
X29400Y26000D02*
D03*
Y27000D02*
D03*
D71*
Y28000D02*
D03*
D72*
X29650Y38681D02*
D03*
D73*
X29158D02*
D03*
D74*
X23750Y43550D02*
D03*
X27050Y43700D02*
D03*
X25600Y38500D02*
D03*
X26050Y37550D02*
D03*
X26650Y37050D02*
D03*
X27150Y36450D02*
D03*
X21550Y29600D02*
D03*
X20200Y28700D02*
D03*
X16650Y28500D02*
D03*
X16850Y31350D02*
D03*
X16800Y34250D02*
D03*
X18000Y46850D02*
D03*
X13350Y45550D02*
D03*
X16550Y43300D02*
D03*
X16600Y44550D02*
D03*
X15350Y43750D02*
D03*
X15700Y42250D02*
D03*
X15100Y42850D02*
D03*
X14600Y43750D02*
D03*
X17700Y43900D02*
D03*
X17150Y43500D02*
D03*
X19600Y42300D02*
D03*
Y43500D02*
D03*
X26250Y42300D02*
D03*
X25500Y42350D02*
D03*
X24400Y40500D02*
D03*
X27800Y29250D02*
D03*
X26750Y30150D02*
D03*
X25850Y31050D02*
D03*
X24600Y32300D02*
D03*
X23100Y32200D02*
D03*
X21450Y36100D02*
D03*
X20700Y36050D02*
D03*
X19850D02*
D03*
X21600Y37500D02*
D03*
X21500Y36750D02*
D03*
X20750Y36700D02*
D03*
X19900D02*
D03*
X20800Y37500D02*
D03*
X19850Y37550D02*
D03*
X14650Y30650D02*
D03*
X14050D02*
D03*
X11900Y29600D02*
D03*
X19100Y30100D02*
D03*
X20150Y30300D02*
D03*
X24200Y29217D02*
D03*
X18550Y29050D02*
D03*
X16900Y28050D02*
D03*
X19497Y28000D02*
D03*
X17100Y28900D02*
D03*
D75*
X16100Y45450D02*
D03*
X16450Y38450D02*
D03*
X12642Y33500D02*
D03*
X17550Y37600D02*
D03*
X17100Y37900D02*
D03*
X18699Y39045D02*
D03*
X24950Y34750D02*
D03*
X19350Y45950D02*
D03*
X23415Y47100D02*
D03*
X27900Y42850D02*
D03*
X27450Y44400D02*
D03*
X13000Y42550D02*
D03*
X12932Y44100D02*
D03*
X12600Y49650D02*
D03*
X17800Y46000D02*
D03*
X19200Y40850D02*
D03*
X18388Y41500D02*
D03*
X26175Y29553D02*
D03*
X23000Y30400D02*
D03*
X15900Y29217D02*
D03*
X11700Y30650D02*
D03*
X11850Y37500D02*
D03*
X14650Y39400D02*
D03*
X13600Y39950D02*
D03*
X13180Y40933D02*
D03*
X22850Y39045D02*
D03*
X23200Y33750D02*
D03*
X21750Y31200D02*
D03*
X24900Y33250D02*
D03*
X23350Y45900D02*
D03*
X29600Y41950D02*
D03*
X29500Y45550D02*
D03*
X13000Y44895D02*
D03*
X18850Y46700D02*
D03*
X16900Y45650D02*
D03*
X10450Y48200D02*
D03*
X11000Y43750D02*
D03*
X13800Y41500D02*
D03*
X10600Y36400D02*
D03*
Y32750D02*
D03*
X10800Y27850D02*
D03*
X16150Y31600D02*
D03*
X18900Y34550D02*
D03*
X19150Y31250D02*
D03*
X26900Y28600D02*
D03*
X29350Y31350D02*
D03*
X29500Y36150D02*
D03*
X26250Y33850D02*
D03*
X26900Y31492D02*
D03*
X26496Y32200D02*
D03*
X26810Y33300D02*
D03*
X26350Y34650D02*
D03*
X23900D02*
D03*
X22400Y34750D02*
D03*
X24040Y30900D02*
D03*
X22600Y31600D02*
D03*
X23600Y36950D02*
D03*
X20277Y39700D02*
D03*
X20800D02*
D03*
X13000Y46950D02*
D03*
X22700Y41400D02*
D03*
X27400Y35650D02*
D03*
X17700Y39700D02*
D03*
X22850Y40850D02*
D03*
X16500Y37234D02*
D03*
X12600Y37100D02*
D03*
X12642Y28642D02*
D03*
X27400Y30950D02*
D03*
X13250Y28150D02*
D03*
X18200Y39700D02*
D03*
X14300Y45350D02*
D03*
X15800Y45650D02*
D03*
X16900Y41450D02*
D03*
X17600Y42050D02*
D03*
M02*
